<svg width="21" height="20" viewBox="0 0 21 20" fill="none" xmlns="http://www.w3.org/2000/svg">
<path d="M9.08031 0.704413L2.20273 5.51872C1.33377 6.12699 0.850604 7.14892 0.931956 8.2065L1.63697 17.3717C1.72562 18.5241 2.76976 19.3617 3.91393 19.1983L7.08354 18.7454C8.06884 18.6047 8.8007 17.7609 8.8007 16.7656V15.5001C8.8007 14.3956 9.69613 13.5001 10.8007 13.5001C11.9053 13.5001 12.8007 14.3956 12.8007 15.5001V16.7656C12.8007 17.7609 13.5326 18.6047 14.5179 18.7454L17.6875 19.1983C18.8316 19.3617 19.8758 18.5241 19.9644 17.3717L20.6694 8.2065C20.7508 7.14892 20.2676 6.12699 19.3987 5.51872L12.5211 0.704414C11.4881 -0.0186579 10.1133 -0.0186594 9.08031 0.704413Z" fill="#CC400C"/>
</svg>
