<svg width="21" height="21" viewBox="0 0 21 21" fill="none" xmlns="http://www.w3.org/2000/svg">
<path fill-rule="evenodd" clip-rule="evenodd" d="M2.40015 3.50043H5.13093C5.20713 1.43189 7.82747 -0.0989156 9.70193 1.60514L10.9001 2.69443L12.0984 1.60514C13.9728 -0.0989156 16.5932 1.43189 16.6694 3.50043H18.4001C19.5047 3.50043 20.4001 4.39586 20.4001 5.50043V7.38932C20.4001 8.00297 19.9027 8.50043 19.289 8.50043H1.51126C0.897608 8.50043 0.400146 8.00297 0.400146 7.38932V5.50043C0.400146 4.39586 1.29558 3.50043 2.40015 3.50043ZM8.81354 3.50043H7.15755C7.24162 2.99889 7.88749 2.65857 8.35659 3.08502L8.81354 3.50043ZM14.6427 3.50043C14.5587 2.99889 13.9128 2.65857 13.4437 3.08502L12.9868 3.50043H14.6427Z" fill="#CC400C"/>
<path d="M7.90015 12.188V10.5004H1.51123V17.5004C1.51123 19.1573 2.85438 20.5004 4.51123 20.5004H16.289C17.9459 20.5004 19.289 19.1573 19.289 17.5004V10.5004H12.9001V12.188C12.9001 13.1199 11.8222 13.638 11.0944 13.0559C10.6885 12.7311 10.1118 12.7311 9.70585 13.0559C8.97814 13.638 7.90015 13.1199 7.90015 12.188Z" fill="#CC400C"/>
</svg>
