<svg width="18" height="22" viewBox="0 0 18 22" fill="none" xmlns="http://www.w3.org/2000/svg">
<path fill-rule="evenodd" clip-rule="evenodd" d="M3.78361 5.55783C3.91094 4.94343 4.09199 4.31876 4.34701 3.72842C4.7069 2.89535 5.23424 2.08332 6.01115 1.47719C6.80256 0.859751 7.79773 0.5 9.00001 0.5C10.2023 0.5 11.1975 0.859751 11.9889 1.47719C12.7658 2.08332 13.2931 2.89535 13.653 3.72842C13.908 4.31876 14.0891 4.94343 14.2164 5.55783C15.3183 5.77851 16.229 6.61196 16.5109 7.73175C20.0412 21.7578 16.9015 21.6512 11.2161 21.4581C10.5137 21.4343 9.77239 21.4091 9.00001 21.4091C8.22763 21.4091 7.48633 21.4343 6.7839 21.4581C1.09855 21.6512 -2.04119 21.7578 1.48912 7.73175C1.77097 6.61195 2.68172 5.77851 3.78361 5.55783ZM5.85039 5.5C5.93916 5.16256 6.04866 4.83259 6.18302 4.52158C6.45313 3.89632 6.80329 3.39585 7.24139 3.05406C7.66498 2.72358 8.22231 2.5 9.00001 2.5C9.77772 2.5 10.335 2.72358 10.7586 3.05406C11.1967 3.39585 11.5469 3.89631 11.817 4.52158C11.9514 4.83259 12.0609 5.16256 12.1496 5.5H5.85039Z" fill="#CC400C"/>
</svg>
