<svg width="344" height="311" viewBox="0 0 344 311" fill="none" xmlns="http://www.w3.org/2000/svg">
<g clip-path="url(#clip0_139_30060)">
<path fill-rule="evenodd" clip-rule="evenodd" d="M171.434 25.5479C144.439 25.5479 122.555 47.4316 122.555 74.4266C122.555 101.422 144.439 123.305 171.434 123.305C198.429 123.305 220.312 101.422 220.312 74.4266C220.312 47.4316 198.429 25.5479 171.434 25.5479ZM75.8613 120.637C126.741 120.637 167.988 161.884 167.988 212.764V288.271H122.164V212.764C122.164 207.345 121.233 202.144 119.523 197.312L52.214 264.621L19.8116 232.218L84.7216 167.308C81.8538 166.752 78.8915 166.461 75.8613 166.461H0.354492V120.637H75.8613ZM268.137 120.637C217.257 120.637 176.011 161.884 176.011 212.764V288.271H221.835V212.764C221.835 208.519 222.406 204.408 223.475 200.503L293.885 270.913L326.287 238.51L255.878 168.101C259.783 167.032 263.893 166.461 268.137 166.461H343.644V120.637H268.137Z" fill="#EB5017"/>
</g>
<defs>
<clipPath id="clip0_139_30060">
<rect width="343.292" height="310.906" fill="white" transform="translate(0.354492 0.09375)"/>
</clipPath>
</defs>
</svg>
