<?xml version="1.0" encoding="UTF-8"?>
<!DOCTYPE svg PUBLIC "-//W3C//DTD SVG 1.1//EN" "http://www.w3.org/Graphics/SVG/1.1/DTD/svg11.dtd">
<svg xmlns="http://www.w3.org/2000/svg" version="1.1" width="100px" height="100px" style="shape-rendering:geometricPrecision; text-rendering:geometricPrecision; image-rendering:optimizeQuality; fill-rule:evenodd; clip-rule:evenodd" xmlns:xlink="http://www.w3.org/1999/xlink">
<g><path style="opacity:0.773" fill="#000000" d="M 39.5,1.5 C 73.0181,-1.48229 88.5181,13.851 86,47.5C 92.7349,59.7983 90.0682,69.465 78,76.5C 71.4771,91.6791 59.9771,98.5125 43.5,97C 39.2211,95.5272 35.2211,93.5272 31.5,91C 24.6714,81.8129 17.5047,72.9795 10,64.5C 9.33333,60.8333 9.33333,57.1667 10,53.5C 11.5704,50.8559 12.737,48.0225 13.5,45C 10.4672,23.2552 19.1338,8.75515 39.5,1.5 Z M 40.5,6.5 C 71.3319,4.84074 84.8319,19.5074 81,50.5C 86.2345,57.7174 85.4011,64.2174 78.5,70C 76.9194,70.7065 75.4194,71.5399 74,72.5C 68.9312,86.2393 59.0979,92.7393 44.5,92C 34.6405,88.8072 28.1405,82.3072 25,72.5C 13.925,67.4312 11.5916,59.7646 18,49.5C 16.7773,40.2787 17.7773,31.2787 21,22.5C 25.3122,14.3414 31.8122,9.0081 40.5,6.5 Z"/></g>
<g><path style="opacity:0.743" fill="#000000" d="M 63.5,34.5 C 66.7572,34.174 68.2572,35.5073 68,38.5C 61.3333,48.5 54.6667,58.5 48,68.5C 42.3508,64.0178 37.1842,59.0178 32.5,53.5C 33.1667,52.1667 34.1667,51.1667 35.5,50.5C 39.7767,53.2735 43.61,56.6068 47,60.5C 53.1454,52.1993 58.6454,43.5326 63.5,34.5 Z"/></g>
</svg>
