<svg width="66" height="63" viewBox="0 0 66 63" fill="none" xmlns="http://www.w3.org/2000/svg">
<path fill-rule="evenodd" clip-rule="evenodd" d="M10.25 0.625C4.86522 0.625 0.5 4.99022 0.5 10.375V16.875C0.5 19.2809 1.80715 21.3815 3.75 22.5054V49.375C3.75 56.5547 9.5703 62.375 16.75 62.375H49.25C56.4297 62.375 62.25 56.5547 62.25 49.375V22.5054C64.1929 21.3815 65.5 19.2809 65.5 16.875V10.375C65.5 4.99022 61.1348 0.625 55.75 0.625H10.25ZM16.75 55.875C13.1601 55.875 10.25 52.9648 10.25 49.375V23.375H55.75V49.375C55.75 52.9648 52.8398 55.875 49.25 55.875H16.75ZM55.75 7.125C57.5449 7.125 59 8.58007 59 10.375V16.875H7V10.375C7 8.58007 8.45507 7.125 10.25 7.125H55.75Z" fill="#F56630"/>
</svg>
