<svg width="18" height="16" viewBox="0 0 18 16" fill="none" xmlns="http://www.w3.org/2000/svg">
<path fill-rule="evenodd" clip-rule="evenodd" d="M3.35381 0.5C1.86965 0.5 0.666504 1.70314 0.666504 3.1873V12.1667C0.666504 14.0076 2.15889 15.5 3.99984 15.5H13.9998C15.8408 15.5 17.3332 14.0076 17.3332 12.1667V6.7963C17.3332 4.9557 15.842 3.46296 14.0007 3.46296H11.4079C11.3747 3.41405 11.3364 3.35183 11.293 3.27427C11.1756 3.06429 11.0614 2.81759 10.9304 2.53459C10.8993 2.46744 10.8672 2.39822 10.834 2.32699C10.6747 1.98558 10.4816 1.58459 10.2581 1.26646C10.0726 1.00239 9.66724 0.5 9.0113 0.5H3.35381ZM9.40621 3.2098C9.44419 3.29197 9.4835 3.37702 9.52385 3.46296H2.33317V3.1873C2.33317 2.62362 2.79012 2.16667 3.35381 2.16667H8.85146C8.86383 2.18236 8.87814 2.20148 8.89437 2.22458C9.02154 2.40559 9.1584 2.67764 9.3237 3.03184C9.35038 3.08899 9.37794 3.14863 9.40621 3.2098ZM3.99984 13.8333C3.07936 13.8333 2.33317 13.0871 2.33317 12.1667V5.12963H11.065C11.0672 5.12968 11.0694 5.12971 11.0716 5.12974C11.0811 5.12987 11.0906 5.12983 11.1001 5.12963H14.0007C14.9208 5.12963 15.6665 5.87547 15.6665 6.7963V7.16667H13.9998C12.6191 7.16667 11.4998 8.28595 11.4998 9.66667C11.4998 11.0474 12.6191 12.1667 13.9998 12.1667H15.6665C15.6665 13.0871 14.9203 13.8333 13.9998 13.8333H3.99984ZM13.1665 9.66667C13.1665 9.20643 13.5396 8.83333 13.9998 8.83333H15.6665V10.5H13.9998C13.5396 10.5 13.1665 10.1269 13.1665 9.66667ZM8.79266 2.10269C8.79267 2.10227 8.79611 2.10471 8.80296 2.1113C8.79607 2.10641 8.79265 2.10312 8.79266 2.10269Z" fill="#F56630"/>
</svg>
