<svg width="16" height="16" viewBox="0 0 16 16" fill="none" xmlns="http://www.w3.org/2000/svg">
<path d="M7.58333 3.83333C7.58333 4.29357 7.21024 4.66667 6.75 4.66667H5.91667C5.45643 4.66667 5.08333 4.29357 5.08333 3.83333C5.08333 3.3731 5.45643 3 5.91667 3H6.75C7.21024 3 7.58333 3.3731 7.58333 3.83333Z" fill="#F56630"/>
<path d="M10.0833 7.16667C10.5436 7.16667 10.9167 6.79357 10.9167 6.33333C10.9167 5.8731 10.5436 5.5 10.0833 5.5H9.25C8.78976 5.5 8.41667 5.8731 8.41667 6.33333C8.41667 6.79357 8.78976 7.16667 9.25 7.16667H10.0833Z" fill="#F56630"/>
<path d="M7.58333 8.83333C7.58333 9.29357 7.21024 9.66667 6.75 9.66667H5.91667C5.45643 9.66667 5.08333 9.29357 5.08333 8.83333C5.08333 8.3731 5.45643 8 5.91667 8H6.75C7.21024 8 7.58333 8.3731 7.58333 8.83333Z" fill="#F56630"/>
<path d="M10.0833 4.66667C10.5436 4.66667 10.9167 4.29357 10.9167 3.83333C10.9167 3.3731 10.5436 3 10.0833 3H9.25C8.78976 3 8.41667 3.3731 8.41667 3.83333C8.41667 4.29357 8.78976 4.66667 9.25 4.66667H10.0833Z" fill="#F56630"/>
<path d="M7.58333 6.33333C7.58333 6.79357 7.21024 7.16667 6.75 7.16667H5.91667C5.45643 7.16667 5.08333 6.79357 5.08333 6.33333C5.08333 5.8731 5.45643 5.5 5.91667 5.5H6.75C7.21024 5.5 7.58333 5.8731 7.58333 6.33333Z" fill="#F56630"/>
<path d="M10.0833 9.66667C10.5436 9.66667 10.9167 9.29357 10.9167 8.83333C10.9167 8.3731 10.5436 8 10.0833 8H9.25C8.78976 8 8.41667 8.3731 8.41667 8.83333C8.41667 9.29357 8.78976 9.66667 9.25 9.66667H10.0833Z" fill="#F56630"/>
<path d="M7.58333 11.3333C7.58333 11.7936 7.21024 12.1667 6.75 12.1667H5.91667C5.45643 12.1667 5.08333 11.7936 5.08333 11.3333C5.08333 10.8731 5.45643 10.5 5.91667 10.5H6.75C7.21024 10.5 7.58333 10.8731 7.58333 11.3333Z" fill="#F56630"/>
<path d="M10.0833 12.1667C10.5436 12.1667 10.9167 11.7936 10.9167 11.3333C10.9167 10.8731 10.5436 10.5 10.0833 10.5H9.25C8.78976 10.5 8.41667 10.8731 8.41667 11.3333C8.41667 11.7936 8.78976 12.1667 9.25 12.1667H10.0833Z" fill="#F56630"/>
<path fill-rule="evenodd" clip-rule="evenodd" d="M3 2.16667C3 1.24619 3.74619 0.5 4.66667 0.5H11.3333C12.2538 0.5 13 1.24619 13 2.16667V13.8333H14.6667C15.1269 13.8333 15.5 14.2064 15.5 14.6667C15.5 15.1269 15.1269 15.5 14.6667 15.5H1.33333C0.873096 15.5 0.5 15.1269 0.5 14.6667C0.5 14.2064 0.873096 13.8333 1.33333 13.8333H3V2.16667ZM4.66667 13.8333H11.3333V2.16667H4.66667V13.8333Z" fill="#F56630"/>
</svg>
