<svg width="12" height="13" viewBox="0 0 12 13" fill="none" xmlns="http://www.w3.org/2000/svg">
<path d="M5.99984 4.45866C5.99984 4.13649 5.73867 3.87533 5.4165 3.87533C5.09434 3.87533 4.83317 4.13649 4.83317 4.45866V7.37533C4.83317 7.69749 5.09434 7.95866 5.4165 7.95866H7.1665C7.48867 7.95866 7.74984 7.69749 7.74984 7.37533C7.74984 7.05316 7.48867 6.79199 7.1665 6.79199H5.99984V4.45866Z" fill="#F56630"/>
<path fill-rule="evenodd" clip-rule="evenodd" d="M5.99984 0.666992C2.77818 0.666992 0.166504 3.27866 0.166504 6.50033C0.166504 9.72199 2.77818 12.3337 5.99984 12.3337C9.2215 12.3337 11.8332 9.72199 11.8332 6.50033C11.8332 3.27866 9.2215 0.666992 5.99984 0.666992ZM1.33317 6.50033C1.33317 3.923 3.42251 1.83366 5.99984 1.83366C8.57717 1.83366 10.6665 3.923 10.6665 6.50033C10.6665 9.07765 8.57717 11.167 5.99984 11.167C3.42251 11.167 1.33317 9.07765 1.33317 6.50033Z" fill="#F56630"/>
</svg>
