<svg width="18" height="17" viewBox="0 0 18 17" fill="none" xmlns="http://www.w3.org/2000/svg">
<path fill-rule="evenodd" clip-rule="evenodd" d="M10.6666 0.166504C8.82568 0.166504 7.33329 1.65889 7.33329 3.49984V5.1665H3.99996C2.15901 5.1665 0.666626 6.65889 0.666626 8.49984V13.4998C0.666626 15.3408 2.15901 16.8332 3.99996 16.8332H7.33329C9.17424 16.8332 10.6666 15.3408 10.6666 13.4998V11.8332H14C15.8409 11.8332 17.3333 10.3408 17.3333 8.49984V3.49984C17.3333 1.65889 15.8409 0.166504 14 0.166504H10.6666ZM10.6666 10.1665H14C14.9204 10.1665 15.6666 9.42031 15.6666 8.49984V3.49984C15.6666 2.57936 14.9204 1.83317 14 1.83317H10.6666C9.74615 1.83317 8.99996 2.57936 8.99996 3.49984V5.61244C9.99629 6.18879 10.6666 7.26603 10.6666 8.49984V10.1665ZM2.33329 8.49984C2.33329 7.57936 3.07948 6.83317 3.99996 6.83317H7.33329C8.25377 6.83317 8.99996 7.57936 8.99996 8.49984V13.4998C8.99996 14.4203 8.25377 15.1665 7.33329 15.1665H3.99996C3.07948 15.1665 2.33329 14.4203 2.33329 13.4998V8.49984Z" fill="#F56630"/>
</svg>
