<svg width="10" height="14" viewBox="0 0 10 14" fill="none" xmlns="http://www.w3.org/2000/svg">
<path d="M3.33332 0.166504C3.05621 0.166504 2.808 0.337923 2.70986 0.597072L2.5568 1.00126C2.22868 0.968472 1.92637 0.935748 1.68164 0.90827C1.4987 0.887729 1.34831 0.870162 1.24385 0.857753L1.12335 0.843291L1.08243 0.838287C0.717035 0.793045 0.383623 1.05251 0.338375 1.41791C0.293126 1.78331 0.552658 2.1162 0.918057 2.16145L0.962585 2.1669L1.08657 2.18178C1.19347 2.19447 1.34671 2.21238 1.53286 2.23328C1.90484 2.27504 2.4097 2.32896 2.9394 2.3773C3.65392 2.44251 4.43714 2.49984 4.99999 2.49984C5.56284 2.49984 6.34606 2.44251 7.06058 2.3773C7.59027 2.32896 8.09514 2.27504 8.46711 2.23328C8.65326 2.21238 8.80651 2.19447 8.91341 2.18178L9.03739 2.1669L9.08183 2.16146C9.44723 2.11621 9.70685 1.78331 9.6616 1.41791C9.61635 1.05251 9.28346 0.792981 8.91807 0.838223L8.87662 0.843291L8.75612 0.857753C8.65166 0.870162 8.50128 0.887729 8.31834 0.90827C8.07361 0.935748 7.7713 0.968472 7.44318 1.00126L7.29011 0.597072C7.19198 0.337923 6.94376 0.166504 6.66665 0.166504H3.33332Z" fill="#F56630"/>
<path d="M4.33332 6.83317C4.33332 6.46498 4.03484 6.1665 3.66665 6.1665C3.29846 6.1665 2.99999 6.46498 2.99999 6.83317V10.1665C2.99999 10.5347 3.29846 10.8332 3.66665 10.8332C4.03484 10.8332 4.33332 10.5347 4.33332 10.1665V6.83317Z" fill="#F56630"/>
<path d="M6.33332 6.1665C6.70151 6.1665 6.99999 6.46498 6.99999 6.83317V10.1665C6.99999 10.5347 6.70151 10.8332 6.33332 10.8332C5.96513 10.8332 5.66665 10.5347 5.66665 10.1665V6.83317C5.66665 6.46498 5.96513 6.1665 6.33332 6.1665Z" fill="#F56630"/>
<path fill-rule="evenodd" clip-rule="evenodd" d="M9.60642 4.36688C9.66684 3.52103 8.9376 2.84293 8.10885 2.9387C7.26083 3.03671 5.95221 3.1665 4.99999 3.1665C4.04776 3.1665 2.73915 3.03671 1.89113 2.9387C1.06237 2.84293 0.333136 3.52103 0.393554 4.36688L0.96471 12.3631C1.00801 12.9692 1.4595 13.4817 2.07908 13.5749C2.74349 13.6748 3.96262 13.8344 5.00076 13.8332C6.02614 13.832 7.25024 13.6731 7.91756 13.5741C8.53821 13.482 8.99197 12.9692 9.0354 12.3612L9.60642 4.36688ZM8.26192 4.26322C8.26423 4.26295 8.26601 4.26311 8.26601 4.26311L8.26777 4.26351C8.26925 4.26402 8.27157 4.26524 8.27387 4.26742C8.27539 4.26886 8.27653 4.27062 8.27653 4.27062L8.27648 4.27188L7.70607 12.2575C7.04562 12.3551 5.91367 12.4988 4.99922 12.4998C4.07485 12.5009 2.9499 12.3571 2.294 12.2589L1.7235 4.27188L1.72345 4.27062C1.72345 4.27062 1.72458 4.26886 1.7261 4.26742C1.7284 4.26524 1.73073 4.26402 1.73221 4.26351L1.73397 4.26311C1.73397 4.26311 1.73574 4.26295 1.73805 4.26322C2.58758 4.3614 3.96362 4.49984 4.99999 4.49984C6.03636 4.49984 7.4124 4.3614 8.26192 4.26322Z" fill="#F56630"/>
</svg>
