<svg width="150" height="151" viewBox="0 0 150 151" fill="none" xmlns="http://www.w3.org/2000/svg">
<path d="M75 122.49C103.319 122.49 126.276 113.484 126.276 102.375C126.276 91.2656 103.319 82.2597 75 82.2597C46.6809 82.2597 23.7236 91.2656 23.7236 102.375C23.7236 113.484 46.6809 122.49 75 122.49Z" fill="#FFECE5"/>
<path d="M41.7625 89.7292C41.4569 89.2333 40.8069 89.0792 40.3097 89.3847L39.4111 89.9389L38.8569 89.0403C38.5514 88.5444 37.9014 88.3903 37.4042 88.6958C36.9083 89.0014 36.7542 89.6514 37.0597 90.1486L37.6139 91.0472L38.7222 92.8444L40.5194 91.7361L41.4181 91.1819C41.9139 90.875 42.0681 90.225 41.7625 89.7292Z" fill="#F56630"/>
<path d="M43.9014 54.3208H39.9361L44.2 52.4472L43.9014 54.3208Z" fill="#EB5017"/>
<path d="M43.9014 54.6333H39.9361C39.7889 54.6333 39.6611 54.5292 39.6306 54.3847C39.6 54.2403 39.675 54.0944 39.8111 54.0347L44.075 52.1625C44.1792 52.1167 44.3014 52.1319 44.3917 52.2014C44.4819 52.2708 44.5278 52.3847 44.5097 52.4986L44.2111 54.3708C44.1847 54.5208 44.0542 54.6333 43.9014 54.6333ZM41.4236 54.0083H43.6333L43.8 52.9653L41.4236 54.0083Z" fill="#FFECE5"/>
<path d="M97.218 31.1306L93.8486 52.2625L93.5194 54.3208L93.1125 56.8736L94.7083 55.9417L96.8153 58.8139L97.143 56.7556L100.514 35.6236L97.218 31.1306Z" fill="#FCD2C2"/>
<path d="M96.8153 59.1264C96.7167 59.1264 96.6236 59.0806 96.5639 58.9986L94.6236 56.3528L93.2708 57.1431C93.1667 57.2042 93.0361 57.2 92.9361 57.1306C92.8361 57.0611 92.7847 56.9431 92.8042 56.8236L96.9097 31.0806C96.9292 30.9556 97.0222 30.8556 97.1445 30.8264C97.2667 30.7972 97.3958 30.8431 97.4695 30.9458L100.765 35.4389C100.815 35.5056 100.835 35.5903 100.822 35.6736L97.1236 58.8639C97.1042 58.9889 97.0111 59.0889 96.8889 59.1181C96.8639 59.1236 96.8403 59.1264 96.8153 59.1264ZM94.7083 55.6292C94.8056 55.6292 94.9 55.6736 94.9611 55.7569L96.625 58.0264L100.185 35.7042L97.4083 31.9194L93.525 56.2708L94.55 55.6708C94.6 55.6431 94.6542 55.6292 94.7083 55.6292Z" fill="#FFECE5"/>
<path d="M39.9333 54.3208H43.9014L43.4931 56.8778L39.9333 54.3208Z" fill="#FA9874"/>
<path d="M43.493 57.1903C43.4292 57.1903 43.3653 57.1708 43.3111 57.1319L39.7514 54.575C39.6417 54.4958 39.5944 54.3542 39.6361 54.225C39.6778 54.0958 39.7972 54.0083 39.9333 54.0083H43.9C43.9917 54.0083 44.0778 54.0486 44.1375 54.1181C44.1972 54.1875 44.2222 54.2792 44.2083 54.3694L43.8 56.9264C43.7833 57.0333 43.7111 57.1236 43.6111 57.1653C43.575 57.1819 43.5333 57.1903 43.493 57.1903ZM40.9042 54.6333L43.2639 56.3278L43.5347 54.6333H40.9042Z" fill="#FFECE5"/>
<path d="M97.218 31.1306L93.8486 52.2625L93.5194 54.3208L93.1125 56.8736L71.7292 69.3722H62.9097L62.7014 70.6778L43.493 56.8778L43.9014 54.3208L44.2 52.4472L45.5597 43.9153H58.5875L60.5917 31.3472L60.8528 31.1306H97.218Z" fill="#FFECE5"/>
<path d="M62.0028 75.0569L59.3945 91.4125H34.0181L52.5597 80.5764L62.0028 75.0569Z" fill="#F77A4A"/>
<path d="M59.3944 91.4125L62.6902 95.9056H37.3138L34.018 91.4125H59.3944Z" fill="#FA9874"/>
<path d="M63.3069 96.2181H37.1555L33.4014 91.1H59.5528L63.3069 96.2181ZM37.4722 95.5931H62.0736L59.2361 91.725H34.6347L37.4722 95.5931Z" fill="#FFECE5"/>
<path d="M97.482 54.3208L100.778 58.8139L98.3764 73.8653L95.0806 69.3722L97.482 54.3208Z" fill="#FA9874"/>
<path d="M98.3764 74.1778C98.2778 74.1778 98.1847 74.1319 98.125 74.05L94.8292 69.5569C94.7792 69.4903 94.7597 69.4056 94.7722 69.3222L97.1722 54.2708C97.1917 54.1458 97.2847 54.0458 97.407 54.0167C97.5292 53.9875 97.6583 54.0333 97.732 54.1361L101.028 58.6292C101.078 58.6958 101.097 58.7806 101.085 58.8639L98.6847 73.9153C98.6653 74.0403 98.5722 74.1403 98.45 74.1694C98.4264 74.175 98.4014 74.1778 98.3764 74.1778ZM95.4097 69.2931L98.1861 73.0778L100.449 58.8944L97.6722 55.1097L95.4097 69.2931Z" fill="#FFECE5"/>
<path d="M111.396 69.3722L114.692 73.8653L109.847 104.237L106.551 99.7444L111.396 69.3722Z" fill="#FA9874"/>
<path d="M109.847 104.55C109.749 104.55 109.656 104.504 109.596 104.422L106.3 99.9292C106.25 99.8625 106.231 99.7778 106.243 99.6945L111.088 69.3222C111.107 69.1972 111.2 69.0972 111.322 69.0681C111.444 69.0389 111.574 69.0847 111.647 69.1875L114.943 73.6806C114.993 73.7472 115.013 73.832 115 73.9153L110.156 104.288C110.136 104.413 110.043 104.513 109.921 104.542C109.897 104.547 109.872 104.55 109.847 104.55ZM106.881 99.6653L109.657 103.45L114.362 73.9458L111.586 70.1611L106.881 99.6653Z" fill="#FFECE5"/>
<path d="M97.375 99.7444L97.1861 100.928L95.9459 108.703L99.2417 113.197L100.482 105.421L100.671 104.237L97.375 99.7444Z" fill="#FA9874"/>
<path d="M99.2417 113.51C99.1431 113.51 99.05 113.464 98.9903 113.382L95.6945 108.888C95.6445 108.821 95.625 108.736 95.6375 108.653L97.0667 99.6945C97.0861 99.5695 97.1792 99.4695 97.3014 99.4403C97.4236 99.4111 97.5528 99.457 97.6264 99.5597L100.922 104.053C100.972 104.119 100.992 104.204 100.979 104.288L99.55 113.246C99.5306 113.371 99.4375 113.471 99.3153 113.5C99.2903 113.507 99.2667 113.51 99.2417 113.51ZM96.275 108.624L99.0514 112.408L100.342 104.318L97.5653 100.533L96.275 108.624Z" fill="#FFECE5"/>
<path d="M88.0875 99.7444L89.1264 100.928L95.9459 108.703L97.1861 100.928L97.375 99.7444H88.0875Z" fill="#FA9874"/>
<path d="M95.9459 109.015C95.857 109.015 95.7708 108.978 95.7111 108.908L87.8528 99.95C87.7722 99.8583 87.7528 99.7264 87.8028 99.6153C87.8528 99.5042 87.9653 99.4319 88.0875 99.4319H97.3736C97.4653 99.4319 97.5514 99.4722 97.6111 99.5417C97.6708 99.6111 97.6958 99.7028 97.682 99.7931L96.2528 108.751C96.2334 108.871 96.1472 108.969 96.0306 109.003C96.0042 109.012 95.975 109.015 95.9459 109.015ZM88.7778 100.057L95.7417 107.997L97.0084 100.057H88.7778Z" fill="#FFECE5"/>
<path d="M39.9333 54.3208L43.4931 56.8778L62.7014 70.6778L62.0028 75.0569L52.5597 80.5764L34.0181 91.4125L39.9333 54.3208Z" fill="#F56630"/>
<path d="M34.0181 91.725C33.957 91.725 33.8945 91.707 33.8417 91.6708C33.7417 91.6028 33.6903 91.4833 33.7098 91.3639L39.625 54.2722C39.6417 54.1653 39.7139 54.075 39.8139 54.0333C39.9139 53.9917 40.0278 54.0042 40.1167 54.0681L62.8847 70.425C62.9806 70.4944 63.0292 70.6111 63.0111 70.7278L62.3125 75.1069C62.2972 75.2 62.2431 75.2806 62.1611 75.3278L34.1764 91.682C34.1264 91.7111 34.0722 91.725 34.0181 91.725ZM40.1625 54.8694L34.4306 90.8097L61.7181 74.8611L62.3625 70.8181L40.1625 54.8694Z" fill="#FFECE5"/>
<path d="M97.482 54.3208L95.0806 69.3722H71.7292L97.482 54.3208Z" fill="#F56630"/>
<path d="M95.0806 69.6847H71.7292C71.5875 69.6847 71.4639 69.5903 71.4278 69.4542C71.3917 69.3181 71.45 69.1736 71.5723 69.1028L97.325 54.0514C97.4292 53.9903 97.5598 53.9944 97.6598 54.0639C97.7598 54.1319 97.8111 54.2514 97.7917 54.3708L95.3889 69.4208C95.3653 69.5736 95.2348 69.6847 95.0806 69.6847ZM72.8834 69.0597H94.8139L97.0681 54.9236L72.8834 69.0597Z" fill="#FFECE5"/>
<path d="M95.0805 69.3722H111.396L106.551 99.7444H97.375H88.0889H58.0652L59.3944 91.4125L62.0027 75.0569L62.7014 70.6778L62.9097 69.3722H71.7291H95.0805ZM98.4889 87.0764C98.9319 87.0764 99.3444 86.7319 99.4125 86.3069C99.4805 85.8806 99.1777 85.5347 98.7347 85.5347H70.018C69.5777 85.5347 69.1639 85.8806 69.0958 86.3069C69.0277 86.7319 69.3305 87.0764 69.7708 87.0764H98.4889ZM99.5861 80.1931C100.029 80.1931 100.442 79.8472 100.51 79.4208C100.578 78.9958 100.275 78.6514 99.8319 78.6514H71.1166C70.6764 78.6514 70.2625 78.9972 70.1958 79.4208C70.1277 79.8472 70.4305 80.1931 70.8708 80.1931H99.5861ZM97.3902 93.9597C97.8333 93.9597 98.2458 93.6153 98.3139 93.1875C98.3819 92.7625 98.0791 92.4167 97.6361 92.4167H80.9486C80.5055 92.4167 80.093 92.7625 80.025 93.1875C79.9569 93.6139 80.2597 93.9597 80.7027 93.9597H97.3902Z" fill="#FA9874"/>
<path d="M106.551 100.057H58.0653C57.9736 100.057 57.8875 100.017 57.8277 99.9472C57.768 99.8778 57.743 99.7861 57.7569 99.6958L62.6014 69.3236C62.625 69.1722 62.7569 69.0597 62.9097 69.0597H111.396C111.487 69.0597 111.574 69.1 111.633 69.1694C111.693 69.2389 111.718 69.3306 111.704 69.4208L106.86 99.7931C106.836 99.9458 106.706 100.057 106.551 100.057ZM58.4319 99.4319H106.285L111.029 69.6847H63.1764L58.4319 99.4319ZM97.3903 94.2722H80.7014C80.3958 94.2722 80.1139 94.1472 79.9277 93.9306C79.7444 93.7153 79.668 93.4333 79.7153 93.1389C79.8083 92.5597 80.3486 92.1056 80.9472 92.1056H97.6361C97.9416 92.1056 98.2236 92.2306 98.4097 92.4472C98.593 92.6625 98.6694 92.9431 98.6222 93.2361C98.5305 93.8181 97.9889 94.2722 97.3903 94.2722ZM80.9486 92.7306C80.6597 92.7306 80.3777 92.9625 80.3347 93.2375C80.3166 93.35 80.3416 93.45 80.4055 93.525C80.4736 93.6042 80.5791 93.6472 80.7027 93.6472H97.3916C97.6805 93.6472 97.9625 93.4139 98.0069 93.1389C98.025 93.0278 98 92.9278 97.9361 92.8528C97.868 92.7736 97.7625 92.7292 97.6375 92.7292H80.9486V92.7306ZM98.4889 87.3889H69.7722C69.4666 87.3889 69.1861 87.2639 69 87.0472C68.8166 86.8319 68.7402 86.5514 68.7875 86.2569C68.8805 85.6764 69.4208 85.2222 70.018 85.2222H98.7347C99.0402 85.2222 99.3222 85.3472 99.5083 85.5639C99.6916 85.7792 99.768 86.0611 99.7208 86.3556C99.6277 86.9347 99.0875 87.3889 98.4889 87.3889ZM70.018 85.8472C69.7291 85.8472 69.4486 86.0806 69.4055 86.3556C69.3875 86.4653 69.4125 86.5681 69.4764 86.6417C69.5444 86.7208 69.6486 86.7639 69.7722 86.7639H98.4889C98.7777 86.7639 99.0597 86.5319 99.1027 86.2569C99.1208 86.1444 99.0958 86.0444 99.0319 85.9694C98.9639 85.8903 98.8583 85.8472 98.7347 85.8472H70.018ZM99.5861 80.5056H70.8694C70.5639 80.5056 70.2833 80.3806 70.0986 80.1639C69.9139 79.9486 69.8389 79.6667 69.8861 79.3722C69.9791 78.7931 70.5194 78.3389 71.1166 78.3389H99.8333C100.139 78.3389 100.421 78.4639 100.607 78.6806C100.79 78.8958 100.867 79.1764 100.819 79.4694C100.726 80.0514 100.185 80.5056 99.5861 80.5056ZM71.1166 78.9639C70.8277 78.9639 70.5472 79.1958 70.5041 79.4708C70.4861 79.5819 70.5111 79.6847 70.575 79.7583C70.6416 79.8375 70.7472 79.8806 70.8708 79.8806H99.5875C99.8764 79.8806 100.158 79.6472 100.203 79.3722C100.221 79.2611 100.196 79.1611 100.132 79.0875C100.064 79.0083 99.9583 78.9639 99.8333 78.9639H71.1166Z" fill="#FFECE5"/>
<path d="M99.8319 78.6514C100.275 78.6514 100.578 78.9972 100.51 79.4208C100.442 79.8472 100.029 80.193 99.5861 80.193H70.8694C70.4292 80.193 70.1264 79.8472 70.1944 79.4208C70.2625 78.9958 70.675 78.6514 71.1153 78.6514H99.8319Z" fill="#F56630"/>
<path d="M99.5861 80.5125H70.8695C70.5625 80.5125 70.2792 80.3875 70.0931 80.168C69.9083 79.9514 69.832 79.668 69.8792 79.3708C69.9722 78.7889 70.5153 78.3319 71.1153 78.3319H99.832C100.14 78.3319 100.424 78.4569 100.611 78.6764C100.796 78.893 100.872 79.175 100.825 79.4708C100.732 80.0556 100.188 80.5125 99.5861 80.5125ZM71.1167 78.9708C70.832 78.9708 70.5542 79.2 70.5097 79.4722C70.4917 79.5833 70.5167 79.6805 70.5792 79.7542C70.6458 79.8319 70.7486 79.8736 70.8708 79.8736H99.5875C99.8736 79.8736 100.153 79.643 100.196 79.3708C100.214 79.2611 100.189 79.1639 100.126 79.0903C100.06 79.0125 99.9556 78.9694 99.8333 78.9694H71.1167V78.9708Z" fill="#F56630"/>
<path d="M98.7347 85.5347C99.1778 85.5347 99.4805 85.8806 99.4125 86.307C99.3444 86.732 98.9319 87.0764 98.4889 87.0764H69.7722C69.3319 87.0764 69.0291 86.7306 69.0972 86.307C69.1653 85.8806 69.5778 85.5347 70.0194 85.5347H98.7347Z" fill="#F56630"/>
<path d="M98.4889 87.3945H69.7722C69.4653 87.3945 69.1819 87.2694 68.9958 87.05C68.8111 86.8333 68.7347 86.55 68.7819 86.2556C68.875 85.6722 69.4181 85.2153 70.0181 85.2153H98.7347C99.0431 85.2153 99.3264 85.3403 99.5125 85.5597C99.6972 85.7764 99.7736 86.0597 99.7264 86.3569C99.6333 86.9389 99.0903 87.3945 98.4889 87.3945ZM70.0181 85.8528C69.7333 85.8528 69.4556 86.0833 69.4111 86.3556C69.3931 86.4653 69.4181 86.5625 69.4806 86.6361C69.5472 86.7139 69.65 86.7569 69.7722 86.7569H98.4889C98.775 86.7569 99.0542 86.5278 99.0972 86.2556C99.1153 86.1445 99.0903 86.0472 99.0278 85.9736C98.9611 85.8958 98.8569 85.8528 98.7347 85.8528H70.0181Z" fill="#F56630"/>
<path d="M97.6361 92.4181C98.0791 92.4181 98.3819 92.7639 98.3139 93.1875C98.2458 93.6139 97.8333 93.9597 97.3903 93.9597H80.7014C80.2583 93.9597 79.9555 93.6139 80.0236 93.1875C80.0916 92.7625 80.5042 92.4181 80.9472 92.4181H97.6361Z" fill="#F56630"/>
<path d="M97.3902 94.2792H80.7014C80.393 94.2792 80.1097 94.1542 79.9236 93.9347C79.7389 93.7181 79.6625 93.4347 79.7097 93.1375C79.8027 92.5556 80.3458 92.0986 80.9472 92.0986H97.6361C97.9444 92.0986 98.2277 92.2236 98.4152 92.4431C98.6 92.6597 98.6764 92.9417 98.6291 93.2375C98.5361 93.8222 97.9916 94.2792 97.3902 94.2792ZM80.9486 92.7375C80.6625 92.7375 80.3833 92.9667 80.3402 93.2389C80.3222 93.35 80.3472 93.4472 80.4097 93.5208C80.4764 93.5986 80.5805 93.6417 80.7027 93.6417H97.3916C97.6777 93.6417 97.9569 93.4111 98 93.1389C98.018 93.0292 97.993 92.9319 97.9305 92.8583C97.8638 92.7806 97.7597 92.7375 97.6375 92.7375H80.9486Z" fill="#F56630"/>
<path d="M88.0875 99.7444L91.3834 104.237H61.3611L58.0653 99.7444H88.0875Z" fill="#FA9874"/>
<path d="M91.3834 104.55H61.3611C61.2611 104.55 61.1681 104.503 61.1097 104.422L57.8139 99.9292C57.7445 99.8347 57.7334 99.7083 57.7875 99.6028C57.8403 99.4972 57.9486 99.4319 58.0667 99.4319H88.0889C88.1889 99.4319 88.282 99.4792 88.3403 99.5597L91.6361 104.053C91.7056 104.147 91.7167 104.274 91.6625 104.379C91.6097 104.485 91.5014 104.55 91.3834 104.55ZM61.5195 103.925H90.7667L87.9292 100.057H58.6833L61.5195 103.925Z" fill="#FFECE5"/>
<path d="M95.9458 108.703L89.1264 100.928L88.0875 99.7444L91.3833 104.237L92.4208 105.421L99.2416 113.197L95.9458 108.703Z" fill="#FA9874"/>
<path d="M99.2416 113.51C99.1541 113.51 99.068 113.474 99.0069 113.403L91.1486 104.444C91.143 104.437 91.1375 104.431 91.1319 104.424L87.8361 99.9306C87.7375 99.7958 87.7625 99.6069 87.893 99.5014C88.0236 99.3972 88.2139 99.4139 88.3236 99.5389L96.1819 108.497C96.1875 108.504 96.193 108.511 96.1986 108.518L99.4944 113.011C99.593 113.146 99.568 113.335 99.4375 113.44C99.3791 113.486 99.3111 113.51 99.2416 113.51Z" fill="#FFECE5"/>
<path d="M106.551 99.7444L109.847 104.237H100.671L97.375 99.7444H106.551Z" fill="#FA9874"/>
<path d="M109.847 104.55H100.671C100.571 104.55 100.478 104.503 100.419 104.422L97.1236 99.9292C97.0542 99.8347 97.043 99.7083 97.0972 99.6028C97.15 99.4972 97.2583 99.4319 97.3764 99.4319H106.553C106.653 99.4319 106.746 99.4792 106.804 99.5597L110.1 104.053C110.169 104.147 110.181 104.274 110.126 104.379C110.074 104.485 109.965 104.55 109.847 104.55ZM100.829 103.925H109.231L106.393 100.057H97.9917L100.829 103.925Z" fill="#FFECE5"/>
<path d="M62.7014 70.9903C62.6375 70.9903 62.5736 70.9708 62.5195 70.9319L43.3111 57.1319C43.2153 57.0625 43.1667 56.9458 43.1847 56.8292L45.2514 43.8681C45.2639 43.7931 45.3014 43.7264 45.3597 43.6778L60.3917 31.1097L60.6542 30.8917C60.7097 30.8444 60.7806 30.8194 60.8542 30.8194H97.2195C97.3111 30.8194 97.3972 30.8597 97.457 30.9292C97.5167 30.9986 97.5417 31.0903 97.5278 31.1806L93.4222 56.9236C93.407 57.0167 93.3528 57.0972 93.2709 57.1444L71.8875 69.643C71.8403 69.6708 71.7847 69.6861 71.7292 69.6861H63.1764L63.0097 70.7278C62.9931 70.8347 62.9209 70.925 62.8209 70.9667C62.7834 70.9819 62.7431 70.9903 62.7014 70.9903ZM43.832 56.7361L62.4722 70.1292L62.6 69.3236C62.6236 69.1722 62.7556 69.0597 62.9084 69.0597H71.6431L92.8264 56.6778L96.8514 31.4417H60.9667L60.7917 31.5861L45.85 44.0778L43.832 56.7361Z" fill="#FFECE5"/>
<path d="M60.5916 31.3472L58.5875 43.9153H45.5597L60.5916 31.3472Z" fill="#FA9874"/>
<path d="M58.5875 44.2278H45.5597C45.4278 44.2278 45.3111 44.1458 45.2667 44.0222C45.2222 43.8986 45.2597 43.7597 45.3597 43.6764L60.3917 31.1083C60.4917 31.025 60.6333 31.0125 60.7458 31.0764C60.8597 31.1403 60.9208 31.268 60.9 31.3972L58.8958 43.9653C58.8722 44.1167 58.7417 44.2278 58.5875 44.2278ZM46.4208 43.6028H58.3208L60.1514 32.1222L46.4208 43.6028Z" fill="#FFECE5"/>
<path d="M97.4139 25.6778C102.686 25.6778 106.301 29.7986 105.49 34.8833C104.679 39.9681 99.7486 44.0889 94.4778 44.0889C89.2056 44.0889 85.5903 39.9681 86.4014 34.8833C87.2125 29.7986 92.1417 25.6778 97.4139 25.6778ZM97.925 29.3653C98.0709 28.7556 97.6375 28.2278 97.0139 28.2278C96.9861 28.2278 96.9597 28.2292 96.932 28.2306C96.3181 28.2708 95.7792 28.7792 95.7264 29.3653L94.9167 38.5819C94.8973 38.7903 95.0431 38.9611 95.2625 38.9764C95.2723 38.9764 95.282 38.9778 95.2931 38.9778C95.5236 38.9778 95.7445 38.8056 95.7972 38.5819L97.925 29.3653ZM94.8847 41.5389C95.4472 41.5389 95.9736 41.1 96.0598 40.5569C96.1459 40.0139 95.7611 39.575 95.1986 39.575C94.6361 39.575 94.1097 40.0139 94.0236 40.5569C93.9361 41.0986 94.3222 41.5389 94.8847 41.5389Z" fill="#F56630"/>
<path d="M94.4778 44.4014C91.7931 44.4014 89.4403 43.3778 87.8528 41.5181C86.3167 39.7181 85.6917 37.3444 86.0917 34.8347C86.925 29.6139 92.0028 25.3653 97.4139 25.3653C100.099 25.3653 102.451 26.3889 104.039 28.2486C105.575 30.0486 106.2 32.4222 105.8 34.9319C104.967 40.1542 99.8875 44.4014 94.4778 44.4014ZM97.4139 25.9903C92.2972 25.9903 87.4959 30.0014 86.7097 34.9333C86.3389 37.2597 86.9139 39.4542 88.3292 41.1125C89.7945 42.8306 91.9792 43.7764 94.4778 43.7764C99.5945 43.7764 104.396 39.7653 105.182 34.8333C105.553 32.5069 104.978 30.3125 103.563 28.6542C102.097 26.9361 99.9125 25.9903 97.4139 25.9903ZM94.8847 41.8514C94.5209 41.8514 94.1847 41.7042 93.9653 41.4458C93.7472 41.1903 93.6584 40.8569 93.7139 40.5069C93.8209 39.8403 94.4181 39.3125 95.0986 39.2653C94.9653 39.2292 94.8486 39.1569 94.7597 39.0528C94.6431 38.9153 94.5875 38.7389 94.6056 38.5542L95.4153 29.3389C95.482 28.5944 96.1389 27.9722 96.9111 27.9208C96.9445 27.9181 96.9792 27.9167 97.0139 27.9167C97.4125 27.9167 97.7764 28.0861 98.0097 28.3833C98.2389 28.675 98.3195 29.0583 98.2292 29.4375L96.1 38.6542C96.0236 38.9764 95.7431 39.2278 95.4181 39.2819C95.6945 39.3292 95.9417 39.4639 96.1153 39.6694C96.3334 39.925 96.4222 40.2583 96.3667 40.6083C96.257 41.3042 95.6042 41.8514 94.8847 41.8514ZM95.1972 39.8861C94.7903 39.8861 94.3931 40.2153 94.3306 40.6056C94.3042 40.7722 94.3431 40.9264 94.4403 41.0403C94.5431 41.1597 94.7 41.2264 94.8847 41.2264C95.2917 41.2264 95.6889 40.8972 95.7514 40.5069C95.7778 40.3403 95.7389 40.1861 95.6417 40.0722C95.5389 39.9528 95.3806 39.8861 95.1972 39.8861ZM97.0139 28.5403C96.9945 28.5403 96.975 28.5417 96.9542 28.5431C96.4945 28.5736 96.0764 28.9625 96.0375 29.3931L95.2278 38.6097C95.2264 38.6264 95.2292 38.6389 95.2361 38.6472C95.2445 38.6569 95.2625 38.6639 95.2834 38.6653C95.3778 38.6653 95.4722 38.5917 95.4917 38.5111L97.6209 29.2958C97.6209 29.2944 97.6209 29.2944 97.6209 29.2931C97.6681 29.0986 97.6306 28.9125 97.5195 28.7694C97.4042 28.6236 97.2209 28.5403 97.0139 28.5403Z" fill="#FFECE5"/>
<path d="M95.1973 39.5736C95.7598 39.5736 96.1459 40.0125 96.0584 40.5556C95.9709 41.0986 95.4459 41.5375 94.8834 41.5375C94.3209 41.5375 93.9348 41.0986 94.0223 40.5556C94.1098 40.0125 94.6348 39.5736 95.1973 39.5736Z" fill="#FFECE5"/>
<path d="M94.8848 41.6083C94.5875 41.6083 94.3264 41.4944 94.15 41.2875C93.9792 41.0875 93.9098 40.8236 93.9542 40.5458C94.0459 39.9722 94.6042 39.5056 95.1973 39.5056C95.4945 39.5056 95.7556 39.6194 95.932 39.8264C96.1028 40.0264 96.1723 40.2903 96.1278 40.5694C96.0362 41.1403 95.4778 41.6083 94.8848 41.6083ZM95.1973 39.6431C94.6681 39.6431 94.1723 40.0569 94.0903 40.5667C94.0528 40.8042 94.1112 41.0278 94.2542 41.1972C94.4042 41.3722 94.6264 41.4694 94.8834 41.4694C95.4125 41.4694 95.9084 41.0556 95.9903 40.5458C96.0278 40.3083 95.9695 40.0847 95.8264 39.9153C95.6764 39.7403 95.4542 39.6431 95.1973 39.6431Z" fill="#FFECE5"/>
<path d="M97.0139 28.2278C97.6375 28.2278 98.0709 28.7542 97.925 29.3653L95.7959 38.5819C95.7431 38.8056 95.5222 38.9778 95.2917 38.9778C95.282 38.9778 95.2723 38.9778 95.2611 38.9764C95.0417 38.9611 94.8959 38.7903 94.9153 38.5819L95.725 29.3653C95.7778 28.7792 96.3167 28.2722 96.9306 28.2306C96.9598 28.2292 96.9861 28.2278 97.0139 28.2278Z" fill="#FFECE5"/>
<path d="M95.2917 39.0472C95.2806 39.0472 95.2681 39.0472 95.257 39.0458C95.1306 39.0375 95.0195 38.9833 94.9445 38.8944C94.8709 38.8083 94.8361 38.6944 94.8472 38.575L95.657 29.3583C95.7125 28.7417 96.282 28.2042 96.9264 28.1611C97.2834 28.1347 97.6139 28.2736 97.8181 28.5319C98.0014 28.7653 98.0653 29.0736 97.9917 29.3806L95.8625 38.5972C95.8042 38.8542 95.5584 39.0472 95.2917 39.0472ZM97.0139 28.2972C96.9889 28.2972 96.9625 28.2986 96.9361 28.3C96.3556 28.3389 95.8445 28.8194 95.7959 29.3708L94.9861 38.5875C94.9792 38.6694 95.0014 38.7458 95.0514 38.8042C95.1028 38.8639 95.1792 38.9014 95.2681 38.9069C95.4695 38.9194 95.6834 38.7653 95.7292 38.5667L97.8584 29.35C97.9222 29.0806 97.8709 28.8208 97.7111 28.6194C97.5486 28.4153 97.2945 28.2972 97.0139 28.2972Z" fill="#FFECE5"/>
</svg>
