<svg width="150" height="150" viewBox="0 0 150 150" fill="none" xmlns="http://www.w3.org/2000/svg">
<path d="M75 107.001C103.319 107.001 126.276 97.9952 126.276 86.8858C126.276 75.7764 103.319 66.7705 75 66.7705C46.6809 66.7705 23.7236 75.7764 23.7236 86.8858C23.7236 97.9952 46.6809 107.001 75 107.001Z" fill="#FFECE5"/>
<path d="M126.092 37.5736L120.754 79.9805C120.592 81.2736 119.704 82.3583 118.471 82.7764L81.1223 95.4028V82.0944L111.107 59.4278L117.901 33.75H122.718C124.764 33.75 126.347 35.5444 126.092 37.5736Z" fill="#FA9874"/>
<path d="M81.1223 95.7163C81.0584 95.7163 80.9945 95.6968 80.9404 95.6579C80.8584 95.5996 80.8098 95.5051 80.8098 95.4038V82.0954C80.8098 81.9968 80.8556 81.9051 80.9334 81.8468L110.833 59.244L117.6 33.6704C117.636 33.5329 117.76 33.4385 117.903 33.4385H122.72C123.785 33.4385 124.799 33.8968 125.503 34.6954C126.207 35.494 126.535 36.5579 126.401 37.6135L121.064 80.0204C120.888 81.4218 119.908 82.6204 118.57 83.0732L81.2223 95.6996C81.1904 95.7107 81.1556 95.7163 81.1223 95.7163ZM81.4348 82.2496V94.9676L118.37 82.4801C119.482 82.1038 120.297 81.1079 120.443 79.9413L125.781 37.5343C125.892 36.6565 125.618 35.7718 125.033 35.1065C124.447 34.4426 123.604 34.0621 122.718 34.0621H118.142L111.41 59.5079C111.392 59.576 111.351 59.6357 111.296 59.6774L81.4348 82.2496Z" fill="#FFECE5"/>
<path d="M81.1237 82.0956L42.9834 76.7956L72.9681 55.4775L111.108 59.4275L81.1237 82.0956Z" fill="#F56630"/>
<path d="M81.1236 82.4078C81.1097 82.4078 81.0945 82.4064 81.0806 82.405L42.9403 77.1064C42.8139 77.0883 42.7097 76.9953 42.6792 76.8717C42.6486 76.7467 42.6972 76.6175 42.8014 76.5425L72.7861 55.2244C72.8486 55.18 72.9236 55.1605 73 55.1689L111.14 59.1189C111.268 59.1328 111.375 59.2217 111.41 59.3453C111.444 59.4689 111.4 59.6008 111.297 59.6786L81.3125 82.3453C81.257 82.3855 81.1903 82.4078 81.1236 82.4078ZM43.8056 76.5939L81.0375 81.7675L110.286 59.6578L73.0528 55.8022L43.8056 76.5939Z" fill="#FFECE5"/>
<path d="M73.7652 58.0791L83.3444 59.0722L73.7625 58.0791H73.7652Z" fill="#FA9874"/>
<path d="M83.3458 59.3845C83.3347 59.3845 83.3235 59.3845 83.3138 59.3831L73.7319 58.39C73.5666 58.3734 73.443 58.2289 73.4513 58.0636C73.461 57.8872 73.6208 57.7511 73.7972 57.7692L83.3777 58.7622C83.5499 58.7803 83.6736 58.9331 83.6569 59.1053C83.6388 59.2636 83.5027 59.3845 83.3458 59.3845Z" fill="#FFECE5"/>
<path d="M104.447 61.257L98.3972 65.832L87.8125 64.7362L94.1958 60.1973H94.1972L104.447 61.257Z" fill="#FA9874"/>
<path d="M98.3972 66.144C98.3861 66.144 98.3764 66.144 98.3653 66.1426L87.7806 65.0468C87.6514 65.0329 87.5431 64.9412 87.5111 64.8148C87.4778 64.6885 87.5264 64.5565 87.632 64.4801L94.0153 59.9412C94.0764 59.8968 94.1556 59.8773 94.2306 59.8857L104.481 60.9468C104.608 60.9607 104.715 61.0496 104.75 61.1732C104.785 61.2968 104.74 61.4287 104.638 61.5065L98.5875 66.0815C98.532 66.1218 98.4653 66.144 98.3972 66.144ZM88.6695 64.5107L98.307 65.5093L103.626 61.4871L94.282 60.5204L88.6695 64.5107Z" fill="#FFECE5"/>
<path d="M76.9596 63.6114L70.5735 68.153L60.9929 67.16L67.379 62.6211L76.9596 63.6114Z" fill="#FA9874"/>
<path d="M70.5735 68.4651C70.5624 68.4651 70.5527 68.4651 70.5415 68.4637L60.961 67.4706C60.8318 67.4567 60.7235 67.3651 60.6915 67.2387C60.6582 67.1123 60.7068 66.9803 60.8124 66.9039L67.1985 62.3651C67.261 62.3206 67.336 62.3012 67.411 62.3095L76.9915 63.2998C77.1207 63.3137 77.229 63.4053 77.261 63.5317C77.2943 63.6581 77.2457 63.7901 77.1402 63.8664L70.754 68.4081C70.7013 68.4442 70.6374 68.4651 70.5735 68.4651ZM61.8499 66.9345L70.4888 67.8289L76.104 63.8359L67.4652 62.9428L61.8499 66.9345Z" fill="#FFECE5"/>
<path d="M70.5737 68.1522L64.1876 72.6925H64.1862L54.6084 71.6995L60.9931 67.1592L70.5737 68.1522Z" fill="#FA9874"/>
<path d="M64.1876 73.0049C64.1765 73.0049 64.164 73.0049 64.1542 73.0036L54.5765 72.0105C54.4473 71.9966 54.339 71.9049 54.307 71.7786C54.2737 71.6522 54.3223 71.5202 54.4279 71.4438L60.8126 66.9022C60.8751 66.8577 60.9501 66.8383 61.0265 66.8466L70.607 67.8397C70.7362 67.8536 70.8445 67.9452 70.8765 68.0716C70.9098 68.198 70.8612 68.3299 70.7556 68.4063L64.3709 72.948C64.3167 72.9855 64.2529 73.0049 64.1876 73.0049ZM55.464 71.4744L64.1029 72.3688L69.7167 68.3758L61.0779 67.4813L55.464 71.4744Z" fill="#FFECE5"/>
<path d="M92.3472 70.4073L86.2958 74.9823L75.0388 73.8171L81.4263 69.2754L92.3472 70.4073Z" fill="#FA9874"/>
<path d="M86.2958 75.2944C86.2847 75.2944 86.275 75.2944 86.2638 75.293L75.0083 74.1277C74.8791 74.1138 74.7708 74.0221 74.7388 73.8957C74.7069 73.7694 74.7541 73.6374 74.8597 73.561L81.2458 69.0194C81.3083 68.9749 81.3833 68.9555 81.4597 68.9638L92.3805 70.0957C92.5083 70.1096 92.6152 70.1985 92.65 70.3221C92.6847 70.4457 92.6402 70.5777 92.5375 70.6555L86.4861 75.2305C86.4291 75.2721 86.3625 75.2944 86.2958 75.2944ZM75.8958 73.5916L86.2055 74.6596L91.5263 70.6374L81.5111 69.5999L75.8958 73.5916Z" fill="#FFECE5"/>
<path d="M86.2959 74.9817L80.3264 79.4942L69.2236 77.9511L75.0389 73.8164L86.2959 74.9817Z" fill="#FA9874"/>
<path d="M80.3264 79.8068C80.3125 79.8068 80.2972 79.8054 80.2833 79.804L69.1805 78.2609C69.0541 78.2429 68.95 78.1498 68.9194 78.0262C68.8889 77.9012 68.9375 77.772 69.0416 77.697L74.8569 73.5623C74.9194 73.5179 74.9944 73.4984 75.0708 73.5068L86.3264 74.672C86.4541 74.6859 86.5611 74.7748 86.5958 74.8984C86.6305 75.022 86.5861 75.154 86.4833 75.2318L80.5153 79.7443C80.4611 79.7845 80.3944 79.8068 80.3264 79.8068ZM70.0458 77.7498L80.2416 79.1665L85.4736 75.2109L75.1236 74.1387L70.0458 77.7498Z" fill="#FFECE5"/>
<path d="M75.0389 73.816L69.2237 77.9507L58.8223 76.5063L64.1862 72.6924H64.1875L75.0389 73.816Z" fill="#F77A4A"/>
<path d="M69.2236 78.2633C69.2097 78.2633 69.1944 78.2619 69.1806 78.2605L58.7792 76.8161C58.6528 76.798 58.5486 76.705 58.5181 76.5814C58.4875 76.4564 58.5361 76.3272 58.6403 76.2522L64.0042 72.4383C64.0653 72.3939 64.1444 72.3744 64.2194 72.3827L75.0708 73.5064C75.2 73.5202 75.3083 73.6119 75.3403 73.7383C75.3736 73.8647 75.325 73.9966 75.2194 74.073L69.4042 78.2077C69.3514 78.2439 69.2889 78.2633 69.2236 78.2633ZM59.6444 76.305L69.1431 77.6244L74.1819 74.0411L64.2708 73.0147L59.6444 76.305Z" fill="#FFECE5"/>
<path d="M64.186 72.6923L58.8222 76.5062L49.6416 75.2298L54.6083 71.6992L64.186 72.6923Z" fill="#FA9874"/>
<path d="M58.8221 76.8187C58.8082 76.8187 58.7929 76.8174 58.7791 76.816L49.5985 75.5396C49.4721 75.5215 49.3679 75.4285 49.3374 75.3049C49.3068 75.1799 49.3554 75.0507 49.4596 74.9757L54.4263 71.4451C54.4888 71.4007 54.5638 71.3812 54.6402 71.3896L64.2179 72.3826C64.3471 72.3965 64.4554 72.4882 64.4874 72.6146C64.5207 72.741 64.4721 72.8729 64.3666 72.9493L59.0027 76.7632C58.9499 76.7993 58.8874 76.8187 58.8221 76.8187ZM50.4638 75.0285L58.7416 76.1799L63.3291 72.9187L54.6916 72.0243L50.4638 75.0285Z" fill="#FFECE5"/>
<path d="M94.1958 60.1973L83.3472 59.0723L94.1972 60.1945H94.1999L104.447 61.257L94.1972 60.1973H94.1958Z" fill="#FA9874"/>
<path d="M104.449 61.569C104.438 61.569 104.426 61.569 104.417 61.5677L94.1751 60.5079C94.1723 60.5079 94.1681 60.5079 94.1653 60.5065L83.3153 59.3815C83.1431 59.3635 83.0195 59.2107 83.0362 59.0385C83.0528 58.8663 83.2084 58.7427 83.3792 58.7593L83.3917 58.7607L94.2223 59.8815C94.2251 59.8815 94.2292 59.8815 94.232 59.8829L104.481 60.9454C104.653 60.9635 104.776 61.1163 104.76 61.2885C104.742 61.4496 104.606 61.569 104.449 61.569Z" fill="#FFECE5"/>
<path d="M72.8333 55.4769L82.118 32.3047L117.901 33.7491L111.108 59.4283L72.8333 55.4769Z" fill="#F56630"/>
<path d="M111.108 59.7412C111.097 59.7412 111.087 59.7412 111.076 59.7398L72.8014 55.7898C72.7042 55.7801 72.6167 55.7246 72.5667 55.6412C72.5153 55.5579 72.5069 55.4551 72.5444 55.3634L81.8292 32.1912C81.8778 32.069 82 31.9898 82.1319 31.9954L117.915 33.4398C118.01 33.444 118.097 33.4898 118.154 33.5662C118.211 33.6426 118.229 33.7398 118.204 33.8315L111.411 59.5093C111.374 59.6468 111.249 59.7412 111.108 59.7412ZM73.2778 55.2093L110.875 59.0898L117.5 34.0468L82.3264 32.6273L73.2778 55.2093Z" fill="#FFECE5"/>
<path d="M76.1155 54.0785L84.0474 34.2812L114.62 35.5146L108.815 57.4535L76.1155 54.0785Z" fill="#FFECE5"/>
<path d="M108.815 57.7664C108.804 57.7664 108.795 57.7664 108.783 57.765L76.0834 54.3886C75.9862 54.3789 75.8987 54.3233 75.8487 54.24C75.7987 54.1567 75.789 54.0539 75.8265 53.9622L83.7584 34.165C83.8071 34.0428 83.9293 33.9622 84.0612 33.9692L114.633 35.2039C114.728 35.2081 114.815 35.2539 114.872 35.3303C114.929 35.4067 114.947 35.5039 114.922 35.5956L109.118 57.5331C109.081 57.6719 108.956 57.7664 108.815 57.7664ZM76.5598 53.8094L108.582 57.115L114.218 35.8122L84.2557 34.6025L76.5598 53.8094Z" fill="#FFECE5"/>
<path d="M42.9834 76.7959V90.1042L81.1223 95.4042V82.0945L42.9834 76.7959Z" fill="#EB5017"/>
<path d="M81.1222 95.7166C81.1083 95.7166 81.093 95.7152 81.0792 95.7138L42.9403 90.4152C42.7861 90.3944 42.6708 90.261 42.6708 90.1055L42.6694 76.7971C42.6694 76.7069 42.7083 76.6207 42.7764 76.561C42.8444 76.5013 42.9347 76.4749 43.025 76.4874L81.1639 81.786C81.318 81.8069 81.4333 81.9402 81.4333 82.0957V95.4041C81.4333 95.4944 81.3944 95.5805 81.3264 95.6402C81.2708 95.6888 81.1972 95.7166 81.1222 95.7166ZM43.2958 89.8319L80.8097 95.0444V82.3666L43.2958 77.1541V89.8319Z" fill="#FFECE5"/>
<path d="M76.711 86.3911V88.1022L46.918 84.3355V82.623L76.711 86.3911Z" fill="#F56630"/>
<path d="M77.0235 88.4561L46.6055 84.6116V82.2686L77.0235 86.1158V88.4561ZM47.2305 84.0602L76.3985 87.7477V86.6658L47.2305 82.9769V84.0602Z" fill="#F56630"/>
<path d="M13.6013 120.417C19.2999 118.966 25.0013 117.533 30.2263 114.737C35.4944 111.919 38.8583 107.784 40.4874 102.033C41.7777 97.4742 42.3444 92.6992 44.9805 88.6867C46.8902 85.7798 49.8471 83.8506 49.8471 83.8506L74.2541 86.9367C71.711 89.6673 69.5235 92.7798 67.636 95.9895C65.9069 98.9298 64.3596 101.688 63.4721 105.012C62.568 108.398 62.0194 111.933 60.386 115.074C58.7485 118.223 56.0985 120.758 53.1485 122.73C47.4249 126.556 40.7041 128.896 34.0763 130.584C34.0763 130.583 13.6013 120.417 13.6013 120.417Z" fill="#FCD2C2"/>
<path d="M34.0764 130.895C34.0292 130.895 33.9806 130.884 33.9375 130.863L13.6931 120.812C13.3833 120.658 13.2417 120.588 13.2972 120.347C13.3236 120.233 13.4111 120.144 13.525 120.115L13.7181 120.066C19.2389 118.661 24.9486 117.208 30.0806 114.462C35.2861 111.677 38.5931 107.584 40.1875 101.948C40.5167 100.786 40.8042 99.5883 41.0806 98.4286C41.8917 95.0439 42.7292 91.5439 44.7194 88.5147C46.6431 85.5869 49.5542 83.6675 49.6764 83.5883C49.7389 83.548 49.8125 83.53 49.8861 83.5397L74.293 86.6258C74.4097 86.6411 74.5083 86.7189 74.5472 86.83C74.5875 86.9397 74.5625 87.0633 74.4819 87.1494C72.1653 89.6369 69.9528 92.6647 67.9056 96.148C66.1583 99.1216 64.6417 101.847 63.7736 105.092C63.5486 105.933 63.343 106.799 63.1431 107.637C62.5347 110.188 61.9069 112.826 60.6625 115.219C59.1472 118.131 56.6778 120.747 53.3208 122.99C48.3486 126.313 42.2583 128.823 34.1514 130.887C34.1278 130.892 34.1014 130.895 34.0764 130.895ZM14.4958 120.513C18.0181 122.262 32.7319 129.566 34.1111 130.252C42.0903 128.212 48.0861 125.738 52.975 122.47C56.2431 120.286 58.6431 117.749 60.1083 114.93C61.3167 112.606 61.9361 110.006 62.5361 107.492C62.7361 106.651 62.9444 105.78 63.1708 104.931C64.0583 101.609 65.5958 98.8452 67.368 95.8314C69.318 92.5147 71.418 89.6036 73.6167 87.1716L49.9264 84.1772C49.4139 84.53 46.9056 86.33 45.2431 88.8605C43.3125 91.7994 42.4875 95.2453 41.6889 98.5772C41.4097 99.7425 41.1208 100.947 40.7889 102.12C39.1444 107.927 35.7389 112.145 30.375 115.015C25.3694 117.69 19.8569 119.145 14.4958 120.513Z" fill="#FFECE5"/>
<path d="M87.8124 64.7354L81.4263 69.2742L70.5735 68.152L76.9596 63.6104L87.8124 64.7354Z" fill="#F77A4A"/>
<path d="M81.4263 69.5867C81.4152 69.5867 81.4054 69.5867 81.3943 69.5853L70.5416 68.4617C70.4124 68.4478 70.3041 68.3561 70.2721 68.2297C70.2388 68.1033 70.2874 67.9714 70.3929 67.895L76.7791 63.3533C76.8416 63.3089 76.9166 63.2894 76.9929 63.2978L87.8457 64.4228C87.9749 64.4367 88.0832 64.5283 88.1152 64.6547C88.1471 64.7811 88.0999 64.9131 87.9943 64.9894L81.6082 69.5283C81.5541 69.5672 81.4902 69.5867 81.4263 69.5867ZM71.4291 67.9256L81.3402 68.9519L86.9554 64.9603L77.0443 63.9325L71.4291 67.9256Z" fill="#FFECE5"/>
<path d="M94.1987 60.1974V60.1943H94.2003" fill="#FA9874"/>
<path d="M94.1987 60.5078C94.0265 60.5078 93.8862 60.3689 93.8862 60.1967V60.1953C93.8862 60.0231 94.0265 59.8828 94.1987 59.8828C94.371 59.8828 94.5126 60.0231 94.5126 60.1953C94.5126 60.3217 94.4376 60.43 94.3307 60.48C94.289 60.4981 94.2446 60.5078 94.1987 60.5078Z" fill="#FFECE5"/>
<path d="M83.3444 59.0722L76.9597 63.611L67.3792 62.6208L73.7625 58.0791L83.3444 59.0722Z" fill="#FA9874"/>
<path d="M76.9597 63.9236C76.9486 63.9236 76.9389 63.9236 76.9278 63.9222L67.3472 62.932C67.2181 62.9181 67.1097 62.8264 67.0778 62.7014C67.0444 62.575 67.0931 62.4431 67.1986 62.3667L73.5819 57.825C73.6444 57.7806 73.7194 57.7611 73.7958 57.7695L83.3778 58.7625C83.5069 58.7764 83.6153 58.8681 83.6472 58.9945C83.6792 59.1209 83.6319 59.2528 83.5264 59.3292L77.1417 63.8681C77.0875 63.9028 77.025 63.9236 76.9597 63.9236ZM68.2361 62.3945L76.875 63.2875L82.4889 59.2972L73.8486 58.4028L68.2361 62.3945Z" fill="#FFECE5"/>
<path d="M94.1958 60.1973L87.8125 64.7362L76.9597 63.6112L83.3444 59.0723H83.3472L94.1958 60.1973Z" fill="#F77A4A"/>
<path d="M87.8125 65.0482C87.8014 65.0482 87.7917 65.0482 87.7806 65.0468L76.9278 63.9218C76.7986 63.9079 76.6903 63.8162 76.6583 63.6898C76.625 63.5635 76.6736 63.4315 76.7792 63.3551L83.1639 58.8162C83.225 58.7718 83.3042 58.7523 83.3792 58.7607L94.2292 59.8857C94.3583 59.8996 94.4667 59.9912 94.4986 60.1176C94.532 60.244 94.4833 60.376 94.3778 60.4523L87.9945 64.9912C87.9403 65.0287 87.8778 65.0482 87.8125 65.0482ZM77.8167 63.3857L87.7278 64.4135L93.3403 60.4218L83.4306 59.394L77.8167 63.3857Z" fill="#FFECE5"/>
<path d="M98.3971 65.8322L92.3471 70.4072L81.4263 69.2752L87.8124 64.7363L98.3971 65.8322Z" fill="#FA9874"/>
<path d="M92.3471 70.7192C92.336 70.7192 92.3263 70.7192 92.3152 70.7178L81.3943 69.5858C81.2652 69.572 81.1568 69.4803 81.1249 69.3539C81.0916 69.2275 81.1402 69.0956 81.2457 69.0192L87.6318 64.4803C87.6943 64.4359 87.7693 64.4164 87.8457 64.4247L98.4305 65.5206C98.5582 65.5345 98.6652 65.6233 98.6999 65.747C98.7346 65.8706 98.6902 66.0025 98.5874 66.0803L92.5374 70.6553C92.4805 70.697 92.4152 70.7192 92.3471 70.7192ZM82.2832 69.0497L92.2568 70.0831L97.5763 66.0609L87.8985 65.0581L82.2832 69.0497Z" fill="#FFECE5"/>
<path d="M81.4264 69.2746L75.0389 73.8162L64.1875 72.6926L70.5736 68.1523L81.4264 69.2746Z" fill="#F77A4A"/>
<path d="M75.0389 74.1287C75.0278 74.1287 75.0181 74.1287 75.007 74.1273L64.1556 73.0037C64.0264 72.9898 63.9181 72.8981 63.8861 72.7717C63.8528 72.6453 63.9014 72.5134 64.007 72.437L70.3917 67.8953C70.4542 67.8509 70.5292 67.8314 70.6056 67.8398L81.4583 68.9634C81.5875 68.9773 81.6958 69.0689 81.7278 69.1953C81.7611 69.3217 81.7125 69.4537 81.607 69.5301L75.2208 74.0717C75.1681 74.1078 75.1042 74.1287 75.0389 74.1287ZM65.0445 72.4676L74.9542 73.4939L80.5695 69.5009L70.6583 68.4745L65.0445 72.4676Z" fill="#FFECE5"/>
<path d="M106.535 40.4603C106.524 40.4603 106.511 40.4603 106.5 40.4589L89.9444 39.4298C89.6388 39.4103 89.4055 39.1464 89.425 38.8409C89.4444 38.5353 89.7069 38.302 90.0138 38.3214L106.571 39.352C106.876 39.3714 107.11 39.6353 107.09 39.9409C107.071 40.2339 106.826 40.4603 106.535 40.4603Z" fill="#FA9874"/>
<path d="M104.847 44.5887C104.836 44.5887 104.823 44.5887 104.812 44.5873L88.2554 43.5567C87.9499 43.5373 87.7166 43.2734 87.736 42.9678C87.7554 42.6623 88.0179 42.429 88.3249 42.4484L104.882 43.479C105.187 43.4984 105.421 43.7623 105.401 44.0678C105.383 44.3609 105.139 44.5887 104.847 44.5887Z" fill="#FA9874"/>
<path d="M65.1348 94.1508C65.1057 94.1508 65.0751 94.148 65.0446 94.1439L46.8279 91.1619C46.5251 91.1119 46.3196 90.8272 46.3696 90.5244C46.4196 90.2216 46.7043 90.0161 47.0071 90.0661L65.2237 93.048C65.5265 93.098 65.7321 93.3828 65.6821 93.6855C65.6376 93.9564 65.4029 94.1508 65.1348 94.1508Z" fill="#FA9874"/>
<path d="M63.5944 97.3677C63.5653 97.3677 63.5375 97.3649 63.5083 97.3608L45.4139 94.533C45.1111 94.4858 44.9028 94.201 44.9514 93.8983C45 93.5955 45.2833 93.3871 45.5861 93.4358L63.6805 96.2635C63.9833 96.3108 64.1917 96.5955 64.143 96.8983C64.1 97.1719 63.8625 97.3677 63.5944 97.3677Z" fill="#FA9874"/>
<path d="M61.8153 100.933C61.7861 100.933 61.757 100.93 61.7264 100.926L44.4125 98.158C44.1097 98.1094 43.9028 97.8247 43.9514 97.5219C44 97.2191 44.2847 97.0122 44.5875 97.0608L61.9014 99.8288C62.2042 99.8775 62.4111 100.162 62.3625 100.465C62.3195 100.739 62.0834 100.933 61.8153 100.933Z" fill="#FA9874"/>
<path d="M60.6001 104.499C60.5709 104.499 60.5418 104.496 60.5112 104.492L43.4946 101.772C43.1918 101.724 42.9848 101.439 43.0334 101.136C43.0821 100.833 43.3668 100.626 43.6696 100.675L60.6862 103.394C60.989 103.443 61.1959 103.728 61.1473 104.031C61.1043 104.303 60.8682 104.499 60.6001 104.499Z" fill="#FA9874"/>
<path d="M103.16 48.7147C103.148 48.7147 103.136 48.7147 103.125 48.7133L86.5679 47.6827C86.2624 47.6633 86.0291 47.3994 86.0485 47.0938C86.0679 46.7883 86.3304 46.5549 86.6374 46.5744L103.194 47.6049C103.5 47.6244 103.733 47.8883 103.714 48.1938C103.696 48.4883 103.451 48.7147 103.16 48.7147Z" fill="#FA9874"/>
<path d="M101.472 52.8416C101.461 52.8416 101.448 52.8416 101.437 52.8402L84.8804 51.8097C84.5749 51.7902 84.3416 51.5263 84.361 51.2208C84.3804 50.9152 84.6429 50.6819 84.9499 50.7013L101.507 51.7319C101.812 51.7513 102.046 52.0152 102.026 52.3208C102.008 52.6152 101.762 52.8416 101.472 52.8416Z" fill="#FA9874"/>
<path d="M132.049 46.8135L132.358 48.7482C132.545 49.9079 133.34 50.8163 134.486 51.1746L136.399 51.7704L134.296 52.3663C133.038 52.7246 131.951 53.6315 131.395 54.7926L130.468 56.7274L130.157 54.7926C129.971 53.6329 129.175 52.7246 128.029 52.3663L126.118 51.7704L128.22 51.1746C129.478 50.8163 130.564 49.9093 131.121 48.7482L132.049 46.8135Z" fill="#F56630"/>
<path d="M71.3863 39.2109L71.6238 40.6943C71.7669 41.5832 72.3766 42.2804 73.2558 42.554L74.7224 43.0109L73.1099 43.4693C72.1447 43.7429 71.3127 44.4387 70.8849 45.3276L70.1738 46.8123L69.9363 45.3276C69.7933 44.4387 69.1822 43.7429 68.3044 43.4693L66.8391 43.0109L68.4502 42.554C69.4155 42.2804 70.2474 41.5832 70.6752 40.6943L71.3863 39.2109Z" fill="#F56630"/>
<path d="M111.446 87.3086L111.578 88.1364C111.659 88.6308 111.999 89.0197 112.488 89.1725L113.304 89.428L112.407 89.6836C111.868 89.8364 111.404 90.2253 111.167 90.7197L110.771 91.5475L110.639 90.7197C110.559 90.2253 110.22 89.8364 109.731 89.6836L108.914 89.428L109.813 89.1725C110.352 89.0197 110.814 88.6308 111.052 88.1364L111.446 87.3086Z" fill="#F56630"/>
<path d="M36.7751 89.4258L36.9071 90.2522C36.9862 90.748 37.3265 91.1355 37.8168 91.2883L38.6334 91.5438L37.7362 91.7994C37.1973 91.9522 36.7334 92.3411 36.4959 92.8369L36.1001 93.6633L35.9682 92.8369C35.8904 92.3411 35.5487 91.9536 35.0598 91.7994L34.2432 91.5438L35.1404 91.2883C35.6793 91.1369 36.1432 90.748 36.3793 90.2522L36.7751 89.4258Z" fill="#F56630"/>
</svg>
