<svg width="24" height="24" viewBox="0 0 24 24" fill="none" xmlns="http://www.w3.org/2000/svg">
<path d="M20.7069 3.29289C21.0974 3.68342 21.0974 4.31658 20.7069 4.70711L4.70686 20.7071C4.31634 21.0976 3.68317 21.0976 3.29265 20.7071C2.90212 20.3166 2.90212 19.6834 3.29265 19.2929L19.2926 3.29289C19.6832 2.90237 20.3163 2.90237 20.7069 3.29289Z" fill="white"/>
<path d="M15.7993 5.37204C14.673 4.84163 13.403 4.5 11.9997 4.5C9.05564 4.5 6.69852 6.00369 5.02335 7.59968C3.34432 9.19934 2.25486 10.9797 1.82359 11.7498C1.54097 12.2545 1.50731 12.8571 1.7393 13.3924C1.90131 13.7662 2.17684 14.3452 2.58294 15.0172C2.86859 15.4899 3.48333 15.6415 3.95601 15.3559C4.42868 15.0702 4.58029 14.4555 4.29464 13.9828C3.96802 13.4423 3.74137 12.9749 3.60389 12.6644C4.00964 11.9493 4.9706 10.4123 6.40292 9.0477C7.8824 7.63816 9.76978 6.5 11.9997 6.5C12.8018 6.5 13.5595 6.64724 14.2699 6.90139L15.7993 5.37204Z" fill="white"/>
<path d="M17.6903 9.13789C19.0708 10.4795 19.9987 11.965 20.3956 12.6644C20.2581 12.9749 20.0315 13.4423 19.7048 13.9828C19.4192 14.4555 19.5708 15.0702 20.0435 15.3559C20.5161 15.6415 21.1309 15.4899 21.4165 15.0172C21.8226 14.3452 22.0982 13.7662 22.2602 13.3924C22.4922 12.8571 22.4585 12.2545 22.1759 11.7498C21.7557 10.9995 20.7108 9.29032 19.1046 7.72355L17.6903 9.13789Z" fill="white"/>
<path d="M11.9998 9C12.0561 9 12.1121 9.00116 12.1679 9.00347L8.00322 13.1681C8.00092 13.1124 7.99976 13.0563 7.99976 13C7.99976 10.7909 9.79062 9 11.9998 9Z" fill="white"/>
<path d="M11.9998 17C11.367 17 10.7686 16.8531 10.2367 16.5915L15.5912 11.2369C15.8528 11.7688 15.9998 12.3672 15.9998 13C15.9998 15.2091 14.2089 17 11.9998 17Z" fill="white"/>
</svg>
