<svg width="20" height="23" viewBox="0 0 20 23" fill="none" xmlns="http://www.w3.org/2000/svg">
<path fill-rule="evenodd" clip-rule="evenodd" d="M18.4806 7.48767C18.0627 5.82704 16.6199 4.64404 14.9447 4.51225C14.8603 4.24695 14.7636 3.98446 14.653 3.72842C14.2931 2.89535 13.7658 2.08332 12.9889 1.47719C12.1975 0.859751 11.2023 0.5 10 0.5C8.79772 0.5 7.80255 0.859751 7.01114 1.47719C6.23424 2.08332 5.7069 2.89535 5.34701 3.72842C5.2364 3.98445 5.13971 4.24694 5.05528 4.51225C3.38013 4.64402 1.93733 5.82704 1.51936 7.48767C0.522415 11.4485 0.0340147 14.3632 0.00171828 16.5021C-0.0303447 18.6254 0.384145 20.1872 1.42725 21.1981C2.45663 22.1958 3.87792 22.4346 5.26748 22.4874C5.97945 22.5145 6.74754 22.4933 7.53122 22.4672L7.8185 22.4575C8.5222 22.4336 9.24585 22.4091 10 22.4091C10.7541 22.4091 11.4776 22.4336 12.1813 22.4575L12.4688 22.4672C13.2525 22.4933 14.0205 22.5145 14.7325 22.4874C16.1221 22.4345 17.5434 22.1958 18.5727 21.1981C19.6158 20.1872 20.0303 18.6254 19.9983 16.5021C19.966 14.3632 19.4776 11.4485 18.4806 7.48767ZM6.49999 8.50001C6.5 7.92184 6.53569 7.21927 6.64571 6.5H13.3543C13.4643 7.21926 13.5 7.92184 13.5 8.5C13.5 9.05228 13.9477 9.5 14.5 9.5C15.0523 9.5 15.5 9.05228 15.5 8.5C15.5 7.98542 15.4755 7.34496 15.3931 6.65238C15.9522 6.88582 16.3885 7.36932 16.5411 7.97584C17.5274 11.8945 17.9698 14.6292 17.9985 16.5323C18.0275 18.4508 17.6333 19.3234 17.1808 19.762C16.7147 20.2138 15.9535 20.4395 14.6565 20.4888C14.0252 20.5128 13.324 20.4945 12.5352 20.4683L12.2508 20.4587C11.5497 20.4349 10.7905 20.4091 10 20.4091C9.20942 20.4091 8.45032 20.4349 7.74916 20.4587L7.46475 20.4683C6.67597 20.4945 5.97477 20.5128 5.34347 20.4888C4.0465 20.4395 3.28533 20.2138 2.81916 19.762C2.3667 19.3234 1.97252 18.4508 2.00149 16.5323C2.03023 14.6292 2.47256 11.8945 3.45886 7.97584C3.61152 7.36932 4.0478 6.88581 4.60693 6.65237C4.52447 7.34495 4.5 7.98542 4.49999 8.49999C4.49999 9.05228 4.9477 9.5 5.49999 9.5C6.05227 9.5 6.49999 9.05229 6.49999 8.50001ZM11.7586 3.05406C12.1917 3.39191 12.5388 3.8848 12.8076 4.5H7.19239C7.46121 3.8848 7.80834 3.39191 8.24138 3.05406C8.66497 2.72358 9.2223 2.5 10 2.5C10.7777 2.5 11.335 2.72358 11.7586 3.05406Z" fill="black"/>
</svg>
