<svg width="23" height="23" viewBox="0 0 23 23" fill="none" xmlns="http://www.w3.org/2000/svg">
<path fill-rule="evenodd" clip-rule="evenodd" d="M13.0984 1.60514L11.9001 2.69443L10.7019 1.60514C8.82747 -0.0989156 6.20713 1.43189 6.13093 3.50043H3.40015C1.74329 3.50043 0.400146 4.84358 0.400146 6.50043V8.38932C0.400146 9.19345 0.849734 9.89257 1.51126 10.249V18.5004C1.51126 20.7096 3.30212 22.5004 5.51126 22.5004H17.289C19.4982 22.5004 21.289 20.7096 21.289 18.5004V10.249C21.9506 9.89257 22.4001 9.19345 22.4001 8.38932V6.50043C22.4001 4.84358 21.057 3.50043 19.4001 3.50043H17.6694C17.5932 1.43189 14.9728 -0.0989156 13.0984 1.60514ZM7.41847 5.50043C7.40688 5.50064 7.39529 5.50064 7.38371 5.50043H3.40015C2.84786 5.50043 2.40015 5.94815 2.40015 6.50043V8.38932C2.40015 8.45069 2.44989 8.50043 2.51126 8.50043H20.289C20.3504 8.50043 20.4001 8.45069 20.4001 8.38932V6.50043C20.4001 5.94815 19.9524 5.50043 19.4001 5.50043H16.4166C16.405 5.50064 16.3934 5.50064 16.3818 5.50043H7.41847ZM12.9001 10.5004H9.90015V13.188C9.90015 13.2224 9.9085 13.2386 9.91482 13.2482C9.92354 13.2614 9.93949 13.277 9.9633 13.2884C9.9871 13.2999 10.0092 13.3026 10.025 13.3011C10.0364 13.3001 10.0543 13.2965 10.0812 13.275C10.8523 12.6581 11.948 12.6581 12.7191 13.275C12.746 13.2965 12.7639 13.3001 12.7753 13.3011C12.7911 13.3026 12.8132 13.2999 12.837 13.2884C12.8608 13.277 12.8767 13.2614 12.8855 13.2482C12.8918 13.2386 12.9001 13.2224 12.9001 13.188V10.5004ZM7.90015 10.5004V13.188C7.90015 14.9584 9.94807 15.9427 11.3305 14.8367C11.3712 14.8042 11.4291 14.8042 11.4697 14.8367C12.8522 15.9427 14.9001 14.9584 14.9001 13.188V10.5004H19.289V18.5004C19.289 19.605 18.3936 20.5004 17.289 20.5004H5.51126C4.40669 20.5004 3.51126 19.605 3.51126 18.5004V10.5004H7.90015ZM9.35659 3.08502L9.81354 3.50043H8.15755C8.24162 2.99889 8.88749 2.65857 9.35659 3.08502ZM15.6427 3.50043C15.5587 2.99889 14.9128 2.65857 14.4437 3.08502L13.9868 3.50043H15.6427Z" fill="black"/>
</svg>
