<svg width="23" height="22" viewBox="0 0 23 22" fill="none" xmlns="http://www.w3.org/2000/svg">
<path fill-rule="evenodd" clip-rule="evenodd" d="M14.0943 0.885182C12.717 -0.0789134 10.8839 -0.0789161 9.50661 0.885181L2.62904 5.69948C1.47042 6.51052 0.826196 7.87309 0.934666 9.2832L1.63968 18.4484C1.77265 20.177 3.33886 21.4334 5.05511 21.1882L8.22473 20.7354C9.70267 20.5243 10.8005 19.2585 10.8005 17.7656V16.5001C10.8005 15.9479 11.2482 15.5001 11.8005 15.5001C12.3527 15.5001 12.8005 15.9479 12.8005 16.5001V17.7656C12.8005 19.2585 13.8983 20.5243 15.3762 20.7354L18.5458 21.1882C20.2621 21.4334 21.8283 20.177 21.9612 18.4484L22.6663 9.2832C22.7747 7.87309 22.1305 6.51052 20.9719 5.69949L14.0943 0.885182ZM10.6535 2.52364C11.3422 2.0416 12.2587 2.0416 12.9474 2.52365L19.825 7.33795C20.4043 7.74347 20.7264 8.42475 20.6721 9.12981L19.9671 18.295C19.9228 18.8712 19.4007 19.29 18.8287 19.2083L15.659 18.7555C15.1664 18.6851 14.8005 18.2632 14.8005 17.7656V16.5001C14.8005 14.8433 13.4573 13.5001 11.8005 13.5001C10.1436 13.5001 8.80046 14.8433 8.80046 16.5001V17.7656C8.80046 18.2632 8.43453 18.6851 7.94188 18.7555L4.77227 19.2083C4.20019 19.29 3.67812 18.8712 3.63379 18.295L2.92877 9.12981C2.87454 8.42475 3.19665 7.74347 3.77596 7.33795L10.6535 2.52364Z" fill="black"/>
</svg>
