<svg width="19" height="23" viewBox="0 0 19 23" fill="none" xmlns="http://www.w3.org/2000/svg">
<path fill-rule="evenodd" clip-rule="evenodd" d="M5.02867 0.5C2.61884 0.5 0.600098 2.39041 0.600098 4.80126V19.2948C0.600098 22.4156 4.59141 23.5975 6.46796 21.2744L9.02483 18.1091C9.31091 17.7549 9.88929 17.7549 10.1754 18.109L12.7322 21.2744C14.6088 23.5975 18.6001 22.4156 18.6001 19.2948V4.80126C18.6001 2.39041 16.5814 0.5 14.1715 0.5H5.02867ZM2.6001 4.80126C2.6001 3.56564 3.6514 2.5 5.02867 2.5H14.1715C15.5488 2.5 16.6001 3.56564 16.6001 4.80126V19.2948C16.6001 20.3651 15.0838 21.0028 14.2881 20.0176L11.7312 16.8523C10.6446 15.5071 8.55559 15.5071 7.46901 16.8523L4.91213 20.0177C4.11638 21.0028 2.6001 20.3651 2.6001 19.2948V4.80126Z" fill="black"/>
</svg>
