<svg width="17" height="22" viewBox="0 0 17 22" fill="none" xmlns="http://www.w3.org/2000/svg">
<path fill-rule="evenodd" clip-rule="evenodd" d="M8.19995 0.5C5.43853 0.5 3.19995 2.73858 3.19995 5.5C3.19995 8.26142 5.43853 10.5 8.19995 10.5C10.9614 10.5 13.2 8.26142 13.2 5.5C13.2 2.73858 10.9614 0.5 8.19995 0.5ZM5.19995 5.5C5.19995 3.84315 6.5431 2.5 8.19995 2.5C9.85681 2.5 11.2 3.84315 11.2 5.5C11.2 7.15685 9.85681 8.5 8.19995 8.5C6.5431 8.5 5.19995 7.15685 5.19995 5.5Z" fill="black"/>
<path fill-rule="evenodd" clip-rule="evenodd" d="M8.19995 21.5C6.65945 21.5 4.42977 21.1502 2.75538 20.4174C1.93338 20.0576 1.0974 19.5427 0.611704 18.7974C0.356268 18.4054 0.194784 17.9437 0.200077 17.4282C0.205322 16.9174 0.37339 16.4281 0.655866 15.9728C2.02527 13.7656 4.82674 11.5 8.19995 11.5C11.5732 11.5 14.3746 13.7656 15.744 15.9728C16.0265 16.4281 16.1946 16.9174 16.1998 17.4282C16.2051 17.9437 16.0436 18.4054 15.7882 18.7974C15.3025 19.5427 14.4665 20.0576 13.6445 20.4174C11.9701 21.1502 9.74045 21.5 8.19995 21.5ZM2.35534 17.0272C2.22367 17.2394 2.20072 17.3757 2.19997 17.4487C2.19927 17.517 2.21681 17.5973 2.28732 17.7055C2.45349 17.9605 2.85702 18.2787 3.55728 18.5852C4.92739 19.1848 6.87319 19.5 8.19995 19.5C9.52671 19.5 11.4725 19.1848 12.8426 18.5852C13.5429 18.2787 13.9464 17.9605 14.1126 17.7055C14.1831 17.5973 14.2006 17.517 14.1999 17.4487C14.1992 17.3757 14.1762 17.2394 14.0446 17.0272C12.9224 15.2185 10.6843 13.5 8.19995 13.5C5.71561 13.5 3.47749 15.2185 2.35534 17.0272Z" fill="black"/>
</svg>
