<svg width="13" height="13" viewBox="0 0 13 13" fill="none" xmlns="http://www.w3.org/2000/svg">
<path d="M6.5 3.5C6.77614 3.5 7 3.72386 7 4V7.5C7 7.77614 6.77614 8 6.5 8C6.22386 8 6 7.77614 6 7.5V4C6 3.72386 6.22386 3.5 6.5 3.5Z" fill="#D0D5DD"/>
<path d="M5.875 8.875C5.875 9.22018 6.15482 9.5 6.5 9.5C6.84518 9.5 7.125 9.22018 7.125 8.875C7.125 8.52982 6.84518 8.25 6.5 8.25C6.15482 8.25 5.875 8.52982 5.875 8.875Z" fill="#D0D5DD"/>
<path fill-rule="evenodd" clip-rule="evenodd" d="M1.5 6.5C1.5 3.73858 3.73858 1.5 6.5 1.5C9.26142 1.5 11.5 3.73858 11.5 6.5C11.5 9.26142 9.26142 11.5 6.5 11.5C3.73858 11.5 1.5 9.26142 1.5 6.5ZM6.5 2.5C4.29086 2.5 2.5 4.29086 2.5 6.5C2.5 8.70914 4.29086 10.5 6.5 10.5C8.70914 10.5 10.5 8.70914 10.5 6.5C10.5 4.29086 8.70914 2.5 6.5 2.5Z" fill="#D0D5DD"/>
</svg>
