<svg width="12" height="14" viewBox="0 0 12 14" fill="none" xmlns="http://www.w3.org/2000/svg">
<path fill-rule="evenodd" clip-rule="evenodd" d="M5.99998 2.66674C4.34313 2.66674 2.99998 4.00989 2.99998 5.66674C2.99998 7.3236 4.34313 8.66674 5.99998 8.66674C7.65683 8.66674 8.99998 7.3236 8.99998 5.66674C8.99998 4.00989 7.65683 2.66674 5.99998 2.66674ZM4.33331 5.66674C4.33331 4.74627 5.07951 4.00008 5.99998 4.00008C6.92045 4.00008 7.66665 4.74627 7.66665 5.66674C7.66665 6.58722 6.92045 7.33341 5.99998 7.33341C5.07951 7.33341 4.33331 6.58722 4.33331 5.66674Z" fill="#F56630"/>
<path fill-rule="evenodd" clip-rule="evenodd" d="M3.20614 1.39473C4.89795 0.26686 7.10201 0.266859 8.79382 1.39473C11.0811 2.91958 11.7232 5.99675 10.2367 8.30911L7.68234 12.2826C6.89506 13.5072 5.1049 13.5072 4.31762 12.2826L1.76325 8.30911C0.276732 5.99675 0.918877 2.91958 3.20614 1.39473ZM3.94574 2.50413C5.18969 1.67484 6.81027 1.67484 8.05422 2.50413C9.73598 3.62531 10.2081 5.88788 9.11514 7.5881L6.56077 11.5616C6.29834 11.9698 5.70162 11.9698 5.43919 11.5616L2.88482 7.5881C1.79182 5.88788 2.26398 3.62531 3.94574 2.50413Z" fill="#F56630"/>
</svg>
