<?xml version="1.0" encoding="UTF-8"?>
<!DOCTYPE svg PUBLIC "-//W3C//DTD SVG 1.1//EN" "http://www.w3.org/Graphics/SVG/1.1/DTD/svg11.dtd">
<svg xmlns="http://www.w3.org/2000/svg" version="1.1" width="90px" height="90px" style="shape-rendering:geometricPrecision; text-rendering:geometricPrecision; image-rendering:optimizeQuality; fill-rule:evenodd; clip-rule:evenodd" xmlns:xlink="http://www.w3.org/1999/xlink">
<g><path style="opacity:0.833" fill="#000000" d="M 35.5,8.5 C 43.6848,7.89748 51.6848,8.73082 59.5,11C 64.0837,12.2223 66.2504,15.0556 66,19.5C 65.1074,20.0814 64.1074,20.4148 63,20.5C 52.1089,14.5204 40.9422,14.0204 29.5,19C 17.9963,26.8275 13.4963,37.6608 16,51.5C 21.7365,68.5457 33.5698,75.7123 51.5,73C 54.7846,72.2411 57.7846,70.9078 60.5,69C 67.1617,68.5956 68.1617,70.9289 63.5,76C 44.9187,84.6543 28.752,81.4876 15,66.5C 8.85409,57.047 6.85409,46.7137 9,35.5C 13.3506,21.9836 22.1839,12.9836 35.5,8.5 Z"/></g>
<g><path style="opacity:0.867" fill="#000000" d="M 65.5,29.5 C 67.5273,29.3379 69.5273,29.5045 71.5,30C 76.3892,34.3862 80.7225,39.2196 84.5,44.5C 80.1197,51.0479 74.6197,56.3812 68,60.5C 66.3035,59.6364 65.1368,58.3031 64.5,56.5C 66.2667,53.2302 68.6,50.3968 71.5,48C 60.4849,47.8324 49.4849,47.3324 38.5,46.5C 37.1667,45.1667 37.1667,43.8333 38.5,42.5C 49.4849,41.6676 60.4849,41.1676 71.5,41C 68.374,38.5497 66.0406,35.5497 64.5,32C 65.2524,31.3292 65.5858,30.4959 65.5,29.5 Z"/></g>
</svg>
