<svg width="14" height="11" viewBox="0 0 14 11" fill="none" xmlns="http://www.w3.org/2000/svg">
<path d="M2.96971 2.24353C2.64876 2.21545 2.36583 2.45286 2.33775 2.7738C2.30967 3.09474 2.54708 3.37768 2.86802 3.40575L4.03025 3.50744C4.35119 3.53551 4.63413 3.2981 4.6622 2.97716C4.69028 2.65622 4.45287 2.37329 4.13193 2.34521L2.96971 2.24353Z" fill="#F56630"/>
<path d="M9.33775 3.35713C9.36583 3.03619 9.64877 2.79878 9.96971 2.82686L11.1319 2.92854C11.4529 2.95662 11.6903 3.23956 11.6622 3.5605C11.6341 3.88144 11.3512 4.11885 11.0303 4.09077L9.86802 3.98909C9.54708 3.96101 9.30967 3.67807 9.33775 3.35713Z" fill="#F56630"/>
<path d="M2.96971 7.2527C2.64876 7.22462 2.36583 7.46204 2.33775 7.78298C2.30967 8.10392 2.54708 8.38685 2.86802 8.41493L4.03025 8.51661C4.35119 8.54469 4.63413 8.30728 4.6622 7.98634C4.69028 7.6654 4.45287 7.38246 4.13193 7.35438L2.96971 7.2527Z" fill="#F56630"/>
<path d="M9.33775 8.60713C9.36583 8.28619 9.64877 8.04878 9.96971 8.07686L11.1319 8.17854C11.4529 8.20662 11.6903 8.48956 11.6622 8.8105C11.6341 9.13144 11.3512 9.36885 11.0303 9.34077L9.86802 9.23909C9.54708 9.21101 9.30967 8.92807 9.33775 8.60713Z" fill="#F56630"/>
<path fill-rule="evenodd" clip-rule="evenodd" d="M6.99992 3.75048C7.96642 3.75048 8.74992 4.53399 8.74992 5.50048C8.74992 6.46698 7.96642 7.25048 6.99992 7.25048C6.03342 7.25048 5.24992 6.46698 5.24992 5.50048C5.24992 4.53399 6.03342 3.75048 6.99992 3.75048ZM7.58325 5.50048C7.58325 5.17832 7.32208 4.91715 6.99992 4.91715C6.67775 4.91715 6.41659 5.17832 6.41659 5.50048C6.41659 5.82265 6.67775 6.08382 6.99992 6.08382C7.32208 6.08382 7.58325 5.82265 7.58325 5.50048Z" fill="#F56630"/>
<path fill-rule="evenodd" clip-rule="evenodd" d="M3.05911 0.391413C1.70973 0.275591 0.583252 1.34475 0.583252 2.68218V7.34361C0.583252 8.58329 1.54865 9.60162 2.76973 9.70436C3.27024 9.74647 3.88421 9.80158 4.60967 9.8727C4.73971 9.88545 5.02886 9.94444 5.4469 10.0411C5.72175 10.1047 6.03115 10.1794 6.35618 10.2578C6.50941 10.2948 6.66661 10.3328 6.82481 10.3706C7.31437 10.4879 7.81494 10.605 8.24573 10.6932C8.6582 10.7776 9.06238 10.8477 9.33078 10.8489C9.99792 10.8517 10.6504 10.8391 11.2087 10.8221C12.4577 10.784 13.4166 9.75211 13.4166 8.52283V3.86295C13.4166 2.51404 12.2828 1.45966 10.957 1.49549C10.4597 1.50894 9.90208 1.51795 9.33572 1.51555C9.2011 1.51498 8.90811 1.47121 8.47962 1.38353C8.06944 1.29959 7.58524 1.18646 7.09658 1.06941C6.94352 1.03274 6.78965 0.9956 6.63782 0.958951L6.63723 0.958809C6.30896 0.87957 5.99014 0.802613 5.70976 0.737775C5.31299 0.646021 4.94419 0.566569 4.7235 0.544933C4.08246 0.482086 3.52722 0.431592 3.05911 0.391413ZM1.74992 2.68218C1.74992 2.01147 2.30795 1.49789 2.95934 1.55381C3.42278 1.59359 3.97334 1.64365 4.60967 1.70603C4.73971 1.71878 5.02886 1.77777 5.4469 1.87444C5.7218 1.93801 6.03125 2.01271 6.35634 2.09119C6.50968 2.1282 6.66649 2.16605 6.82481 2.20398C7.31437 2.32125 7.81494 2.43836 8.24573 2.52651C8.6582 2.61091 9.06238 2.68107 9.33078 2.68221C9.91213 2.68467 10.4822 2.67542 10.9886 2.66173C11.6806 2.64303 12.2499 3.19323 12.2499 3.86295V8.52283C12.2499 9.14201 11.7718 9.63768 11.1732 9.65594C10.6242 9.67269 9.98583 9.68497 9.33572 9.68222C9.2011 9.68165 8.90811 9.63788 8.47962 9.5502C8.06944 9.46626 7.58524 9.35313 7.09658 9.23607C6.94336 9.19937 6.78932 9.16219 6.63734 9.1255C6.30901 9.04625 5.99019 8.96929 5.70976 8.90444C5.31299 8.81269 4.94419 8.73324 4.7235 8.7116C3.99267 8.63995 3.37336 8.58436 2.86754 8.5418C2.23646 8.4887 1.74992 7.96264 1.74992 7.34361V2.68218Z" fill="#F56630"/>
</svg>
