<svg width="14" height="15" viewBox="0 0 14 15" fill="none" xmlns="http://www.w3.org/2000/svg">
<path d="M11.1768 0.237543C10.8939 0.00183411 10.4736 0.0400506 10.2379 0.322902C10.0021 0.605754 10.0404 1.02613 10.3232 1.26184L11.2197 2.00888C9.32697 2.5631 7.79165 3.92722 7 5.69158C6.20835 3.92722 4.67304 2.5631 2.78034 2.00888L3.67679 1.26184C3.95964 1.02613 3.99786 0.605754 3.76215 0.322902C3.52644 0.0400509 3.10607 0.00183444 2.82321 0.237544L0.824645 1.90301C0.687341 2.01683 0.595783 2.18512 0.584484 2.37721C0.577125 2.5023 0.604754 2.62136 0.658898 2.72486L1.98705 5.38117C2.15171 5.71049 2.55216 5.84397 2.88148 5.67931C3.2108 5.51465 3.34428 5.1142 3.17962 4.78488L2.43605 3.29775C4.65321 3.96179 6.25 6.01644 6.25 8.42615L6.25 13.4164C6.25 13.7845 6.54848 14.083 6.91667 14.083C6.94489 14.083 6.9727 14.0813 7 14.0779C7.0273 14.0813 7.05511 14.083 7.08334 14.083C7.45153 14.083 7.75 13.7845 7.75 13.4164V8.42615C7.75 6.01644 9.3468 3.96179 11.564 3.29774L10.8204 4.78488C10.6557 5.1142 10.7892 5.51465 11.1185 5.67931C11.4478 5.84397 11.8483 5.71049 12.013 5.38117L13.3411 2.72486C13.3953 2.62136 13.4229 2.5023 13.4155 2.37721C13.4042 2.18512 13.3127 2.01683 13.1754 1.90301L11.1768 0.237543Z" fill="white"/>
</svg>
