<svg width="150" height="150" viewBox="0 0 150 150" fill="none" xmlns="http://www.w3.org/2000/svg">
<path d="M75 122.697C103.319 122.697 126.276 113.691 126.276 102.582C126.276 91.4727 103.319 82.4668 75 82.4668C46.6809 82.4668 23.7236 91.4727 23.7236 102.582C23.7236 113.691 46.6809 122.697 75 122.697Z" fill="#FFECE5"/>
<path d="M122.386 53.9834L125.479 58.2015L113.856 92.0528L110.763 87.8348L122.386 53.9834Z" fill="#CDC4C4"/>
<path d="M113.856 92.3655C113.757 92.3655 113.662 92.3182 113.604 92.2377L110.51 88.0196C110.449 87.9377 110.433 87.8307 110.467 87.7335L122.09 53.8835C122.128 53.7738 122.224 53.6932 122.339 53.6766C122.454 53.6585 122.569 53.7071 122.637 53.8002L125.732 58.0182C125.793 58.1002 125.808 58.2071 125.775 58.3044L114.151 92.1544C114.114 92.2641 114.018 92.3446 113.903 92.3613C113.887 92.3641 113.871 92.3655 113.856 92.3655ZM111.111 87.7807L113.756 91.3849L125.132 58.2544L122.487 54.6502L111.111 87.7807Z" fill="#FFECE5"/>
<path d="M125.35 52.5479L128.444 56.7659L116.099 93.4895L112.781 89.2715L125.35 52.5479Z" fill="#FA9874"/>
<path d="M116.099 93.802C116.004 93.802 115.913 93.7589 115.853 93.6825L112.535 89.4645C112.469 89.3812 112.45 89.27 112.485 89.17L125.054 52.4464C125.092 52.3367 125.188 52.2562 125.303 52.2381C125.418 52.22 125.533 52.2687 125.601 52.3617L128.696 56.5798C128.756 56.6617 128.772 56.7673 128.74 56.8645L116.394 93.5881C116.358 93.6964 116.264 93.777 116.151 93.7964C116.135 93.8006 116.117 93.802 116.099 93.802ZM113.131 89.2117L115.986 92.8423L128.096 56.8214L125.451 53.2159L113.131 89.2117Z" fill="#FFECE5"/>
<path d="M112.781 89.2715H47.7014L21.5555 102.401H86.8597L112.781 89.2715ZM102.861 92.3215L98.8278 94.3215L94.7903 96.3229L90.0236 98.684H89.643L86.2819 100.349H29.7611L33.1222 98.684H32.7347L36.9542 96.5937L40.8083 94.684L44.8417 92.684L49.6083 90.3215H53.9569H58.3028H62.6514H66.9972H71.3458H75.693H80.0403H84.3875H88.7347H93.0819H97.4292H102.547H106.894L102.861 92.3215Z" fill="#F56630"/>
<path d="M86.8597 102.713H21.5556C21.4111 102.713 21.2847 102.613 21.2514 102.473C21.2181 102.333 21.2861 102.187 21.4153 102.121L47.5597 88.9923C47.6028 88.9701 47.6514 88.959 47.7 88.959H112.779C112.924 88.959 113.05 89.0576 113.083 89.1993C113.117 89.3395 113.05 89.4854 112.921 89.5507L87.0014 102.68C86.9569 102.702 86.9083 102.713 86.8597 102.713ZM22.875 102.088H86.7861L111.471 89.584H47.775L22.875 102.088ZM86.2819 100.662H29.7611C29.6153 100.662 29.4903 100.562 29.4569 100.42C29.4236 100.278 29.4931 100.134 29.6222 100.069L32.4222 98.6812C32.4236 98.5659 32.4889 98.4562 32.5958 98.4034L49.4694 90.0395C49.5125 90.0187 49.5597 90.0076 49.6083 90.0076H106.897C107.042 90.0076 107.168 90.1076 107.201 90.2493C107.235 90.3909 107.165 90.5354 107.036 90.6007L90.1625 98.9645C90.1194 98.9854 90.0722 98.9965 90.0236 98.9965H89.7153L86.4194 100.63C86.3778 100.651 86.3306 100.662 86.2819 100.662ZM31.0958 100.037H86.2097L89.5056 98.4034C89.5486 98.3826 89.5958 98.3715 89.6444 98.3715H89.9528L105.565 90.6326H49.6819L33.4347 98.6854C33.4333 98.8007 33.3681 98.9104 33.2611 98.9632L31.0958 100.037Z" fill="#FFECE5"/>
<path d="M86.8597 102.4H21.5555V107.375H86.8597V102.4Z" fill="#FA9874"/>
<path d="M86.8597 107.688H21.5555C21.4722 107.688 21.393 107.655 21.3347 107.596C21.2764 107.538 21.243 107.459 21.243 107.375V102.4C21.243 102.228 21.3833 102.088 21.5555 102.088H86.8597C87.0319 102.088 87.1722 102.228 87.1722 102.4V107.375C87.1722 107.548 87.0319 107.688 86.8597 107.688ZM21.868 107.063H86.5472V102.713H21.868V107.063Z" fill="#FFECE5"/>
<path d="M102.55 90.3203H97.4333H93.0847H88.7374H84.3902H80.043H75.6958H71.3472H66.9986H62.6527H58.3041H53.9583H49.6083L44.843 92.6828L40.8097 94.6828L36.9555 96.5925L32.7347 98.6828L29.4222 100.349H86.5444L90.0236 98.6828L94.7888 96.3217L98.825 94.3203L102.858 92.3217L106.897 90.3203H102.55Z" fill="#FCD2C2"/>
<path d="M86.5444 100.662H29.4222C29.2777 100.662 29.1514 100.562 29.118 100.421C29.0847 100.281 29.1527 100.135 29.2819 100.07L32.5944 98.4046L49.4694 90.0407C49.5125 90.0199 49.5597 90.0088 49.6083 90.0088H106.897C107.042 90.0088 107.168 90.1088 107.201 90.2505C107.235 90.3921 107.165 90.5366 107.036 90.6018L90.1625 98.9657L86.6777 100.634C86.6361 100.65 86.5902 100.662 86.5444 100.662ZM30.7402 100.037H86.4722L89.8889 98.4018L105.562 90.6324H49.6805L32.8722 98.963L30.7402 100.037Z" fill="#FFECE5"/>
<path d="M98.0778 94.5L94.0389 96.5014H89.6917L93.7291 94.5H98.0778Z" fill="#F56630"/>
<path d="M94.0389 96.7796H89.6916C89.5625 96.7796 89.45 96.6907 89.4208 96.5657C89.3916 96.4407 89.4527 96.3102 89.568 96.2532L93.6055 94.2518C93.6444 94.2324 93.6861 94.2227 93.7291 94.2227H98.0777C98.2069 94.2227 98.3194 94.3115 98.3486 94.4365C98.3777 94.5615 98.3166 94.6921 98.2014 94.749L94.1625 96.7504C94.1236 96.7699 94.0819 96.7796 94.0389 96.7796ZM90.8777 96.224H93.975L96.893 94.7782H93.7944L90.8777 96.224Z" fill="#FFECE5"/>
<path d="M67.0181 90.5L62.9819 92.5014H58.6361L62.6722 90.5H67.0181Z" fill="#F56630"/>
<path d="M62.9819 92.7796H58.6361C58.5069 92.7796 58.3944 92.6907 58.3653 92.5657C58.3361 92.4407 58.3972 92.3102 58.5125 92.2532L62.55 90.2518C62.5889 90.2324 62.6305 90.2227 62.6736 90.2227H67.0194C67.1486 90.2227 67.2611 90.3116 67.2903 90.4366C67.3194 90.5616 67.2583 90.6921 67.143 90.7491L63.1055 92.7504C63.0666 92.7699 63.025 92.7796 62.9819 92.7796ZM59.8222 92.224H62.9166L65.8333 90.7782H62.7389L59.8222 92.224Z" fill="#FFECE5"/>
<path d="M93.1055 90.5L89.068 92.5014H84.7208L88.7583 90.5H93.1055Z" fill="#F56630"/>
<path d="M89.068 92.7796H84.7208C84.5916 92.7796 84.4791 92.6907 84.45 92.5657C84.4208 92.4407 84.4819 92.3102 84.5972 92.2532L88.6347 90.2518C88.6736 90.2324 88.7153 90.2227 88.7583 90.2227H93.1055C93.2347 90.2227 93.3472 90.3116 93.3764 90.4366C93.4055 90.5616 93.3444 90.6921 93.2291 90.7491L89.1916 92.7504C89.1541 92.7699 89.1111 92.7796 89.068 92.7796ZM85.9069 92.224H89.0041L91.9208 90.7782H88.8236L85.9069 92.224Z" fill="#FFECE5"/>
<path d="M72.3014 96.501L68.2681 98.501H50.8764L54.9111 96.501H59.257H63.607H67.9542H72.3014Z" fill="#F56630"/>
<path d="M68.2681 98.7792H50.8764C50.7472 98.7792 50.6347 98.6903 50.6056 98.5653C50.5764 98.4403 50.6375 98.3097 50.7528 98.2528L54.7875 96.2528C54.8264 96.2334 54.8681 96.2236 54.9111 96.2236H72.3014C72.4306 96.2236 72.5431 96.3125 72.5722 96.4375C72.6014 96.5625 72.5403 96.6931 72.425 96.75L68.3917 98.75C68.3528 98.7695 68.3111 98.7792 68.2681 98.7792ZM52.0625 98.2236H68.2028L71.1153 96.7792H54.9764L52.0625 98.2236Z" fill="#FFECE5"/>
<path d="M41.8666 96.501L37.8347 98.501H33.4861L37.5208 96.501H41.8666Z" fill="#F56630"/>
<path d="M37.8347 98.7792H33.4875C33.3583 98.7792 33.2458 98.6903 33.2166 98.5653C33.1875 98.4403 33.2486 98.3097 33.3639 98.2528L37.3986 96.2528C37.4375 96.2334 37.4791 96.2236 37.5222 96.2236H41.868C41.9972 96.2236 42.1097 96.3125 42.1389 96.4375C42.168 96.5625 42.1069 96.6931 41.9916 96.75L37.9569 98.75C37.9194 98.7695 37.8764 98.7792 37.8347 98.7792ZM34.6722 98.2236H37.768L40.6805 96.7792H37.5861L34.6722 98.2236Z" fill="#FFECE5"/>
<path d="M45.9041 94.5L41.8666 96.5014H37.5208L41.5583 94.5H45.9041Z" fill="#F56630"/>
<path d="M41.8666 96.7796H37.5208C37.3916 96.7796 37.2791 96.6907 37.25 96.5657C37.2208 96.4407 37.2819 96.3102 37.3972 96.2532L41.4347 94.2518C41.4736 94.2324 41.5152 94.2227 41.5583 94.2227H45.9041C46.0333 94.2227 46.1458 94.3115 46.175 94.4365C46.2041 94.5615 46.143 94.6921 46.0277 94.749L41.9902 96.7504C41.9527 96.7699 41.9097 96.7796 41.8666 96.7796ZM38.7069 96.224H41.8014L44.718 94.7782H41.6236L38.7069 96.224Z" fill="#FFECE5"/>
<path d="M46.2167 96.501L42.1819 98.501H37.8347L41.8667 96.501H46.2167Z" fill="#F56630"/>
<path d="M42.1819 98.7792H37.8347C37.7055 98.7792 37.593 98.6903 37.5639 98.5653C37.5347 98.4403 37.5958 98.3097 37.7111 98.2528L41.7444 96.2528C41.7833 96.2334 41.825 96.2236 41.868 96.2236H46.2166C46.3458 96.2236 46.4583 96.3125 46.4875 96.4375C46.5166 96.5625 46.4555 96.6931 46.3403 96.75L42.3055 98.75C42.2666 98.7695 42.225 98.7792 42.1819 98.7792ZM39.0194 98.2236H42.1166L45.0305 96.7792H41.9319L39.0194 98.2236Z" fill="#FFECE5"/>
<path d="M50.2528 94.5L46.2166 96.5014H41.8666L45.9041 94.5H50.2528Z" fill="#F56630"/>
<path d="M46.2166 96.7796H41.868C41.7389 96.7796 41.6264 96.6907 41.5972 96.5657C41.568 96.4407 41.6291 96.3102 41.7444 96.2532L45.7819 94.2518C45.8208 94.2324 45.8625 94.2227 45.9055 94.2227H50.2541C50.3833 94.2227 50.4958 94.3115 50.525 94.4365C50.5541 94.5615 50.493 94.6921 50.3777 94.749L46.3402 96.7504C46.3014 96.7699 46.2597 96.7796 46.2166 96.7796ZM43.0528 96.224H46.1514L49.068 94.7782H45.9694L43.0528 96.224Z" fill="#FFECE5"/>
<path d="M54.2861 92.502L50.2528 94.5006H45.9042H41.5583L45.5917 92.502H49.9403H54.2861Z" fill="#F56630"/>
<path d="M50.2528 94.7782H41.5583C41.4292 94.7782 41.3167 94.6893 41.2875 94.5643C41.2583 94.4393 41.3194 94.3088 41.4347 94.2518L45.4681 92.2518C45.5069 92.2324 45.5486 92.2227 45.5917 92.2227H54.2861C54.4153 92.2227 54.5278 92.3115 54.5569 92.4365C54.5861 92.5615 54.525 92.6921 54.4097 92.749L50.3764 94.749C50.3389 94.7685 50.2958 94.7782 50.2528 94.7782ZM42.7444 94.2227H50.1889L53.1014 92.7782H45.6569L42.7444 94.2227Z" fill="#FFECE5"/>
<path d="M54.5986 94.5L50.5625 96.5014H46.2167L50.2528 94.5H54.5986Z" fill="#F56630"/>
<path d="M50.5625 96.7796H46.2167C46.0875 96.7796 45.975 96.6907 45.9458 96.5657C45.9167 96.4407 45.9778 96.3102 46.093 96.2532L50.1305 94.2518C50.1694 94.2324 50.2111 94.2227 50.2542 94.2227H54.6C54.7292 94.2227 54.8417 94.3115 54.8708 94.4365C54.9 94.5615 54.8389 94.6921 54.7236 94.749L50.6861 96.7504C50.6472 96.7699 50.6055 96.7796 50.5625 96.7796ZM47.4028 96.224H50.4972L53.4139 94.7782H50.3194L47.4028 96.224Z" fill="#FFECE5"/>
<path d="M58.6361 92.502L54.5986 94.5006H50.2527L54.2861 92.502H58.6361Z" fill="#F56630"/>
<path d="M54.5986 94.7782H50.2527C50.1236 94.7782 50.0111 94.6893 49.9819 94.5643C49.9527 94.4393 50.0138 94.3088 50.1291 94.2518L54.1625 92.2518C54.2013 92.2324 54.243 92.2227 54.2861 92.2227H58.6347C58.7638 92.2227 58.8763 92.3115 58.9055 92.4365C58.9347 92.5615 58.8736 92.6921 58.7583 92.749L54.7222 94.7504C54.6847 94.7685 54.6416 94.7782 54.5986 94.7782ZM51.4388 94.2227H54.5347L57.45 92.7782H54.3527L51.4388 94.2227Z" fill="#FFECE5"/>
<path d="M62.6722 90.5L58.6361 92.5014H54.2861L58.3236 90.5H62.6722Z" fill="#F56630"/>
<path d="M58.6361 92.7796H54.2875C54.1583 92.7796 54.0458 92.6907 54.0166 92.5657C53.9875 92.4407 54.0486 92.3102 54.1638 92.2532L58.2013 90.2518C58.2402 90.2324 58.2819 90.2227 58.325 90.2227H62.6736C62.8027 90.2227 62.9152 90.3116 62.9444 90.4366C62.9736 90.5616 62.9125 90.6921 62.7972 90.7491L58.7597 92.7504C58.7208 92.7699 58.6791 92.7796 58.6361 92.7796ZM55.4722 92.224H58.5708L61.4875 90.7782H58.3888L55.4722 92.224Z" fill="#FFECE5"/>
<path d="M54.9111 96.501L50.8764 98.501H46.5292L50.5625 96.501H54.9111Z" fill="#F56630"/>
<path d="M50.8764 98.7792H46.5292C46.4 98.7792 46.2875 98.6903 46.2583 98.5653C46.2292 98.4403 46.2903 98.3097 46.4055 98.2528L50.4389 96.2528C50.4778 96.2334 50.5194 96.2236 50.5625 96.2236H54.9111C55.0403 96.2236 55.1528 96.3125 55.1819 96.4375C55.2111 96.5625 55.15 96.6931 55.0347 96.75L51 98.75C50.9611 98.7695 50.9194 98.7792 50.8764 98.7792ZM47.7153 98.2236H50.8125L53.7264 96.7792H50.6278L47.7153 98.2236Z" fill="#FFECE5"/>
<path d="M58.9486 94.5L54.9111 96.5014H50.5625L54.5986 94.5H58.9486Z" fill="#F56630"/>
<path d="M54.9111 96.7796H50.5625C50.4333 96.7796 50.3208 96.6907 50.2917 96.5657C50.2625 96.4407 50.3236 96.3102 50.4389 96.2532L54.4764 94.2518C54.5153 94.2324 54.5569 94.2227 54.6 94.2227H58.9486C59.0778 94.2227 59.1903 94.3115 59.2194 94.4365C59.2486 94.5615 59.1875 94.6921 59.0722 94.749L55.0347 96.7504C54.9972 96.7699 54.9541 96.7796 54.9111 96.7796ZM51.7486 96.224H54.8472L57.7639 94.7782H54.6653L51.7486 96.224Z" fill="#FFECE5"/>
<path d="M62.9819 92.502L58.9486 94.5006H54.5986L58.6361 92.502H62.9819Z" fill="#F56630"/>
<path d="M58.9486 94.7782H54.6C54.4708 94.7782 54.3583 94.6893 54.3291 94.5643C54.3 94.4393 54.3611 94.3088 54.4763 94.2518L58.5125 92.2518C58.5513 92.2324 58.593 92.2227 58.6361 92.2227H62.9819C63.1111 92.2227 63.2236 92.3115 63.2527 92.4365C63.2819 92.5615 63.2208 92.6921 63.1055 92.749L59.0722 94.749C59.0333 94.7685 58.9916 94.7782 58.9486 94.7782ZM55.7861 94.2227H58.8833L61.7958 92.7782H58.7L55.7861 94.2227Z" fill="#FFECE5"/>
<path d="M63.2944 94.5L59.2569 96.5014H54.9111L58.9486 94.5H63.2944Z" fill="#F56630"/>
<path d="M59.2569 96.7796H54.9111C54.7819 96.7796 54.6694 96.6907 54.6402 96.5657C54.6111 96.4407 54.6722 96.3102 54.7874 96.2532L58.8249 94.2518C58.8638 94.2324 58.9055 94.2227 58.9486 94.2227H63.2944C63.4236 94.2227 63.5361 94.3115 63.5652 94.4365C63.5944 94.5615 63.5333 94.6921 63.418 94.749L59.3805 96.7504C59.343 96.7699 59.2999 96.7796 59.2569 96.7796ZM56.0972 96.224H59.1916L62.1083 94.7782H59.0138L56.0972 96.224Z" fill="#FFECE5"/>
<path d="M67.3306 92.502L63.2944 94.5006H58.9486L62.9819 92.502H67.3306Z" fill="#F56630"/>
<path d="M63.2944 94.7782H58.9486C58.8194 94.7782 58.7069 94.6893 58.6778 94.5643C58.6486 94.4393 58.7097 94.3088 58.825 94.2518L62.8583 92.2518C62.8972 92.2324 62.9389 92.2227 62.9819 92.2227H67.3305C67.4597 92.2227 67.5722 92.3115 67.6014 92.4365C67.6305 92.5615 67.5694 92.6921 67.4541 92.749L63.418 94.749C63.3791 94.7685 63.3375 94.7782 63.2944 94.7782ZM60.1347 94.2227H63.2305L66.1458 92.7782H63.0486L60.1347 94.2227Z" fill="#FFECE5"/>
<path d="M67.643 94.5L63.6069 96.5014H59.2569L63.2944 94.5H67.643Z" fill="#F56630"/>
<path d="M63.6069 96.7796H59.2583C59.1291 96.7796 59.0166 96.6907 58.9875 96.5657C58.9583 96.4407 59.0194 96.3102 59.1347 96.2532L63.1722 94.2518C63.2111 94.2324 63.2527 94.2227 63.2958 94.2227H67.6444C67.7736 94.2227 67.8861 94.3115 67.9152 94.4365C67.9444 94.5615 67.8833 94.6921 67.768 94.749L63.7305 96.7504C63.6916 96.7699 63.65 96.7796 63.6069 96.7796ZM60.443 96.224H63.5416L66.4583 94.7782H63.3597L60.443 96.224Z" fill="#FFECE5"/>
<path d="M71.6778 92.502L67.643 94.5006H63.2944L67.3305 92.502H71.6778Z" fill="#F56630"/>
<path d="M67.643 94.7782H63.2944C63.1653 94.7782 63.0528 94.6893 63.0236 94.5643C62.9944 94.4393 63.0555 94.3088 63.1708 94.2518L67.2069 92.2518C67.2458 92.2324 67.2875 92.2227 67.3305 92.2227H71.6778C71.8069 92.2227 71.9194 92.3115 71.9486 92.4365C71.9778 92.5615 71.9166 92.6921 71.8014 92.749L67.7666 94.749C67.7291 94.7685 67.6861 94.7782 67.643 94.7782ZM64.4805 94.2227H67.5778L70.4916 92.7782H67.3958L64.4805 94.2227Z" fill="#FFECE5"/>
<path d="M71.993 94.5L67.9542 96.5014H63.6069L67.643 94.5H71.993Z" fill="#F56630"/>
<path d="M67.9541 96.7796H63.6069C63.4778 96.7796 63.3653 96.6907 63.3361 96.5657C63.3069 96.4407 63.368 96.3102 63.4833 96.2532L67.5208 94.2518C67.5597 94.2324 67.6014 94.2227 67.6444 94.2227H71.993C72.1222 94.2227 72.2347 94.3115 72.2639 94.4365C72.293 94.5615 72.2319 94.6921 72.1166 94.749L68.0778 96.7504C68.0389 96.7699 67.9972 96.7796 67.9541 96.7796ZM64.7916 96.224H67.8889L70.8069 94.7782H67.7083L64.7916 96.224Z" fill="#FFECE5"/>
<path d="M76.0263 92.502L71.993 94.5006H67.643L71.6777 92.502H76.0263Z" fill="#F56630"/>
<path d="M71.993 94.7782H67.6444C67.5152 94.7782 67.4027 94.6893 67.3736 94.5643C67.3444 94.4393 67.4055 94.3088 67.5208 94.2518L71.5555 92.2518C71.5944 92.2324 71.6361 92.2227 71.6791 92.2227H76.0263C76.1555 92.2227 76.268 92.3115 76.2972 92.4365C76.3263 92.5615 76.2652 92.6921 76.15 92.749L72.1166 94.749C72.0777 94.7685 72.0361 94.7782 71.993 94.7782ZM68.8291 94.2227H71.9277L74.8402 92.7782H71.743L68.8291 94.2227Z" fill="#FFECE5"/>
<path d="M80.0625 90.5L76.0263 92.5014H71.6777L75.7152 90.5H80.0625Z" fill="#F56630"/>
<path d="M76.0263 92.7796H71.6791C71.55 92.7796 71.4375 92.6907 71.4083 92.5657C71.3791 92.4407 71.4402 92.3102 71.5555 92.2532L75.593 90.2518C75.6319 90.2324 75.6736 90.2227 75.7166 90.2227H80.0638C80.193 90.2227 80.3055 90.3116 80.3347 90.4366C80.3638 90.5616 80.3027 90.6921 80.1875 90.7491L76.15 92.7504C76.1111 92.7699 76.0694 92.7796 76.0263 92.7796ZM72.8638 92.224H75.9611L78.8777 90.7782H75.7805L72.8638 92.224Z" fill="#FFECE5"/>
<path d="M76.3389 94.5L72.3014 96.5014H67.9542L71.993 94.5H76.3389Z" fill="#F56630"/>
<path d="M72.3014 96.7796H67.9541C67.825 96.7796 67.7125 96.6907 67.6833 96.5657C67.6541 96.4407 67.7153 96.3102 67.8305 96.2532L71.8694 94.2518C71.9083 94.2324 71.95 94.2227 71.993 94.2227H76.3389C76.468 94.2227 76.5805 94.3115 76.6097 94.4365C76.6389 94.5615 76.5778 94.6921 76.4625 94.749L72.425 96.7504C72.3861 96.7699 72.3444 96.7796 72.3014 96.7796ZM69.1403 96.224H72.2361L75.1528 94.7782H72.0583L69.1403 96.224Z" fill="#FFECE5"/>
<path d="M80.3736 92.502L76.3389 94.5006H71.993L76.0264 92.502H80.3736Z" fill="#F56630"/>
<path d="M76.3389 94.7782H71.993C71.8639 94.7782 71.7514 94.6893 71.7222 94.5643C71.693 94.4393 71.7541 94.3088 71.8694 94.2518L75.9027 92.2518C75.9416 92.2324 75.9833 92.2227 76.0264 92.2227H80.3736C80.5027 92.2227 80.6152 92.3115 80.6444 92.4365C80.6736 92.5615 80.6125 92.6921 80.4972 92.749L76.4625 94.749C76.4236 94.7685 76.3819 94.7782 76.3389 94.7782ZM73.1777 94.2227H76.2722L79.1861 92.7782H76.0902L73.1777 94.2227Z" fill="#FFECE5"/>
<path d="M84.4097 90.5L80.3736 92.5014H76.0264L80.0625 90.5H84.4097Z" fill="#F56630"/>
<path d="M80.3736 92.7796H76.0264C75.8972 92.7796 75.7847 92.6907 75.7555 92.5657C75.7264 92.4407 75.7875 92.3102 75.9027 92.2532L79.9402 90.2518C79.9791 90.2324 80.0208 90.2227 80.0639 90.2227H84.4111C84.5402 90.2227 84.6527 90.3116 84.6819 90.4366C84.7111 90.5616 84.65 90.6921 84.5347 90.7491L80.4972 92.7504C80.4583 92.7699 80.4166 92.7796 80.3736 92.7796ZM77.2111 92.224H80.3083L83.225 90.7782H80.1277L77.2111 92.224Z" fill="#FFECE5"/>
<path d="M76.6486 96.501L72.6139 98.501H68.2681L72.3014 96.501H76.6486Z" fill="#F56630"/>
<path d="M72.6139 98.7792H68.2681C68.1389 98.7792 68.0264 98.6903 67.9972 98.5653C67.9681 98.4403 68.0292 98.3097 68.1444 98.2528L72.1778 96.2528C72.2167 96.2334 72.2583 96.2236 72.3014 96.2236H76.6486C76.7778 96.2236 76.8903 96.3125 76.9194 96.4375C76.9486 96.5625 76.8875 96.6931 76.7722 96.75L72.7375 98.75C72.6986 98.7695 72.6569 98.7792 72.6139 98.7792ZM69.4542 98.2236H72.5486L75.4625 96.7792H72.3667L69.4542 98.2236Z" fill="#FFECE5"/>
<path d="M80.6875 94.5L76.6486 96.5014H72.3014L76.3389 94.5H80.6875Z" fill="#F56630"/>
<path d="M76.6486 96.7796H72.3014C72.1722 96.7796 72.0597 96.6907 72.0305 96.5657C72.0014 96.4407 72.0625 96.3102 72.1778 96.2532L76.2153 94.2518C76.2542 94.2324 76.2958 94.2227 76.3389 94.2227H80.6875C80.8167 94.2227 80.9292 94.3115 80.9583 94.4365C80.9875 94.5615 80.9264 94.6921 80.8111 94.749L76.7722 96.7504C76.7347 96.7699 76.6917 96.7796 76.6486 96.7796ZM73.4875 96.224H76.5847L79.5028 94.7782H76.4042L73.4875 96.224Z" fill="#FFECE5"/>
<path d="M84.7208 92.502L80.6875 94.5006H76.3389L80.3736 92.502H84.7208Z" fill="#F56630"/>
<path d="M80.6875 94.7782H76.3389C76.2097 94.7782 76.0972 94.6893 76.068 94.5643C76.0389 94.4393 76.1 94.3088 76.2152 94.2518L80.25 92.2518C80.2888 92.2324 80.3305 92.2227 80.3736 92.2227H84.7208C84.85 92.2227 84.9625 92.3115 84.9916 92.4365C85.0208 92.5615 84.9597 92.6921 84.8444 92.749L80.8111 94.749C80.7722 94.7685 80.7305 94.7782 80.6875 94.7782ZM77.525 94.2227H80.6236L83.5361 92.7782H80.4388L77.525 94.2227Z" fill="#FFECE5"/>
<path d="M88.7583 90.5L84.7208 92.5014H80.3736L84.4097 90.5H88.7583Z" fill="#F56630"/>
<path d="M84.7208 92.7796H80.3736C80.2444 92.7796 80.1319 92.6907 80.1027 92.5657C80.0736 92.4407 80.1347 92.3102 80.25 92.2532L84.2875 90.2518C84.3264 90.2324 84.368 90.2227 84.4111 90.2227H88.7583C88.8875 90.2227 89 90.3116 89.0291 90.4366C89.0583 90.5616 88.9972 90.6921 88.8819 90.7491L84.8444 92.7504C84.8055 92.7699 84.7639 92.7796 84.7208 92.7796ZM81.5597 92.224H84.6569L87.5736 90.7782H84.4764L81.5597 92.224Z" fill="#FFECE5"/>
<path d="M80.9972 96.501L76.9638 98.501H72.6138L76.6486 96.501H80.9972Z" fill="#F56630"/>
<path d="M76.9638 98.7792H72.6152C72.4861 98.7792 72.3736 98.6903 72.3444 98.5653C72.3152 98.4403 72.3763 98.3097 72.4916 98.2528L76.5263 96.2528C76.5652 96.2334 76.6069 96.2236 76.6499 96.2236H80.9972C81.1263 96.2236 81.2388 96.3125 81.268 96.4375C81.2972 96.5625 81.2361 96.6931 81.1208 96.75L77.0861 98.75C77.0486 98.7695 77.0055 98.7792 76.9638 98.7792ZM73.7999 98.2236H76.8985L79.8111 96.7792H76.7138L73.7999 98.2236Z" fill="#FFECE5"/>
<path d="M85.0333 94.5L80.9972 96.5014H76.6486L80.6875 94.5H85.0333Z" fill="#F56630"/>
<path d="M80.9972 96.7796H76.6499C76.5208 96.7796 76.4083 96.6907 76.3791 96.5657C76.3499 96.4407 76.4111 96.3102 76.5263 96.2532L80.5652 94.2518C80.6041 94.2324 80.6458 94.2227 80.6888 94.2227H85.0347C85.1638 94.2227 85.2763 94.3115 85.3055 94.4365C85.3347 94.5615 85.2736 94.6921 85.1583 94.749L81.1208 96.7504C81.0819 96.7699 81.0388 96.7796 80.9972 96.7796ZM77.8347 96.224H80.9305L83.8472 94.7782H80.7527L77.8347 96.224Z" fill="#FFECE5"/>
<path d="M85.3444 96.501L81.3097 98.501H76.9639L80.9972 96.501H85.3444Z" fill="#F56630"/>
<path d="M81.3097 98.7792H76.9639C76.8347 98.7792 76.7222 98.6903 76.693 98.5653C76.6639 98.4403 76.725 98.3097 76.8402 98.2528L80.8736 96.2528C80.9125 96.2334 80.9541 96.2236 80.9972 96.2236H85.3444C85.4736 96.2236 85.5861 96.3125 85.6152 96.4375C85.6444 96.5625 85.5833 96.6931 85.468 96.75L81.4319 98.75C81.3944 98.7695 81.3513 98.7792 81.3097 98.7792ZM78.1486 98.2236H81.243L84.1569 96.7792H81.0611L78.1486 98.2236Z" fill="#FFECE5"/>
<path d="M89.3833 94.5L85.3444 96.5014H80.9972L85.0333 94.5H89.3833Z" fill="#F56630"/>
<path d="M85.3444 96.7796H80.9972C80.868 96.7796 80.7555 96.6907 80.7263 96.5657C80.6972 96.4407 80.7583 96.3102 80.8736 96.2532L84.9111 94.2518C84.95 94.2324 84.9916 94.2227 85.0347 94.2227H89.3833C89.5125 94.2227 89.625 94.3115 89.6541 94.4365C89.6833 94.5615 89.6222 94.6921 89.5069 94.749L85.468 96.7504C85.4291 96.7699 85.3875 96.7796 85.3444 96.7796ZM82.1819 96.224H85.2791L88.1972 94.7782H85.0986L82.1819 96.224Z" fill="#FFECE5"/>
<path d="M97.4527 90.5L93.4166 92.5014H89.068L93.1055 90.5H97.4527Z" fill="#F56630"/>
<path d="M93.4166 92.7796H89.0694C88.9402 92.7796 88.8277 92.6907 88.7985 92.5657C88.7694 92.4407 88.8305 92.3102 88.9458 92.2532L92.9833 90.2518C93.0222 90.2324 93.0638 90.2227 93.1069 90.2227H97.4541C97.5833 90.2227 97.6958 90.3116 97.7249 90.4366C97.7541 90.5616 97.693 90.6921 97.5777 90.7491L93.5402 92.7504C93.5013 92.7699 93.4583 92.7796 93.4166 92.7796ZM90.2541 92.224H93.3513L96.268 90.7782H93.1708L90.2541 92.224Z" fill="#FFECE5"/>
<path d="M89.6916 96.501L85.6583 98.501H81.3097L85.3444 96.501H89.6916Z" fill="#F56630"/>
<path d="M85.6583 98.7792H81.3097C81.1805 98.7792 81.068 98.6903 81.0388 98.5653C81.0097 98.4403 81.0708 98.3097 81.1861 98.2528L85.2208 96.2528C85.2597 96.2334 85.3013 96.2236 85.3444 96.2236H89.6916C89.8208 96.2236 89.9333 96.3125 89.9625 96.4375C89.9916 96.5625 89.9305 96.6931 89.8152 96.75L85.7819 98.75C85.743 98.7695 85.7013 98.7792 85.6583 98.7792ZM82.4958 98.2236H85.5944L88.5069 96.7792H85.4097L82.4958 98.2236Z" fill="#FFECE5"/>
<path d="M93.7291 94.5L89.6917 96.5014H85.3444L89.3833 94.5H93.7291Z" fill="#F56630"/>
<path d="M89.6916 96.7796H85.3444C85.2152 96.7796 85.1027 96.6907 85.0736 96.5657C85.0444 96.4407 85.1055 96.3102 85.2208 96.2532L89.2597 94.2518C89.2986 94.2324 89.3402 94.2227 89.3833 94.2227H93.7291C93.8583 94.2227 93.9708 94.3115 94 94.4365C94.0291 94.5615 93.968 94.6921 93.8527 94.749L89.8152 96.7504C89.7763 96.7699 89.7347 96.7796 89.6916 96.7796ZM86.5305 96.224H89.6263L92.543 94.7782H89.4486L86.5305 96.224Z" fill="#FFECE5"/>
<path d="M97.7638 92.502L93.7291 94.5006H89.3833H85.0333H80.6874L84.7208 92.502H89.068H93.4166H97.7638Z" fill="#F56630"/>
<path d="M93.7291 94.7782H80.6888C80.5597 94.7782 80.4472 94.6893 80.418 94.5643C80.3888 94.4393 80.4499 94.3088 80.5652 94.2518L84.5985 92.2518C84.6374 92.2324 84.6791 92.2227 84.7222 92.2227H97.7652C97.8944 92.2227 98.0069 92.3115 98.036 92.4365C98.0652 92.5615 98.0041 92.6921 97.8888 92.749L93.8541 94.749C93.8138 94.7685 93.7708 94.7782 93.7291 94.7782ZM81.8735 94.2227H93.6638L96.5777 92.7782H84.7861L81.8735 94.2227Z" fill="#FFECE5"/>
<path d="M101.8 90.5L97.7639 92.5014H93.4166L97.4527 90.5H101.8Z" fill="#F56630"/>
<path d="M97.7638 92.7796H93.4166C93.2874 92.7796 93.1749 92.6907 93.1458 92.5657C93.1166 92.4407 93.1777 92.3102 93.293 92.2532L97.3305 90.2518C97.3694 90.2324 97.411 90.2227 97.4541 90.2227H101.801C101.93 90.2227 102.043 90.3116 102.072 90.4366C102.101 90.5616 102.04 90.6921 101.925 90.7491L97.8874 92.7504C97.8485 92.7699 97.8069 92.7796 97.7638 92.7796ZM94.6013 92.224H97.6986L100.615 90.7782H97.518L94.6013 92.224Z" fill="#FFECE5"/>
<path d="M94.0389 96.501L90.0042 98.501H85.6583L89.6917 96.501H94.0389Z" fill="#F56630"/>
<path d="M90.0041 98.7792H85.6583C85.5291 98.7792 85.4166 98.6903 85.3875 98.5653C85.3583 98.4403 85.4194 98.3097 85.5347 98.2528L89.568 96.2528C89.6069 96.2334 89.6486 96.2236 89.6916 96.2236H94.0389C94.168 96.2236 94.2805 96.3125 94.3097 96.4375C94.3389 96.5625 94.2778 96.6931 94.1625 96.75L90.1278 98.75C90.0889 98.7695 90.0472 98.7792 90.0041 98.7792ZM86.8444 98.2236H89.9389L92.8528 96.7792H89.7569L86.8444 98.2236Z" fill="#FFECE5"/>
<path d="M102.111 92.502L98.0777 94.5006H93.7291L97.7639 92.502H102.111Z" fill="#F56630"/>
<path d="M98.0777 94.7782H93.7291C93.5999 94.7782 93.4874 94.6893 93.4583 94.5643C93.4291 94.4393 93.4902 94.3088 93.6055 94.2518L97.6402 92.2518C97.6791 92.2324 97.7208 92.2227 97.7638 92.2227H102.111C102.24 92.2227 102.353 92.3115 102.382 92.4365C102.411 92.5615 102.35 92.6921 102.235 92.749L98.2013 94.749C98.1624 94.7685 98.1208 94.7782 98.0777 94.7782ZM94.9152 94.2227H98.0138L100.926 92.7782H97.8291L94.9152 94.2227Z" fill="#FFECE5"/>
<path d="M106.149 90.5L102.111 92.5014H97.7639L101.8 90.5H106.149Z" fill="#F56630"/>
<path d="M102.111 92.7796H97.7638C97.6347 92.7796 97.5222 92.6907 97.493 92.5657C97.4638 92.4407 97.525 92.3102 97.6402 92.2532L101.678 90.2518C101.717 90.2324 101.758 90.2227 101.801 90.2227H106.149C106.278 90.2227 106.39 90.3116 106.419 90.4366C106.449 90.5616 106.387 90.6921 106.272 90.7491L102.235 92.7504C102.196 92.7699 102.154 92.7796 102.111 92.7796ZM98.9486 92.224H102.046L104.962 90.7782H101.865L98.9486 92.224Z" fill="#FFECE5"/>
<path d="M58.3236 90.5L54.2861 92.5014H49.9402L53.9777 90.5H58.3236Z" fill="#F56630"/>
<path d="M54.2861 92.7796H49.9402C49.8111 92.7796 49.6986 92.6907 49.6694 92.5657C49.6402 92.4407 49.7013 92.3102 49.8166 92.2532L53.8541 90.2518C53.893 90.2324 53.9347 90.2227 53.9777 90.2227H58.3236C58.4527 90.2227 58.5652 90.3116 58.5944 90.4366C58.6236 90.5616 58.5625 90.6921 58.4472 90.7491L54.4097 92.7504C54.3722 92.7699 54.3291 92.7796 54.2861 92.7796ZM51.1263 92.224H54.2208L57.1375 90.7782H54.043L51.1263 92.224Z" fill="#FFECE5"/>
<path d="M53.9778 90.5L49.9403 92.5014H45.5917L49.6292 90.5H53.9778Z" fill="#F56630"/>
<path d="M49.9403 92.7796H45.5917C45.4625 92.7796 45.35 92.6907 45.3208 92.5657C45.2917 92.4407 45.3528 92.3102 45.468 92.2532L49.5055 90.2518C49.5444 90.2324 49.5861 90.2227 49.6292 90.2227H53.9778C54.1069 90.2227 54.2194 90.3116 54.2486 90.4366C54.2778 90.5616 54.2167 90.6921 54.1014 90.7491L50.0639 92.7504C50.0264 92.7699 49.9833 92.7796 49.9403 92.7796ZM46.7778 92.224H49.8764L52.793 90.7782H49.6944L46.7778 92.224Z" fill="#FFECE5"/>
<path d="M71.368 90.5L67.3305 92.5014H62.9819L67.018 90.5H71.368Z" fill="#F56630"/>
<path d="M67.3305 92.7796H62.9819C62.8528 92.7796 62.7403 92.6907 62.7111 92.5657C62.6819 92.4407 62.743 92.3102 62.8583 92.2532L66.8958 90.2518C66.9347 90.2324 66.9764 90.2227 67.0194 90.2227H71.368C71.4972 90.2227 71.6097 90.3116 71.6389 90.4366C71.668 90.5616 71.6069 90.6921 71.4916 90.7491L67.4541 92.7504C67.4166 92.7699 67.3736 92.7796 67.3305 92.7796ZM64.168 92.224H67.2666L70.1833 90.7782H67.0833L64.168 92.224Z" fill="#FFECE5"/>
<path d="M75.7153 90.5L71.6778 92.5014H67.3306L71.3681 90.5H75.7153Z" fill="#F56630"/>
<path d="M71.6778 92.7796H67.3306C67.2014 92.7796 67.0889 92.6907 67.0597 92.5657C67.0306 92.4407 67.0917 92.3102 67.2069 92.2532L71.2444 90.2518C71.2833 90.2324 71.325 90.2227 71.368 90.2227H75.7153C75.8444 90.2227 75.9569 90.3116 75.9861 90.4366C76.0153 90.5616 75.9542 90.6921 75.8389 90.7491L71.8014 92.7504C71.7639 92.7699 71.7208 92.7796 71.6778 92.7796ZM68.5167 92.224H71.6139L74.5306 90.7782H71.4333L68.5167 92.224Z" fill="#FFECE5"/>
<path d="M50.5625 96.501L46.5292 98.501H42.1819L46.2167 96.501H50.5625Z" fill="#F56630"/>
<path d="M46.5292 98.7792H42.1819C42.0528 98.7792 41.9403 98.6903 41.9111 98.5653C41.8819 98.4403 41.943 98.3097 42.0583 98.2528L46.093 96.2528C46.1319 96.2334 46.1736 96.2236 46.2167 96.2236H50.5625C50.6916 96.2236 50.8042 96.3125 50.8333 96.4375C50.8625 96.5625 50.8014 96.6931 50.6861 96.75L46.6528 98.75C46.6139 98.7695 46.5722 98.7792 46.5292 98.7792ZM43.368 98.2236H46.4639L49.3764 96.7792H46.2819L43.368 98.2236Z" fill="#FFECE5"/>
<path d="M122.386 53.9844L110.762 87.8358H50.7028L53.2972 80.2552H67.5069L77.118 53.9844H122.386Z" fill="#FFECE5"/>
<path d="M110.762 88.1483H50.7028C50.6014 88.1483 50.5069 88.0997 50.4486 88.0177C50.3903 87.9358 50.375 87.8302 50.4069 87.7344L53.0014 80.1538C53.0444 80.0274 53.1639 79.9427 53.2972 79.9427H67.2875L76.825 53.8774C76.8694 53.7538 76.9875 53.6719 77.118 53.6719H122.385C122.486 53.6719 122.581 53.7205 122.639 53.8024C122.697 53.8844 122.712 53.9899 122.681 54.0858L111.057 87.9358C111.014 88.0635 110.896 88.1483 110.762 88.1483ZM51.1389 87.5233H110.539L121.949 54.2983H77.3375L67.8 80.3622C67.7555 80.4858 67.6375 80.5677 67.5069 80.5677H53.5208L51.1389 87.5233Z" fill="#FFECE5"/>
<path d="M125.35 52.5479L112.781 89.2715H47.7416L50.8277 80.2548H53.2972L50.7028 87.8354H110.762L122.386 53.984H77.118L77.6444 52.5479H125.35Z" fill="#F56630"/>
<path d="M112.781 89.5835H47.7416C47.6403 89.5835 47.5458 89.5349 47.4875 89.453C47.4292 89.3711 47.4139 89.2655 47.4458 89.1697L50.5319 80.153C50.575 80.0266 50.6944 79.9419 50.8278 79.9419H53.2972C53.3986 79.9419 53.493 79.9905 53.5514 80.0724C53.6097 80.1544 53.625 80.2599 53.593 80.3558L51.1403 87.5224H110.54L121.95 54.2974H77.118C77.0166 54.2974 76.9208 54.2474 76.8625 54.1641C76.8041 54.0808 76.7903 53.9738 76.825 53.878L77.35 52.4419C77.3944 52.3183 77.5125 52.2363 77.643 52.2363H125.349C125.45 52.2363 125.544 52.2849 125.603 52.3669C125.661 52.4488 125.676 52.5544 125.644 52.6502L113.075 89.3738C113.032 89.4988 112.914 89.5835 112.781 89.5835ZM48.1792 88.9585H112.557L124.912 52.8599H77.8625L77.5653 53.671H122.385C122.486 53.671 122.581 53.7197 122.639 53.8016C122.697 53.8835 122.712 53.9891 122.681 54.0849L111.057 87.9349C111.014 88.0613 110.894 88.1461 110.761 88.1461H50.7028C50.6014 88.1461 50.5069 88.0974 50.4486 88.0155C50.3903 87.9336 50.375 87.828 50.4069 87.7322L52.8597 80.5655H51.0514L48.1792 88.9585Z" fill="#FFECE5"/>
<path d="M112.781 89.2715L116.099 93.4895L86.8597 107.376V102.401L112.781 89.2715Z" fill="#FA9874"/>
<path d="M86.8597 107.688C86.8014 107.688 86.7431 107.672 86.6931 107.64C86.6028 107.583 86.5472 107.483 86.5472 107.376V102.401C86.5472 102.283 86.6139 102.176 86.7181 102.122L112.639 88.9925C112.772 88.9259 112.933 88.9606 113.026 89.0786L116.344 93.2967C116.403 93.3717 116.425 93.4689 116.403 93.562C116.381 93.655 116.318 93.7328 116.232 93.7731L86.9931 107.659C86.9514 107.677 86.9056 107.688 86.8597 107.688ZM87.1722 102.593V106.881L115.611 93.3759L112.693 89.6661L87.1722 102.593Z" fill="#FFECE5"/>
<path d="M67.9945 32.9065C67.9945 32.8482 67.9917 32.7912 67.9861 32.7343C67.9847 32.7259 67.9847 32.7176 67.9834 32.7093C67.9778 32.6662 67.9722 32.6232 67.9639 32.5815C67.9625 32.5732 67.9584 32.5662 67.957 32.5579C67.9472 32.5093 67.9334 32.4634 67.9181 32.4162C67.9125 32.4009 67.9111 32.3843 67.9056 32.369C67.9042 32.3648 67.9028 32.362 67.9014 32.3579C67.8931 32.3343 67.8806 32.3107 67.8709 32.2884C67.8597 32.262 67.8486 32.2343 67.8361 32.2079C67.8334 32.2023 67.8306 32.1982 67.8278 32.1926C67.8195 32.1759 67.8084 32.1607 67.7986 32.144C67.7847 32.1204 67.7722 32.0968 67.7584 32.0745C67.7472 32.0579 67.7361 32.0426 67.725 32.0259L65.2695 28.6787C65.2972 28.7162 65.3209 28.7565 65.3445 28.7968C65.3542 28.8134 65.3639 28.8287 65.3736 28.8454C65.3903 28.8759 65.4028 28.9093 65.4167 28.9412C65.4264 28.9648 65.4375 28.987 65.4472 29.0107C65.4542 29.0301 65.4584 29.0495 65.4653 29.069C65.4806 29.1148 65.4945 29.162 65.5042 29.2107C65.5153 29.2607 65.5236 29.3107 65.5306 29.362C65.532 29.3704 65.532 29.3787 65.5334 29.387C65.5389 29.4426 65.5417 29.5009 65.5417 29.5593C65.5417 29.5648 65.5417 29.5704 65.5417 29.5759C65.5403 29.637 65.5361 29.6982 65.5292 29.7607C65.5278 29.7732 65.5264 29.7843 65.525 29.7968C65.5167 29.8593 65.5056 29.9218 65.4903 29.9857C65.4875 29.9968 65.4847 30.0079 65.482 30.019C65.4653 30.0857 65.4472 30.1537 65.4236 30.2218C65.3931 30.3107 65.357 30.3982 65.3167 30.4843C65.3111 30.4968 65.3042 30.5107 65.2972 30.5232C65.257 30.6051 65.2139 30.6857 65.1653 30.7648C65.1653 30.7648 65.1653 30.7648 65.1653 30.7662C65.1195 30.8412 65.0681 30.9148 65.0139 30.987C65 31.0065 64.9847 31.0259 64.9709 31.044C64.9278 31.0995 64.8834 31.1537 64.8375 31.2065C64.8264 31.219 64.8167 31.2315 64.807 31.2426C64.7514 31.3037 64.6931 31.3634 64.6334 31.4218C64.6181 31.437 64.6014 31.4509 64.5861 31.4648C64.5389 31.5079 64.4903 31.5509 64.4417 31.5912C64.4222 31.6079 64.4028 31.6232 64.382 31.6398C64.3222 31.687 64.2611 31.7329 64.1986 31.7773C64.1903 31.7829 64.1834 31.7884 64.175 31.794C64.1014 31.844 64.0264 31.8912 63.95 31.9357C63.9306 31.9468 63.9125 31.9565 63.8931 31.9676C63.8125 32.012 63.7306 32.0551 63.6472 32.0926C63.6417 32.0954 63.6375 32.0982 63.632 32.0995C63.6153 32.1065 63.5986 32.1134 63.5834 32.1204C63.5389 32.1398 63.4945 32.1579 63.45 32.1759C63.4264 32.1843 63.4042 32.1926 63.3806 32.1995C63.3431 32.2134 63.3042 32.2259 63.2653 32.2384C63.2278 32.2495 63.1903 32.2593 63.1514 32.2704C63.1236 32.2773 63.0945 32.2857 63.0667 32.2926C63.0264 32.3023 62.9875 32.3093 62.9472 32.3162C62.9209 32.3218 62.8945 32.3273 62.8681 32.3315C62.8236 32.3384 62.7792 32.3426 62.7361 32.3482C62.7139 32.3509 62.6917 32.3537 62.6695 32.3565C62.6028 32.362 62.5361 32.3648 62.4709 32.3648C62.3875 32.3648 62.3084 32.3593 62.2306 32.3509C61.7556 31.794 61.2334 31.262 60.8681 30.7634C60.8625 30.8329 60.8639 30.8995 60.8667 30.9662C60.8667 30.9801 60.8681 30.994 60.8681 31.0079C60.8722 31.0718 60.8806 31.1343 60.8917 31.1954C60.8917 31.1982 60.8917 31.2023 60.8931 31.2051C60.8945 31.212 60.8972 31.2176 60.8986 31.2232C60.9125 31.2884 60.9292 31.3523 60.9514 31.4134C60.9528 31.4162 60.9528 31.419 60.9542 31.4218C60.9542 31.4232 60.9556 31.4232 60.9556 31.4245C60.9736 31.4732 60.9945 31.5218 61.0181 31.5676C61.0209 31.5718 61.0222 31.5773 61.0236 31.5815C61.0278 31.5912 61.0347 31.5995 61.0403 31.6093C61.0556 31.637 61.0722 31.6648 61.0889 31.6912C61.0931 31.6982 61.0972 31.7065 61.1028 31.7148C61.1139 31.7301 61.125 31.7468 61.1361 31.762L62.2361 33.262L63.5917 35.1093C63.8639 35.4801 64.3292 35.7093 64.9278 35.7093C64.9945 35.7093 65.0597 35.7065 65.1264 35.7009C65.1486 35.6995 65.1709 35.6954 65.1931 35.6926C65.2375 35.6884 65.2806 35.6829 65.325 35.6759C65.3514 35.6718 65.3778 35.6662 65.4042 35.6607C65.4445 35.6537 65.4847 35.6454 65.5236 35.637C65.5514 35.6301 65.5806 35.6218 65.6084 35.6148C65.6459 35.6051 65.6847 35.5954 65.7222 35.5829C65.7278 35.5815 65.7334 35.5801 65.7389 35.5787C65.7722 35.569 65.8042 35.5565 65.8361 35.544C65.8597 35.5357 65.882 35.5287 65.9056 35.5204C65.95 35.5037 65.9945 35.4843 66.0389 35.4648C66.0556 35.4579 66.0722 35.4523 66.0875 35.444C66.0889 35.444 66.0903 35.4426 66.0917 35.4426C66.0959 35.4412 66.0986 35.4384 66.1028 35.437C66.1861 35.3995 66.2681 35.3565 66.3486 35.312C66.3597 35.3065 66.3709 35.3009 66.3806 35.2954C66.3889 35.2912 66.3972 35.2843 66.4056 35.2801C66.482 35.2357 66.557 35.1884 66.6306 35.1384C66.632 35.137 66.6334 35.137 66.6347 35.1357C66.6417 35.1315 66.6472 35.1259 66.6542 35.1218C66.7167 35.0787 66.7778 35.0329 66.8375 34.9843C66.8459 34.9773 66.8556 34.9704 66.8653 34.9634C66.8764 34.9551 66.8861 34.9454 66.8972 34.9357C66.9472 34.894 66.9945 34.8523 67.0417 34.8079C67.0528 34.7982 67.0653 34.7884 67.0764 34.7773C67.0806 34.7732 67.0847 34.769 67.0889 34.7648C67.1486 34.7065 67.207 34.6482 67.2625 34.5857C67.2653 34.5829 67.2681 34.5801 67.2709 34.5773C67.2792 34.5676 67.2861 34.5579 67.2945 34.5495C67.3403 34.4968 67.3847 34.4426 67.4278 34.387C67.4361 34.3773 67.4445 34.3676 67.4528 34.3579C67.4597 34.3495 67.4653 34.3398 67.4709 34.3301C67.5236 34.2579 67.575 34.1843 67.6222 34.1093C67.6709 34.0301 67.7139 33.9495 67.7542 33.8676C67.7611 33.8551 67.7667 33.8426 67.7736 33.8287C67.7778 33.819 67.7834 33.8093 67.7875 33.7995C67.8222 33.7232 67.8542 33.6454 67.8806 33.5662C67.9042 33.4982 67.9236 33.4301 67.9389 33.3634C67.9417 33.3523 67.9445 33.3412 67.9472 33.3301C67.9611 33.2662 67.9736 33.2037 67.982 33.1412C67.9834 33.1287 67.9847 33.1176 67.9861 33.1051C67.9931 33.0426 67.9986 32.9801 67.9986 32.9204C67.9945 32.9176 67.9945 32.912 67.9945 32.9065Z" fill="#F77A4A"/>
<path d="M64.9195 36.0257C64.2389 36.0257 63.675 35.7674 63.3306 35.2979L60.875 31.9507C60.875 31.9493 60.8736 31.9493 60.8736 31.9479C60.8598 31.9299 60.8473 31.9104 60.8348 31.8924C60.8264 31.8813 60.8209 31.8688 60.8139 31.8577C60.7959 31.8299 60.7764 31.7966 60.757 31.7618C60.7514 31.7535 60.7445 31.741 60.7375 31.7285C60.7348 31.7216 60.7292 31.7118 60.7264 31.7035C60.6986 31.6479 60.6764 31.5952 60.657 31.5438C60.6556 31.5382 60.6528 31.5341 60.6514 31.5285C60.65 31.5229 60.6473 31.5174 60.6459 31.5118C60.6236 31.4466 60.6042 31.3771 60.5875 31.3021C60.5848 31.291 60.582 31.2799 60.5792 31.2688C60.5778 31.2632 60.5764 31.2549 60.5764 31.2479C60.5639 31.1799 60.5556 31.1091 60.55 31.0341L60.5473 30.9924C60.5431 30.8952 60.5445 30.8202 60.5486 30.7452C60.5584 30.6146 60.6486 30.5035 60.7736 30.4674C60.9 30.4313 61.0348 30.4771 61.1125 30.5827C61.3403 30.8938 61.6348 31.2229 61.9473 31.5702C62.0889 31.7271 62.2334 31.8896 62.3764 32.0535C62.4653 32.0577 62.55 32.0549 62.6361 32.0479L62.6959 32.041C62.7431 32.0354 62.7778 32.0327 62.8125 32.0271C62.8236 32.0257 62.8361 32.0229 62.8486 32.0202L62.9014 32.0091C62.9306 32.0035 62.9598 31.9979 62.9889 31.991C63.0042 31.9868 63.0195 31.9827 63.0348 31.9785L63.0848 31.9646C63.1125 31.9577 63.1389 31.9507 63.1667 31.941C63.2 31.9299 63.2334 31.9188 63.2667 31.9063L63.332 31.8841C63.3723 31.8688 63.4125 31.8507 63.4528 31.8341L63.5111 31.8091C63.5806 31.7771 63.6542 31.7396 63.7348 31.6952L63.7875 31.666C63.8653 31.6202 63.932 31.5785 63.9931 31.5368C63.9959 31.5354 64.0125 31.5229 64.0153 31.5216C64.0723 31.4813 64.1278 31.4396 64.1834 31.3966C64.2014 31.3827 64.2195 31.3674 64.2375 31.3521C64.282 31.3146 64.3264 31.2757 64.3695 31.2368L64.4125 31.1979C64.4667 31.1452 64.5209 31.091 64.5709 31.0354L64.5986 31.0021C64.6403 30.9549 64.6806 30.9049 64.7195 30.8549C64.7334 30.8382 64.7459 30.8202 64.7584 30.8035C64.8139 30.7271 64.857 30.6646 64.8945 30.6049C64.8959 30.6035 64.8959 30.6021 64.8973 30.6007C64.9361 30.5382 64.9736 30.4688 65.0125 30.3882L65.0292 30.3535C65.0681 30.2716 65.0986 30.1966 65.1236 30.1229C65.1417 30.0702 65.1584 30.0118 65.175 29.9466C65.175 29.9452 65.1792 29.9313 65.1792 29.9313L65.182 29.9174C65.1945 29.8632 65.2042 29.8104 65.2111 29.7577L65.2139 29.7354C65.2209 29.6757 65.225 29.6229 65.225 29.5729V29.5591C65.225 29.5118 65.2223 29.4646 65.2181 29.4188C65.2181 29.416 65.2167 29.4035 65.2167 29.4007C65.2125 29.3563 65.2042 29.3174 65.1959 29.2771C65.1875 29.2396 65.1764 29.2021 65.1653 29.166L65.1556 29.1327C65.1486 29.1118 65.1445 29.1035 65.1417 29.0952L65.1223 29.0507C65.1139 29.0313 65.1056 29.0118 65.0959 28.9924L65.0736 28.9549C65.0556 28.9243 65.0375 28.8938 65.0167 28.8646C64.9153 28.7257 64.9445 28.5299 65.0834 28.4285C65.2223 28.3271 65.4181 28.3563 65.5195 28.4952L67.975 31.8424C67.9889 31.8618 68.0028 31.8813 68.0167 31.9021C68.032 31.9243 68.0445 31.9466 68.057 31.9702L68.075 32.0007C68.0834 32.0132 68.0903 32.0271 68.0986 32.041C68.1042 32.0493 68.1084 32.0577 68.1139 32.0674C68.1264 32.0924 68.1375 32.1188 68.1486 32.1452L68.1653 32.1841C68.1736 32.2035 68.1834 32.2229 68.1903 32.2424C68.1931 32.2507 68.1973 32.2591 68.2 32.2646C68.207 32.2841 68.2125 32.3035 68.2167 32.3229C68.2334 32.3757 68.2486 32.4285 68.2611 32.4841C68.2653 32.4979 68.2681 32.5104 68.2709 32.5229C68.2806 32.5729 68.2875 32.6243 68.2945 32.6757C68.2945 32.6799 68.2959 32.6966 68.2973 32.7007C68.3042 32.7729 68.307 32.8396 68.307 32.9063C68.307 32.9118 68.307 32.9243 68.307 32.9285C68.3056 32.9952 68.3014 33.066 68.2917 33.1452L68.2861 33.1868C68.2764 33.2591 68.2639 33.3327 68.2473 33.4035L68.2403 33.4313C68.2167 33.5257 68.1945 33.6021 68.1709 33.6729C68.1417 33.7604 68.1056 33.8479 68.0667 33.9341L68.0361 33.9966C67.982 34.1091 67.9334 34.1966 67.8848 34.2771C67.882 34.2813 67.8806 34.2841 67.8778 34.2882C67.8292 34.366 67.7806 34.4382 67.7181 34.5216C67.7125 34.5299 67.7056 34.541 67.6973 34.5507C67.6889 34.5604 67.6806 34.5716 67.6723 34.5813C67.6236 34.6438 67.575 34.7021 67.525 34.7604C67.5167 34.7716 67.5084 34.7813 67.5 34.791C67.4959 34.7966 67.4875 34.8049 67.482 34.8091C67.432 34.8646 67.3681 34.9313 67.3 34.9952C67.3 34.9966 67.2931 35.0035 67.2861 35.0091C67.2764 35.0188 67.2653 35.0271 67.2556 35.0368C67.1973 35.0896 67.1459 35.1354 67.0917 35.1799C67.0778 35.1924 67.0681 35.2007 67.0584 35.2091C67.0486 35.2174 67.0389 35.2243 67.0292 35.2313C66.9625 35.2841 66.8973 35.3341 66.8292 35.3813C66.825 35.3854 66.8167 35.391 66.8098 35.3966C66.807 35.3993 66.8028 35.4007 66.7986 35.4035C66.7264 35.4535 66.6473 35.5021 66.5584 35.5535C66.5514 35.5591 66.5403 35.5646 66.5306 35.5702C66.5195 35.5771 66.5084 35.5827 66.4959 35.5882C66.4028 35.6396 66.3167 35.6841 66.2334 35.7216C66.2264 35.7243 66.2195 35.7285 66.2153 35.7299C66.1973 35.7382 66.1848 35.7424 66.1709 35.7479L66.157 35.7535C66.1084 35.7743 66.0598 35.7952 66.0111 35.8132C65.9931 35.8202 65.975 35.8257 65.9584 35.8327L65.9084 35.8507C65.882 35.8604 65.8542 35.8702 65.8278 35.8785C65.8223 35.8799 65.8098 35.8841 65.8042 35.8854C65.7736 35.8952 65.7361 35.9049 65.7 35.9146L65.6584 35.9257C65.6361 35.9327 65.6125 35.9382 65.5903 35.9438C65.5528 35.9521 65.5139 35.9604 65.4764 35.9674L65.432 35.9757C65.4111 35.9799 65.3889 35.9841 65.3681 35.9882C65.3236 35.9952 65.2778 36.0007 65.2334 36.0049L65.2 36.0091C65.182 36.0118 65.1639 36.0132 65.1459 36.0146C65.0695 36.0229 64.9945 36.0257 64.9195 36.0257ZM63.8361 34.9285C64.0598 35.2327 64.4445 35.4007 64.9209 35.4007C64.9778 35.4007 65.0361 35.3979 65.0945 35.3938L65.1542 35.3868C65.2014 35.3813 65.2348 35.3785 65.2695 35.3729C65.282 35.3716 65.2945 35.3688 65.307 35.366L65.3611 35.3549C65.3903 35.3493 65.4181 35.3438 65.4473 35.3368C65.4625 35.3341 65.4764 35.3299 65.4917 35.3257L65.5403 35.3118C65.5681 35.3049 65.5973 35.2966 65.625 35.2882C65.6292 35.2868 65.6431 35.2827 65.6473 35.2813C65.6584 35.2771 65.6778 35.2702 65.6973 35.2632L65.7917 35.2299C65.832 35.2146 65.8723 35.1979 65.9125 35.1799L65.957 35.1618C65.9556 35.1618 65.9639 35.1577 65.9723 35.1549C66.0403 35.1229 66.1139 35.0868 66.1959 35.041C66.2056 35.0354 66.2167 35.0299 66.2278 35.0243C66.2306 35.0216 66.2389 35.016 66.2486 35.0118C66.3264 34.9674 66.3931 34.9243 66.4542 34.8827C66.4556 34.8813 66.457 34.8799 66.4598 34.8799C66.4653 34.8757 66.4736 34.8702 66.4778 34.8674C66.5334 34.8285 66.5903 34.7868 66.6445 34.7424C66.6528 34.7354 66.6611 34.7299 66.6695 34.7229C66.6806 34.7118 66.6889 34.7049 66.6986 34.6979C66.7445 34.6604 66.7875 34.6216 66.8306 34.5813C66.8389 34.5743 66.8473 34.566 66.857 34.5591C66.8611 34.5549 66.8695 34.5466 66.8736 34.5424C66.9278 34.4896 66.9806 34.4354 67.032 34.3799C67.0334 34.3785 67.0361 34.3743 67.0389 34.3716C67.0473 34.3618 67.0528 34.3535 67.0598 34.3466C67.1014 34.2993 67.1417 34.2493 67.1806 34.1993C67.1875 34.191 67.1945 34.1813 67.2014 34.1729C67.2056 34.166 67.2125 34.1563 67.2195 34.1466C67.275 34.0716 67.3181 34.0077 67.3556 33.9479C67.3556 33.9466 67.357 33.9466 67.357 33.9452C67.3959 33.8827 67.4334 33.8132 67.4723 33.7327L67.5 33.6757C67.532 33.6049 67.5598 33.5354 67.5834 33.4674C67.6014 33.4146 67.6181 33.3563 67.6348 33.291C67.6348 33.2896 67.6389 33.2757 67.6389 33.2757C67.6542 33.2077 67.6639 33.1549 67.6709 33.1021L67.6736 33.0799C67.6806 33.0202 67.6848 32.9688 67.6848 32.9174V32.9035C67.6848 32.8563 67.682 32.8091 67.6778 32.7632C67.6778 32.7604 67.6764 32.7479 67.6764 32.7452C67.6723 32.7118 67.6681 32.6813 67.6625 32.6521C67.6598 32.6424 67.657 32.6327 67.6542 32.6216C67.6459 32.5841 67.6348 32.5466 67.6236 32.5104C67.6195 32.4979 67.6153 32.4841 67.6125 32.4716C67.6111 32.4688 67.6111 32.4674 67.6098 32.4646C67.607 32.4563 67.6028 32.4479 67.5986 32.4382L67.5723 32.3771C67.5695 32.3688 67.5667 32.3618 67.5625 32.3549C67.5598 32.3493 67.5556 32.3438 67.5528 32.3382L67.5153 32.2743C67.5098 32.266 67.5056 32.2563 67.5 32.2479C67.4917 32.2354 67.4834 32.2229 67.4736 32.2104L65.8153 29.9493C65.8084 29.9841 65.8014 30.0188 65.7945 30.0535L65.7875 30.0813C65.7639 30.1757 65.7431 30.2507 65.7181 30.3216C65.6861 30.416 65.6459 30.5118 65.5986 30.6146L65.5834 30.6452C65.5292 30.7563 65.4806 30.8452 65.432 30.9257C65.4306 30.9271 65.4292 30.9299 65.4278 30.9313C65.3806 31.0063 65.3292 31.0827 65.2653 31.1702C65.25 31.191 65.2334 31.2118 65.2181 31.2327C65.1709 31.2924 65.1223 31.3521 65.0723 31.4104L65.0625 31.4216C65.0542 31.4313 65.0459 31.441 65.0375 31.4507C64.9792 31.516 64.9153 31.5813 64.8473 31.6452L64.7959 31.6924C64.7445 31.7396 64.6917 31.7854 64.6389 31.8299C64.6181 31.8479 64.5959 31.8646 64.575 31.8827C64.5098 31.9341 64.4445 31.9841 64.3764 32.0313L64.35 32.0493C64.2764 32.0993 64.1973 32.1493 64.1056 32.2021L64.0431 32.2368C63.9473 32.2896 63.8598 32.3354 63.775 32.3729L63.7584 32.3813C63.7459 32.3868 63.732 32.3924 63.7195 32.3979L63.7042 32.4035C63.6556 32.4243 63.607 32.4452 63.5584 32.4632C63.5403 32.4702 63.5223 32.4757 63.5042 32.4827L63.482 32.4896C63.4375 32.5049 63.3973 32.5202 63.3556 32.5327C63.3209 32.5438 63.2848 32.5535 63.25 32.5632L63.207 32.5743C63.1834 32.5813 63.1611 32.5868 63.1375 32.5924C63.1 32.6007 63.0611 32.6091 63.0236 32.616L62.9792 32.6243C62.9584 32.6285 62.9375 32.6327 62.9167 32.6368C62.8709 32.6438 62.825 32.6493 62.7792 32.6535L62.7473 32.6577C62.7292 32.6604 62.7111 32.6618 62.6931 32.6632C62.5292 32.6771 62.3723 32.6771 62.1945 32.6563C62.1875 32.6549 62.182 32.6549 62.1764 32.6535L63.8361 34.9285Z" fill="#FFECE5"/>
<path d="M63.9319 28.0791C65.1597 28.0791 65.8264 29.0388 65.4194 30.2222C65.3555 30.4097 65.268 30.5916 65.1625 30.7652C64.5986 31.686 63.4972 32.3666 62.4639 32.3666C61.4305 32.3666 60.7958 31.686 60.8611 30.7652C60.8736 30.5916 60.9111 30.4097 60.975 30.2222C61.3819 29.0388 62.7055 28.0791 63.9319 28.0791Z" fill="#FA9874"/>
<path d="M62.4653 32.6781C61.868 32.6781 61.3472 32.4726 60.9986 32.0976C60.6722 31.7476 60.5139 31.2656 60.5514 30.742C60.5666 30.5392 60.6097 30.3295 60.6819 30.1198C61.1333 28.799 62.5611 27.7656 63.9333 27.7656C64.6222 27.7656 65.1916 28.0295 65.5333 28.5101C65.8833 29.0003 65.9486 29.6448 65.7166 30.3226C65.6472 30.5281 65.55 30.7309 65.4305 30.9267C64.7986 31.9587 63.5791 32.6781 62.4653 32.6781ZM63.9319 28.392C62.8291 28.392 61.6361 29.2587 61.2722 30.324C61.218 30.4823 61.1847 30.6392 61.1736 30.7878C61.1486 31.142 61.2458 31.4476 61.4555 31.6726C61.6875 31.9226 62.0361 32.0531 62.4639 32.0531C63.3722 32.0531 64.3722 31.4559 64.8958 30.6017C64.9916 30.4448 65.068 30.2837 65.1236 30.1212C65.2889 29.6392 65.2528 29.1962 65.0236 28.874C64.8028 28.5628 64.4139 28.392 63.9319 28.392Z" fill="#FFECE5"/>
<path d="M43.2028 33.6953H45.5292C42.1694 43.0536 38.5153 52.3689 32.9139 61.8175L43.2028 33.6953Z" fill="#F56630"/>
<path d="M32.9139 62.1304C32.8694 62.1304 32.8236 62.1207 32.7806 62.0999C32.6347 62.0304 32.5653 61.8624 32.6208 61.7096L42.9097 33.5874C42.9542 33.4638 43.0722 33.3818 43.2028 33.3818H45.5292C45.6306 33.3818 45.7264 33.4318 45.7847 33.5152C45.8431 33.5985 45.8569 33.7054 45.8236 33.7999C42.0792 44.2304 38.4958 53.0138 33.1833 61.9763C33.1236 62.0749 33.0208 62.1304 32.9139 62.1304ZM43.4208 34.0082L34.4792 58.4485C38.7264 50.7332 41.8528 42.9791 45.0833 34.0082H43.4208Z" fill="#FFECE5"/>
<path d="M74.8292 30.7656L77.2848 34.1128L76.282 37.0434L73.8264 33.6962L74.8292 30.7656Z" fill="#F77A4A"/>
<path d="M76.282 37.3554C76.1834 37.3554 76.0889 37.3082 76.0306 37.2277L73.575 33.8805C73.5139 33.7985 73.4986 33.6916 73.532 33.5943L74.5361 30.6638C74.5736 30.5541 74.6695 30.4735 74.7847 30.4555C74.9 30.4388 75.0153 30.486 75.0834 30.5791L77.5389 33.9263C77.6 34.0082 77.6153 34.1152 77.582 34.2124L76.5778 37.1429C76.5403 37.2527 76.4445 37.3332 76.3292 37.3513C76.3125 37.3541 76.2972 37.3554 76.282 37.3554ZM74.175 33.6416L76.1792 36.3749L76.9361 34.1652L74.932 31.4318L74.175 33.6416Z" fill="#FFECE5"/>
<path d="M74.8292 30.7656L73.825 33.6962L72.6264 37.1948H50.3694L51.5681 33.6962L52.5722 30.7656H60.8639C60.7972 31.6865 61.4333 32.367 62.4667 32.367C63.5 32.367 64.6014 31.6865 65.1653 30.7656H74.8292Z" fill="#FA9874"/>
<path d="M72.6278 37.5073H50.3695C50.2681 37.5073 50.1736 37.4587 50.1153 37.3767C50.057 37.2948 50.0417 37.1892 50.0736 37.0934L52.275 30.6642C52.3181 30.5378 52.4375 30.4531 52.5708 30.4531H60.8625C60.9486 30.4531 61.032 30.4892 61.0917 30.5531C61.1514 30.617 61.1806 30.7017 61.175 30.7878C61.15 31.142 61.2472 31.4476 61.457 31.6726C61.6889 31.9226 62.0375 32.0531 62.4653 32.0531C63.3736 32.0531 64.3736 31.4559 64.8972 30.6017C64.9542 30.5087 65.0556 30.4531 65.1639 30.4531H74.8306C74.932 30.4531 75.0264 30.5017 75.0847 30.5837C75.1431 30.6656 75.1583 30.7712 75.1264 30.867L72.925 37.2962C72.8806 37.4226 72.7611 37.5073 72.6278 37.5073ZM50.807 36.8823H72.4056L74.3931 31.0781H65.3333C64.6806 32.0281 63.525 32.6795 62.4653 32.6795C61.8681 32.6795 61.3472 32.474 60.9986 32.099C60.7431 31.8253 60.5903 31.4698 60.5542 31.0781H52.7945L50.807 36.8823Z" fill="#FFECE5"/>
<path d="M73.8264 33.6963H79.3347C74.2125 49.0768 69.5916 65.4963 61.5736 74.881H28.1347H23.85C27.3833 70.488 30.3528 66.1393 32.9139 61.8185C38.5153 52.3699 42.1694 43.0546 45.5291 33.6963H51.568L50.3694 37.1949H72.6278L73.8264 33.6963ZM68.4416 48.2685L68.625 47.1199H45.2278L45.0444 48.2685H68.4416ZM66.9819 51.9324L67.1653 50.7838H43.768L43.5847 51.9324H66.9819ZM65.5222 55.5935L65.7055 54.4449H42.3069L42.1236 55.5935H65.5222ZM69.9014 44.606L70.0847 43.4574H46.6889L46.5055 44.606H69.9014Z" fill="#FFECE5"/>
<path d="M61.5722 75.1921H23.85C23.7292 75.1921 23.6194 75.1227 23.568 75.0143C23.5167 74.906 23.5305 74.7768 23.6069 74.6838C26.975 70.4977 29.9319 66.2366 32.6458 61.6588C37.9333 52.7407 41.5028 43.988 45.2347 33.5907C45.2792 33.4671 45.3972 33.3838 45.5292 33.3838H51.568C51.6694 33.3838 51.7639 33.4324 51.8222 33.5143C51.8805 33.5963 51.8958 33.7018 51.8639 33.7977L50.8069 36.8824H72.4055L73.5319 33.5949C73.575 33.4685 73.6944 33.3838 73.8278 33.3838H79.3361C79.4361 33.3838 79.5305 33.4324 79.5903 33.513C79.6486 33.5949 79.6653 33.6991 79.6333 33.7949C78.9764 35.7699 78.3153 37.7949 77.6764 39.7546C73.3333 53.0796 68.8417 66.8574 61.8125 75.0838C61.7514 75.1518 61.6639 75.1921 61.5722 75.1921ZM24.5 74.5671H61.4278C68.3236 66.4227 72.7736 52.7671 77.0792 39.5602C77.6736 37.7352 78.2875 35.8532 78.9 34.0074H74.0486L72.9222 37.2949C72.8792 37.4213 72.7597 37.506 72.6264 37.506H50.3694C50.268 37.506 50.1736 37.4574 50.1153 37.3755C50.0569 37.2935 50.0417 37.188 50.0736 37.0921L51.1306 34.0074H45.7486C42.0306 44.3491 38.4597 53.0741 33.1833 61.9768C30.5625 66.3963 27.718 70.5213 24.5 74.5671ZM65.5222 55.906H42.1236C42.0319 55.906 41.9458 55.8657 41.8861 55.7963C41.8264 55.7268 41.8014 55.6352 41.8153 55.5449L41.9986 54.3963C42.0222 54.2449 42.1542 54.1324 42.3069 54.1324H65.7042C65.7958 54.1324 65.8819 54.1727 65.9417 54.2421C66.0014 54.3116 66.0264 54.4032 66.0125 54.4935L65.8292 55.6421C65.8055 55.7949 65.675 55.906 65.5222 55.906ZM42.4903 55.281H65.2555L65.3389 54.7574H42.5736L42.4903 55.281ZM66.9819 52.2449H43.5847C43.493 52.2449 43.4069 52.2046 43.3472 52.1352C43.2875 52.0657 43.2625 51.9741 43.2764 51.8838L43.4597 50.7352C43.4833 50.5838 43.6153 50.4713 43.768 50.4713H67.1653C67.2569 50.4713 67.343 50.5116 67.4028 50.581C67.4625 50.6505 67.4875 50.7421 67.4736 50.8324L67.2903 51.981C67.2667 52.1324 67.1361 52.2449 66.9819 52.2449ZM43.95 51.6199H66.7153L66.7986 51.0963H44.0347L43.95 51.6199ZM68.4417 48.581H45.0444C44.9528 48.581 44.8667 48.5407 44.8069 48.4713C44.7472 48.4018 44.7222 48.3102 44.7361 48.2199L44.9194 47.0713C44.9431 46.9199 45.075 46.8074 45.2278 46.8074H68.625C68.7167 46.8074 68.8028 46.8477 68.8625 46.9171C68.9222 46.9866 68.9472 47.0782 68.9333 47.1685L68.75 48.3171C68.7264 48.4699 68.5958 48.581 68.4417 48.581ZM45.4111 47.956H68.1764L68.2597 47.4324H45.4944L45.4111 47.956ZM69.9014 44.9185H46.5055C46.4139 44.9185 46.3278 44.8782 46.268 44.8088C46.2083 44.7393 46.1833 44.6477 46.1972 44.5574L46.3805 43.4088C46.4042 43.2574 46.5361 43.1449 46.6889 43.1449H70.0847C70.1764 43.1449 70.2625 43.1852 70.3222 43.2546C70.3819 43.3241 70.4069 43.4157 70.393 43.506L70.2097 44.6546C70.1861 44.8074 70.0555 44.9185 69.9014 44.9185ZM46.8708 44.2935H69.6347L69.718 43.7699H46.9542L46.8708 44.2935Z" fill="#FFECE5"/>
<path d="M67.8431 81.1465H53.0472H51.0889H25.8417L28.2972 84.4937H53.5431H55.5028H70.2986L67.8431 81.1465Z" fill="#F77A4A"/>
<path d="M70.2986 84.8062H28.2972C28.1972 84.8062 28.1042 84.759 28.0458 84.6784L25.5903 81.3312C25.5208 81.2368 25.5097 81.1104 25.5639 81.0048C25.6181 80.8993 25.725 80.834 25.8431 80.834H67.8444C67.9444 80.834 68.0375 80.8812 68.0958 80.9618L70.5514 84.309C70.6208 84.4034 70.6319 84.5298 70.5778 84.6354C70.5236 84.7395 70.4167 84.8062 70.2986 84.8062ZM28.4556 84.1812H69.6819L67.6847 81.459H26.4583L28.4556 84.1812Z" fill="#FFECE5"/>
<path d="M85.2055 33.6953L75.8875 59.1606L75.4708 60.2995L67.843 81.1453L70.2986 84.4925L77.9264 63.6467L78.343 62.5078L87.6611 37.0425L85.2055 33.6953Z" fill="#FA9874"/>
<path d="M70.2986 84.8055C70.2 84.8055 70.1055 84.7583 70.0472 84.6777L67.5916 81.3305C67.5291 81.2458 67.5139 81.1361 67.55 81.0388L84.9125 33.5874C84.9528 33.4791 85.0486 33.4013 85.1625 33.386C85.2764 33.3694 85.3903 33.418 85.4583 33.511L87.9139 36.8583C87.9764 36.943 87.9917 37.0527 87.9555 37.1499L70.5916 84.5999C70.5528 84.7083 70.4555 84.7861 70.3416 84.8013C70.3278 84.8041 70.3125 84.8055 70.2986 84.8055ZM68.1944 81.0958L70.2055 83.8374L87.3097 37.0916L85.2986 34.3499L68.1944 81.0958Z" fill="#FFECE5"/>
<path d="M79.3333 33.6953H85.2236L75.9055 59.1606L75.4888 60.2995L67.8611 81.1453H53.0472H51.0874H25.8416L28.1347 74.8786H61.5722C69.5902 65.4939 74.2125 49.0759 79.3333 33.6953Z" fill="#F56630"/>
<path d="M67.8625 81.4582H25.8416C25.7402 81.4582 25.6444 81.4082 25.5861 81.3249C25.5277 81.2416 25.5139 81.1346 25.5486 81.0388L27.8416 74.7721C27.8861 74.6485 28.0041 74.5666 28.1347 74.5666H61.4277C68.3222 66.4221 72.7736 52.7666 77.0791 39.5596C77.718 37.5999 78.3791 35.5735 79.0375 33.5957C79.0805 33.4679 79.2 33.3818 79.3333 33.3818H85.2236C85.325 33.3818 85.4208 33.4318 85.4791 33.5152C85.5375 33.5985 85.5514 33.7054 85.5166 33.8013L68.1555 81.2527C68.1111 81.3763 67.993 81.4582 67.8625 81.4582ZM26.2889 80.8332H67.6444L84.7778 34.0082H79.5597C78.925 35.9152 78.2902 37.8652 77.6736 39.7541C73.3305 53.0791 68.8389 66.8568 61.8097 75.0832C61.75 75.1527 61.6639 75.1929 61.5722 75.1929H28.3527L26.2889 80.8332Z" fill="#FFECE5"/>
<path d="M61.5723 74.8799H28.1348H23.85L26.3042 78.2271H30.5889H64.0278L61.5723 74.8799Z" fill="#FA9874"/>
<path d="M64.0278 78.5396H26.3042C26.2042 78.5396 26.1111 78.4924 26.0528 78.4118L23.5972 75.0646C23.5278 74.9702 23.5167 74.8438 23.5708 74.7382C23.6236 74.6327 23.732 74.5674 23.85 74.5674H61.5736C61.6736 74.5674 61.7667 74.6146 61.825 74.6952L64.2806 78.0424C64.35 78.1368 64.3611 78.2632 64.307 78.3688C64.2528 78.4743 64.1458 78.5396 64.0278 78.5396ZM26.4625 77.9146H63.4097L61.4125 75.1924H24.4667L26.4625 77.9146Z" fill="#FFECE5"/>
<path d="M68.7875 71.2395C68.8458 71.1353 68.9028 71.0298 68.9611 70.9242C69.0972 70.6784 69.2305 70.4312 69.3653 70.1812C69.4278 70.0631 69.4903 69.9451 69.5528 69.827C69.6917 69.5645 69.8278 69.2992 69.9639 69.0312C70.0125 68.9353 70.0611 68.8423 70.1097 68.7464C70.2917 68.3867 70.4708 68.0228 70.6486 67.6562C70.6847 67.5812 70.7194 67.5062 70.7555 67.4312C70.8986 67.1339 71.0403 66.8339 71.1805 66.5312C71.2389 66.4076 71.2958 66.2826 71.3528 66.1576C71.4111 66.0298 71.4708 65.9034 71.5292 65.7756C71.568 65.6909 71.6055 65.6034 71.643 65.5187C71.8028 65.1631 71.9625 64.8048 72.1194 64.4437C72.1819 64.302 72.2444 64.1603 72.3055 64.0187C72.5194 63.5201 72.7333 63.0187 72.943 62.5103C72.9708 62.4437 72.9986 62.3742 73.0264 62.3076C73.2097 61.8617 73.3916 61.4117 73.5722 60.9589C73.6389 60.7923 73.7042 60.6256 73.7694 60.4576C73.9139 60.0895 74.0583 59.7187 74.2014 59.3464C74.2667 59.1742 74.3333 59.0034 74.3986 58.8312C74.5611 58.4034 74.7222 57.9728 74.8833 57.5409C74.9222 57.4381 74.9597 57.3353 74.9986 57.2326C75.1958 56.6964 75.3916 56.1576 75.5861 55.6159C75.6389 55.4701 75.6903 55.3214 75.743 55.1756C75.8875 54.7714 76.0305 54.3659 76.1736 53.9589C76.2389 53.7742 76.3028 53.5881 76.368 53.402C76.5055 53.0062 76.643 52.6103 76.7792 52.2131C76.8347 52.052 76.8903 51.8909 76.9458 51.7284C77.1333 51.177 77.3208 50.6256 77.5069 50.0701C77.5222 50.0242 77.5375 49.977 77.5528 49.9312C77.7264 49.4131 77.9 48.8951 78.0722 48.3742C78.1333 48.1895 78.1944 48.0048 78.2555 47.8201C78.3861 47.4242 78.5167 47.0284 78.6472 46.6312C78.7097 46.4423 78.7722 46.252 78.8333 46.0631C78.9805 45.6159 79.1264 45.1687 79.2722 44.7214C79.3097 44.6048 79.3486 44.4895 79.3861 44.3728C79.5986 43.7201 79.8125 43.0673 80.025 42.4145C80.1694 41.9728 80.3139 41.5298 80.4583 41.0881C80.5208 40.8951 80.5847 40.7034 80.6472 40.5103C80.7805 40.1034 80.9139 39.6978 81.0472 39.2923C81.1055 39.1131 81.1653 38.9339 81.2236 38.7548C81.4111 38.1839 81.6 37.6145 81.7889 37.0464L79.3333 33.6992C79.1444 34.2673 78.9555 34.8353 78.768 35.4062C78.7083 35.5867 78.65 35.7673 78.5903 35.9464C78.4569 36.352 78.3236 36.7562 78.1916 37.1617C78.1291 37.3548 78.0653 37.5464 78.0028 37.7395C77.8583 38.1812 77.7139 38.6228 77.5694 39.0659C77.3569 39.7187 77.1444 40.3714 76.9305 41.0242C76.893 41.1409 76.8542 41.2562 76.8167 41.3728C76.6708 41.8214 76.5236 42.2687 76.3778 42.7159C76.3153 42.9048 76.2542 43.0923 76.1917 43.2812C76.0611 43.6798 75.9292 44.0784 75.7986 44.4756C75.7375 44.6589 75.6778 44.8423 75.6167 45.0242C75.443 45.5464 75.2694 46.0687 75.0944 46.5895C75.0792 46.6326 75.0653 46.677 75.05 46.7214C74.8639 47.2756 74.6764 47.827 74.4889 48.3784C74.4333 48.5423 74.3778 48.7034 74.3208 48.8673C74.1847 49.2645 74.0472 49.6603 73.9097 50.0562C73.8458 50.2423 73.7805 50.427 73.7153 50.6117C73.5722 51.0187 73.4292 51.4228 73.2847 51.827C73.2319 51.9742 73.1792 52.1228 73.1264 52.2701C72.9319 52.8117 72.7361 53.3492 72.5389 53.8853C72.5 53.9909 72.4611 54.0937 72.4222 54.1992C72.2625 54.6298 72.1014 55.0589 71.9389 55.4853C71.8736 55.6576 71.8069 55.8298 71.7416 56.0006C71.5986 56.3728 71.4542 56.7437 71.3097 57.1117C71.2444 57.2784 71.1778 57.4464 71.1125 57.6131C70.9319 58.0659 70.75 58.5159 70.5666 58.9617C70.5389 59.0284 70.5111 59.0978 70.4833 59.1645C70.2736 59.6728 70.0611 60.1742 69.8458 60.6728C69.7847 60.8159 69.7222 60.9562 69.6597 61.0992C69.5028 61.4603 69.3444 61.8187 69.1833 62.1742C69.0861 62.3881 68.9903 62.602 68.893 62.8145C68.8361 62.9395 68.7778 63.0645 68.7208 63.1881C68.5805 63.4895 68.4389 63.7895 68.2958 64.0867C68.2597 64.1617 68.2236 64.2381 68.1875 64.3131C68.0097 64.6812 67.8305 65.0451 67.6486 65.4048C67.6014 65.4992 67.5528 65.5923 67.5042 65.6867C67.368 65.9548 67.2305 66.2214 67.0917 66.4839C67.0292 66.602 66.9666 66.7201 66.9041 66.8381C66.7708 67.0881 66.6361 67.3353 66.5 67.5812C66.4416 67.6867 66.3847 67.7923 66.3264 67.8964C66.1347 68.2395 65.9416 68.5784 65.7458 68.9117C65.7389 68.9242 65.7319 68.9353 65.725 68.9464C65.5375 69.2645 65.3486 69.5784 65.1583 69.8881C65.0833 70.0103 65.0069 70.1298 64.9305 70.2506C64.7972 70.4617 64.6639 70.6728 64.5291 70.8798C64.4472 71.0062 64.3639 71.1326 64.2805 71.2576C64.1486 71.4562 64.0153 71.6534 63.8805 71.8478C63.7958 71.9701 63.7111 72.0937 63.6264 72.2145C63.4861 72.4131 63.3458 72.6076 63.2042 72.802C63.1236 72.9117 63.043 73.0228 62.9625 73.1326C62.8097 73.3367 62.6555 73.5353 62.5 73.7339C62.4236 73.8312 62.3486 73.9312 62.2722 74.027C62.0403 74.3187 61.8055 74.6034 61.5667 74.8826L64.0222 78.2298C64.2611 77.9506 64.4958 77.6645 64.7278 77.3742C64.8042 77.2784 64.8791 77.1784 64.9555 77.0812C65.0819 76.9187 65.2097 76.7589 65.3347 76.5937C65.3625 76.5562 65.3903 76.5173 65.418 76.4798C65.5 76.3714 65.5792 76.2603 65.6597 76.1492C65.8014 75.9548 65.943 75.7603 66.0819 75.5617C66.1667 75.4409 66.2514 75.3173 66.3361 75.1951C66.4694 75.0006 66.6028 74.8034 66.7347 74.6048C66.818 74.4798 66.9014 74.3534 66.9847 74.2256C67.1194 74.0187 67.2528 73.8089 67.3847 73.5978C67.4611 73.477 67.5375 73.3562 67.6125 73.2339C67.6389 73.1895 67.6666 73.1478 67.6944 73.1034C67.8583 72.8367 68.0194 72.5659 68.1805 72.2923C68.1875 72.2798 68.1944 72.2687 68.2014 72.2576C68.4041 71.9214 68.5958 71.5826 68.7875 71.2395Z" fill="#FCD2C2"/>
<path d="M64.0278 78.5394C64.0236 78.5394 64.0195 78.5394 64.0167 78.5394C63.9208 78.5352 63.8333 78.4894 63.7764 78.4116L61.3208 75.0644C61.2347 74.9477 61.2417 74.7866 61.3347 74.6769C61.5583 74.4144 61.7875 74.138 62.0333 73.8297C62.0792 73.7727 62.125 73.713 62.1695 73.6547L62.2583 73.5394C62.4125 73.3422 62.5653 73.1449 62.7167 72.9436C62.7736 72.8672 62.8292 72.7908 62.8861 72.713L62.957 72.6158C63.0972 72.4227 63.2375 72.2297 63.3764 72.0324C63.4611 71.9116 63.5458 71.7908 63.6292 71.6686C63.7625 71.4755 63.8945 71.2797 64.0264 71.0824C64.1097 70.9574 64.1917 70.8338 64.2736 70.7074C64.407 70.5019 64.5403 70.2922 64.6722 70.0824L64.7375 69.9783C64.7917 69.8936 64.8445 69.8088 64.8972 69.7227C65.1042 69.3866 65.2889 69.0797 65.4611 68.7866L65.482 68.7519C65.6583 68.4505 65.8472 68.1199 66.0583 67.7408C66.0972 67.6699 66.1375 67.5991 66.1764 67.5269L66.2306 67.4269C66.3653 67.1824 66.5 66.9352 66.632 66.6866C66.6945 66.5699 66.757 66.4519 66.8195 66.3338C66.957 66.0713 67.0945 65.8061 67.2306 65.5394L67.2889 65.4255C67.3167 65.3699 67.3458 65.3144 67.3736 65.2588C67.557 64.8936 67.7375 64.5283 67.9111 64.1713L68.0181 63.9463C68.1597 63.6505 68.3014 63.3519 68.4417 63.0505C68.4945 62.938 68.5458 62.8255 68.5986 62.7116L68.6139 62.6783C68.7111 62.4672 68.807 62.2533 68.9042 62.0394C69.0639 61.6852 69.2222 61.3283 69.3778 60.9686L69.4458 60.813C69.4847 60.7241 69.5236 60.6338 69.5625 60.5449C69.7903 60.0172 69.9972 59.5255 70.1972 59.0408L70.2792 58.838C70.4625 58.3936 70.6431 57.9449 70.8236 57.4936C70.8764 57.363 70.9278 57.2311 70.9792 57.0991L71.0208 56.9936C71.1653 56.6255 71.3097 56.2561 71.4528 55.8838L71.4778 55.8186C71.5347 55.6686 71.5931 55.5186 71.65 55.3686C71.8125 54.9436 71.9722 54.5144 72.132 54.0838L72.2486 53.7713C72.4458 53.2366 72.6403 52.6991 72.8347 52.1588L72.9931 51.7158C73.1375 51.313 73.2806 50.9074 73.4222 50.5019L73.6153 49.9463C73.7528 49.5519 73.8889 49.1561 74.025 48.7588L74.1931 48.2713C74.3806 47.7213 74.5681 47.1699 74.7542 46.6158L74.7986 46.4852C74.9736 45.9644 75.1472 45.4436 75.3208 44.9213L75.5028 44.3727C75.6347 43.9755 75.7653 43.5769 75.8958 43.1783L76.082 42.613C76.2292 42.1658 76.375 41.7186 76.5208 41.2699L77.8945 37.0602C78.0278 36.6547 78.1597 36.2491 78.2931 35.8436L78.4708 35.3033C78.6583 34.7324 78.8472 34.163 79.0361 33.5963C79.0736 33.4852 79.1681 33.4047 79.2847 33.3866C79.4 33.3686 79.5167 33.4158 79.5847 33.5102L82.0403 36.8574C82.1 36.9394 82.1167 37.0449 82.0847 37.1408C81.8958 37.7088 81.707 38.2783 81.5195 38.8477L81.3431 39.3852C81.2097 39.7908 81.0764 40.1963 80.9431 40.6033L79.5695 44.813C79.4236 45.2616 79.2764 45.7088 79.1306 46.1561L78.9445 46.7241C78.8139 47.1213 78.6833 47.5172 78.5528 47.913L78.3695 48.4672C78.1972 48.988 78.0236 49.5074 77.85 50.0241L77.8028 50.163C77.6167 50.7186 77.4292 51.2713 77.2403 51.8227L77.0736 52.3074C76.9375 52.7061 76.8 53.1019 76.6625 53.4977L76.4681 54.0547C76.325 54.463 76.182 54.8686 76.0375 55.2741L75.8806 55.7158C75.6861 56.2588 75.4889 56.7991 75.2917 57.3352L75.1764 57.6436C75.0153 58.0769 74.8542 58.5074 74.6917 58.9366C74.6347 59.0866 74.5764 59.2366 74.5195 59.3866L74.4945 59.4533C74.3514 59.8269 74.207 60.1977 74.0611 60.5672L74.0195 60.6741C73.9681 60.8061 73.9153 60.938 73.8639 61.0686C73.6833 61.5227 73.5014 61.9727 73.3167 62.4199L73.2333 62.6241C73.032 63.1102 72.8236 63.6047 72.5945 64.1366C72.5556 64.2269 72.5167 64.3172 72.4764 64.4061L72.4083 64.563C72.25 64.9255 72.0917 65.2852 71.9306 65.6422L71.8792 65.7602C71.8583 65.8074 71.8375 65.8547 71.8167 65.9005C71.7806 65.9797 71.7445 66.0561 71.7083 66.1338L71.6167 66.3311C71.5667 66.4408 71.5167 66.5505 71.4653 66.6588C71.3236 66.963 71.182 67.263 71.0375 67.563L70.9306 67.788C70.757 68.1463 70.575 68.5144 70.3903 68.8838C70.3611 68.9422 70.332 68.9991 70.3028 69.0561L70.2445 69.1699C70.1083 69.438 69.9695 69.7047 69.832 69.9686C69.7695 70.088 69.7056 70.2061 69.6431 70.3255C69.5083 70.5769 69.3736 70.8255 69.2375 71.0727L69.1833 71.1713C69.1431 71.2435 69.1042 71.3172 69.0639 71.3894C68.85 71.7713 68.6597 72.1047 68.4806 72.4102L68.4583 72.4463C68.2972 72.7213 68.1347 72.9935 67.9708 73.2616L67.8889 73.3922C67.8347 73.4797 67.7806 73.5658 67.7264 73.6533L67.6597 73.7588C67.5264 73.9713 67.3931 74.1824 67.257 74.3908C67.1736 74.5186 67.0903 74.6449 67.0056 74.7727C66.8722 74.9727 66.7389 75.1713 66.6042 75.3672C66.5195 75.4908 66.4333 75.6144 66.3472 75.7366C66.207 75.9366 66.0639 76.1338 65.9208 76.3283L65.85 76.4255C65.7931 76.5047 65.7347 76.5824 65.6778 76.6602L65.6403 76.7102C65.625 76.7324 65.6083 76.7533 65.5931 76.7741C65.5 76.8977 65.4056 77.0172 65.3111 77.138L65.1236 77.3783C65.0764 77.4394 65.0292 77.5019 64.9806 77.5616C64.7306 77.8741 64.4972 78.1574 64.2681 78.4255C64.2056 78.4991 64.1195 78.5394 64.0278 78.5394ZM61.9708 74.8936L64.0458 77.7213C64.1889 77.5491 64.3361 77.3685 64.4903 77.1755C64.5361 77.1185 64.582 77.0588 64.6264 77.0005L64.8167 76.7561C64.9083 76.6394 65 76.5213 65.0917 76.4019L65.175 76.2894C65.232 76.2144 65.2875 76.138 65.3431 76.0602L65.4153 75.9616C65.5556 75.7686 65.6958 75.5755 65.8347 75.3783C65.9195 75.2574 66.0042 75.1366 66.0875 75.0144C66.2208 74.8213 66.3528 74.6255 66.4833 74.4283C66.5667 74.3033 66.6486 74.1783 66.7306 74.0519C66.8639 73.8463 66.9958 73.638 67.1278 73.4283L67.1945 73.3213C67.2472 73.2366 67.3014 73.1519 67.3542 73.0658L67.4347 72.9366C67.5972 72.6713 67.7583 72.4019 67.9167 72.1297L67.9375 72.0936C68.1139 71.7922 68.3028 71.4616 68.5139 71.0838C68.5528 71.013 68.5931 70.9422 68.632 70.8699L68.6875 70.7699C68.8222 70.5255 68.957 70.2783 69.0889 70.0297C69.1514 69.913 69.2139 69.7949 69.2764 69.6769C69.4139 69.4158 69.55 69.1505 69.6861 68.8852L69.7458 68.7699C69.775 68.7144 69.8028 68.6588 69.832 68.6019C70.0167 68.2366 70.1972 67.8699 70.3681 67.5158L70.475 67.2922C70.6181 66.9949 70.7583 66.6963 70.8986 66.3949C70.9486 66.2866 70.9986 66.1783 71.0486 66.0699L71.1403 65.8699C71.175 65.7936 71.2111 65.7172 71.2458 65.6408C71.2653 65.5963 71.2847 65.5519 71.3056 65.5074C71.3236 65.4658 71.3417 65.4241 71.3597 65.3838C71.5195 65.0297 71.6778 64.6713 71.8347 64.3116L71.9042 64.1533C71.9431 64.0644 71.982 63.9769 72.0208 63.8866C72.2486 63.3574 72.457 62.8658 72.6556 62.3824L72.7375 62.1797C72.9208 61.7352 73.1014 61.2866 73.282 60.8352C73.3333 60.7047 73.3847 60.5741 73.4361 60.4436L73.4778 60.3352C73.6222 59.9672 73.7667 59.5977 73.9097 59.2255L73.9347 59.1588C73.9917 59.0102 74.05 58.8602 74.107 58.7102C74.2695 58.2838 74.4306 57.8533 74.5903 57.4227L74.7056 57.1144C74.9028 56.5797 75.0986 56.0408 75.2931 55.5005L75.45 55.0602C75.5945 54.6561 75.7375 54.2519 75.8806 53.8449L76.075 53.2894C76.2125 52.8949 76.3486 52.4977 76.4847 52.1019L76.6514 51.6186C76.8389 51.0686 77.0264 50.5158 77.2125 49.9616L77.2583 49.8227C77.432 49.3061 77.6042 48.7866 77.7764 48.2672L77.9597 47.713C78.0903 47.3172 78.2208 46.9213 78.3514 46.5241L78.5375 45.9561C78.6833 45.5088 78.8306 45.0616 78.9764 44.6144L80.35 40.4047C80.4833 39.9977 80.6167 39.5922 80.75 39.1866L80.9264 38.6491C81.0972 38.1297 81.2695 37.6102 81.4417 37.0936L79.4403 34.3644C79.3153 34.7408 79.1903 35.1186 79.0667 35.4963L78.8889 36.0366C78.7556 36.4408 78.6236 36.8463 78.4903 37.2519L77.1167 41.4616C76.9708 41.9102 76.8236 42.3574 76.6778 42.8047L76.4917 43.3699C76.3611 43.7686 76.2292 44.1672 76.0972 44.5644L75.9153 45.113C75.7417 45.6366 75.5681 46.1588 75.3931 46.6797L75.3486 46.8116C75.1625 47.3658 74.975 47.9186 74.7875 48.4699L74.6195 48.9588C74.4833 49.3561 74.3458 49.7533 74.2083 50.1491L74.0139 50.7047C73.8708 51.1116 73.7278 51.5172 73.5833 51.9213L73.425 52.3658C73.2306 52.9074 73.0347 53.4477 72.8375 53.9824L72.7208 54.2963C72.5611 54.7283 72.4 55.1588 72.2375 55.5852C72.1806 55.7366 72.1222 55.8866 72.0639 56.0366L72.0389 56.1019C71.8958 56.4755 71.7514 56.8463 71.6056 57.2158L71.5639 57.3213C71.5111 57.4533 71.4597 57.5866 71.407 57.7186C71.2264 58.1727 71.0445 58.6227 70.8597 59.0699L70.7764 59.2741C70.575 59.7616 70.3653 60.2561 70.1375 60.7866C70.0986 60.8783 70.0583 60.9686 70.0181 61.0588L69.95 61.213C69.7917 61.5755 69.6333 61.9338 69.4722 62.2908C69.375 62.5061 69.2778 62.7213 69.1806 62.9338L69.1667 62.9727C69.1139 63.0866 69.0611 63.2005 69.0083 63.3144C68.8667 63.6172 68.725 63.9186 68.582 64.2172L68.4736 64.4449C68.3 64.8047 68.1181 65.1727 67.932 65.5408C67.9028 65.5977 67.8736 65.6547 67.8445 65.7116L67.7875 65.8241C67.65 66.0936 67.5125 66.3602 67.3736 66.6255C67.3111 66.7449 67.2472 66.863 67.1847 66.9811C67.05 67.2324 66.9153 67.4811 66.7792 67.7283L66.725 67.8269C66.6847 67.8991 66.6445 67.9727 66.6042 68.0449C66.3903 68.4269 66.2 68.7616 66.0208 69.0658L66 69.1005C65.825 69.3977 65.6389 69.7074 65.4292 70.0477C65.375 70.1352 65.3208 70.2227 65.2653 70.3102L65.2 70.413C65.0667 70.6255 64.932 70.838 64.7958 71.0463C64.7125 71.1741 64.6292 71.3005 64.5458 71.4269C64.4125 71.6269 64.2792 71.8255 64.1431 72.0213C64.0583 72.1449 63.9722 72.2686 63.8861 72.3908C63.7458 72.5908 63.6028 72.788 63.4597 72.9824L63.3903 73.0783C63.332 73.1574 63.275 73.2366 63.2167 73.3158C63.0625 73.5213 62.907 73.7227 62.75 73.9227L62.6625 74.0352C62.6153 74.0963 62.5681 74.1588 62.5195 74.2186C62.3292 74.4602 62.1472 74.6824 61.9708 74.8936Z" fill="#FFECE5"/>
<path d="M70.0847 43.457L69.9014 44.6056H46.5056L46.6889 43.457H70.0847Z" fill="#F56630"/>
<path d="M69.9014 44.9181H46.5056C46.4139 44.9181 46.3278 44.8779 46.2681 44.8084C46.2083 44.739 46.1833 44.6473 46.1972 44.557L46.3806 43.4084C46.4042 43.257 46.5361 43.1445 46.6889 43.1445H70.0847C70.1764 43.1445 70.2625 43.1848 70.3222 43.2543C70.382 43.3237 70.4069 43.4154 70.3931 43.5056L70.2097 44.6543C70.1861 44.807 70.0556 44.9181 69.9014 44.9181ZM46.8708 44.2931H69.6347L69.7181 43.7695H46.9542L46.8708 44.2931Z" fill="#F56630"/>
<path d="M67.1653 50.7832L66.9819 51.9318H43.5847L43.7681 50.7832H67.1653Z" fill="#F56630"/>
<path d="M66.9819 52.2443H43.5847C43.4931 52.2443 43.4069 52.204 43.3472 52.1346C43.2875 52.0651 43.2625 51.9735 43.2764 51.8832L43.4597 50.7346C43.4833 50.5832 43.6153 50.4707 43.7681 50.4707H67.1653C67.2569 50.4707 67.3431 50.511 67.4028 50.5804C67.4625 50.6499 67.4875 50.7415 67.4736 50.8318L67.2903 51.9804C67.2667 52.1332 67.1361 52.2443 66.9819 52.2443ZM43.95 51.6193H66.7153L66.7986 51.0957H44.0347L43.95 51.6193Z" fill="#F56630"/>
<path d="M65.7055 54.4443L65.5222 55.5929H42.1236L42.3069 54.4443H65.7055Z" fill="#F56630"/>
<path d="M65.5222 55.9054H42.1236C42.0319 55.9054 41.9458 55.8652 41.8861 55.7957C41.8264 55.7263 41.8014 55.6346 41.8153 55.5443L41.9986 54.3957C42.0222 54.2443 42.1542 54.1318 42.3069 54.1318H65.7042C65.7958 54.1318 65.8819 54.1721 65.9417 54.2416C66.0014 54.311 66.0264 54.4027 66.0125 54.4929L65.8292 55.6416C65.8055 55.7943 65.675 55.9054 65.5222 55.9054ZM42.4903 55.2804H65.2555L65.3389 54.7568H42.5736L42.4903 55.2804Z" fill="#F56630"/>
<path d="M68.625 47.1201L68.443 48.2687H45.0444L45.2278 47.1201H68.625Z" fill="#F56630"/>
<path d="M68.4431 48.5812H45.0444C44.9528 48.5812 44.8667 48.5409 44.8069 48.4715C44.7472 48.4021 44.7222 48.3104 44.7361 48.2201L44.9194 47.0715C44.9431 46.9201 45.075 46.8076 45.2278 46.8076H68.625C68.7167 46.8076 68.8028 46.8479 68.8625 46.9173C68.9222 46.9868 68.9472 47.0784 68.9333 47.1687L68.75 48.3173C68.7264 48.4701 68.5958 48.5812 68.4431 48.5812ZM45.4111 47.9562H68.1764L68.2597 47.4326H45.4944L45.4111 47.9562Z" fill="#F56630"/>
<path d="M120.586 99.8515C122.179 99.8515 123.471 98.5599 123.471 96.9667C123.471 95.3736 122.179 94.082 120.586 94.082C118.993 94.082 117.701 95.3736 117.701 96.9667C117.701 98.5599 118.993 99.8515 120.586 99.8515Z" fill="#FFECE5"/>
<path d="M124.185 98.9228C125.778 98.9228 127.069 97.6312 127.069 96.038C127.069 94.4448 125.778 93.1533 124.185 93.1533C122.592 93.1533 121.3 94.4448 121.3 96.038C121.3 97.6312 122.592 98.9228 124.185 98.9228Z" fill="#FFECE5"/>
<path d="M30.4917 90.1453C31.2472 90.1453 31.8597 89.5328 31.8597 88.7772C31.8597 88.0217 31.2472 87.4092 30.4917 87.4092C29.7361 87.4092 29.1236 88.0217 29.1236 88.7772C29.1236 89.5328 29.7361 90.1453 30.4917 90.1453Z" fill="#FFECE5"/>
<path d="M29.0319 91.1326C29.7875 91.1326 30.4 90.5201 30.4 89.7645C30.4 89.009 29.7875 88.3965 29.0319 88.3965C28.2764 88.3965 27.6639 89.009 27.6639 89.7645C27.6639 90.5201 28.2764 91.1326 29.0319 91.1326Z" fill="#FFECE5"/>
<path d="M31.4902 44.606C32.6316 44.606 33.5569 43.6807 33.5569 42.5393C33.5569 41.3979 32.6316 40.4727 31.4902 40.4727C30.3489 40.4727 29.4236 41.3979 29.4236 42.5393C29.4236 43.6807 30.3489 44.606 31.4902 44.606Z" fill="#FFECE5"/>
<path d="M87.6611 48.2408C88.8025 48.2408 89.7277 47.3155 89.7277 46.1741C89.7277 45.0327 88.8025 44.1074 87.6611 44.1074C86.5197 44.1074 85.5944 45.0327 85.5944 46.1741C85.5944 47.3155 86.5197 48.2408 87.6611 48.2408Z" fill="#FFECE5"/>
<path d="M88.6945 49.9126C89.0964 49.9126 89.4222 49.5867 89.4222 49.1848C89.4222 48.7829 89.0964 48.457 88.6945 48.457C88.2925 48.457 87.9667 48.7829 87.9667 49.1848C87.9667 49.5867 88.2925 49.9126 88.6945 49.9126Z" fill="#FFECE5"/>
<path d="M125.007 78.3912C125.862 78.3912 126.556 77.6978 126.556 76.8426C126.556 75.9873 125.862 75.2939 125.007 75.2939C124.152 75.2939 123.458 75.9873 123.458 76.8426C123.458 77.6978 124.152 78.3912 125.007 78.3912Z" fill="#FFECE5"/>
<path d="M126.817 75.8348C127.118 75.8348 127.362 75.5905 127.362 75.289C127.362 74.9875 127.118 74.7432 126.817 74.7432C126.515 74.7432 126.271 74.9875 126.271 75.289C126.271 75.5905 126.515 75.8348 126.817 75.8348Z" fill="#FFECE5"/>
<path d="M133.692 55.7058C135.655 55.7058 137.247 54.114 137.247 52.1503C137.247 50.1866 135.655 48.5947 133.692 48.5947C131.728 48.5947 130.136 50.1866 130.136 52.1503C130.136 54.114 131.728 55.7058 133.692 55.7058Z" fill="#FCD2C2"/>
<path d="M130.136 50.3949C131.071 50.3949 131.829 49.6369 131.829 48.7018C131.829 47.7668 131.071 47.0088 130.136 47.0088C129.201 47.0088 128.443 47.7668 128.443 48.7018C128.443 49.6369 129.201 50.3949 130.136 50.3949Z" fill="#FFECE5"/>
</svg>
