<svg width="30" height="31" viewBox="0 0 30 31" fill="none" xmlns="http://www.w3.org/2000/svg">
<rect y="0.5" width="30" height="30" rx="15" fill="#FFECE5"/>
<path d="M15.5833 10.8333C15.5833 10.5112 15.3222 10.25 15 10.25C14.6778 10.25 14.4167 10.5112 14.4167 10.8333V14.9167H10.3333C10.0112 14.9167 9.75 15.1778 9.75 15.5C9.75 15.8222 10.0112 16.0833 10.3333 16.0833H14.4167V20.1667C14.4167 20.4888 14.6778 20.75 15 20.75C15.3222 20.75 15.5833 20.4888 15.5833 20.1667V16.0833H19.6667C19.9888 16.0833 20.25 15.8222 20.25 15.5C20.25 15.1778 19.9888 14.9167 19.6667 14.9167H15.5833V10.8333Z" fill="#EB5017"/>
</svg>
