<svg width="14" height="19" viewBox="0 0 14 19" fill="none" xmlns="http://www.w3.org/2000/svg">
<path fill-rule="evenodd" clip-rule="evenodd" d="M7.00016 0.666504C4.69898 0.666504 2.8335 2.53198 2.8335 4.83317C2.8335 7.13436 4.69898 8.99984 7.00016 8.99984C9.30135 8.99984 11.1668 7.13436 11.1668 4.83317C11.1668 2.53198 9.30135 0.666504 7.00016 0.666504ZM4.50016 4.83317C4.50016 3.45246 5.61945 2.33317 7.00016 2.33317C8.38087 2.33317 9.50016 3.45246 9.50016 4.83317C9.50016 6.21388 8.38087 7.33317 7.00016 7.33317C5.61945 7.33317 4.50016 6.21388 4.50016 4.83317Z" fill="#F56630"/>
<path fill-rule="evenodd" clip-rule="evenodd" d="M7.00016 18.1665C5.71641 18.1665 3.85834 17.875 2.46302 17.2643C1.77802 16.9645 1.08137 16.5354 0.676624 15.9143C0.46376 15.5877 0.329191 15.2029 0.333601 14.7733C0.337972 14.3477 0.478029 13.9399 0.713425 13.5605C1.85459 11.7212 4.18915 9.83317 7.00016 9.83317C9.81116 9.83317 12.1457 11.7212 13.2869 13.5605C13.5223 13.9399 13.6624 14.3477 13.6667 14.7733C13.6711 15.2029 13.5366 15.5877 13.3237 15.9143C12.919 16.5354 12.2223 16.9645 11.5373 17.2643C10.142 17.875 8.28391 18.1665 7.00016 18.1665ZM2.12966 14.4392C2.01993 14.616 2.0008 14.7296 2.00018 14.7905C1.9996 14.8474 2.01422 14.9142 2.07297 15.0044C2.21145 15.2169 2.54772 15.4821 3.13127 15.7375C4.27303 16.2372 5.89453 16.4998 7.00016 16.4998C8.10579 16.4998 9.72729 16.2372 10.8691 15.7375C11.4526 15.4821 11.7889 15.2169 11.9274 15.0044C11.9861 14.9142 12.0007 14.8474 12.0001 14.7905C11.9995 14.7296 11.9804 14.616 11.8707 14.4392C10.9355 12.932 9.07044 11.4998 7.00016 11.4998C4.92988 11.4998 3.06478 12.932 2.12966 14.4392Z" fill="#F56630"/>
</svg>
