<svg width="18" height="17" viewBox="0 0 18 17" fill="none" xmlns="http://www.w3.org/2000/svg">
<path d="M4.12429 4.55548C3.94611 4.02094 3.52666 3.60149 2.99213 3.42331C2.44812 3.24198 2.44812 2.47249 2.99213 2.29115C3.52666 2.11297 3.94611 1.69352 4.12429 1.15899C4.30563 0.614974 5.07512 0.614974 5.25645 1.15899C5.43463 1.69352 5.85408 2.11297 6.38862 2.29115C6.93263 2.47249 6.93263 3.24198 6.38862 3.42331C5.85408 3.60149 5.43463 4.02094 5.25645 4.55548C5.07512 5.09949 4.30563 5.09949 4.12429 4.55548Z" stroke="#F56630" stroke-width="1.5" stroke-linecap="round"/>
<path d="M4.24831 15.2774C3.89196 14.2083 3.05306 13.3694 1.98399 13.0131C0.895963 12.6504 0.895963 11.1114 1.98399 10.7488C3.05306 10.3924 3.89196 9.5535 4.24831 8.48443C4.61099 7.39641 6.14997 7.39641 6.51264 8.48443C6.869 9.5535 7.7079 10.3924 8.77697 10.7488C9.86499 11.1114 9.86499 12.6504 8.77697 13.0131C7.7079 13.3694 6.869 14.2083 6.51264 15.2774C6.14997 16.3654 4.61099 16.3654 4.24831 15.2774Z" stroke="#F56630" stroke-width="1.5" stroke-linecap="round"/>
<path d="M10.8214 7.38486C11.6232 7.65213 12.2524 8.28131 12.5196 9.08311C12.7916 9.89913 13.9459 9.89913 14.2179 9.08311C14.4851 8.28131 15.1143 7.65213 15.9161 7.38486C16.7321 7.11286 16.7321 5.95863 15.9161 5.68662C15.1143 5.41935 14.4851 4.79018 14.2179 3.98837C13.9459 3.17236 12.7916 3.17236 12.5196 3.98837C12.2524 4.79018 11.6232 5.41935 10.8214 5.68662C10.0054 5.95863 10.0054 7.11286 10.8214 7.38486Z" stroke="#F56630" stroke-width="1.5" stroke-linecap="round"/>
</svg>
