<svg width="22" height="21" viewBox="0 0 22 21" fill="none" xmlns="http://www.w3.org/2000/svg">
<path d="M1 4.5C1 2.29086 2.79086 0.5 5 0.5H7C7.55228 0.5 8 0.947715 8 1.5C8 2.05228 7.55228 2.5 7 2.5H5C3.89543 2.5 3 3.39543 3 4.5V6.5C3 7.05228 2.55228 7.5 2 7.5C1.44772 7.5 1 7.05228 1 6.5V4.5Z" fill="black"/>
<path d="M21 4.5C21 2.29086 19.2091 0.5 17 0.5H15C14.4477 0.5 14 0.947715 14 1.5C14 2.05228 14.4477 2.5 15 2.5H17C18.1046 2.5 19 3.39543 19 4.5V6.5C19 7.05228 19.4477 7.5 20 7.5C20.5523 7.5 21 7.05228 21 6.5V4.5Z" fill="black"/>
<path d="M5 20.5C2.79086 20.5 1 18.7091 1 16.5V14.5C1 13.9477 1.44772 13.5 2 13.5C2.55228 13.5 3 13.9477 3 14.5V16.5C3 17.6046 3.89543 18.5 5 18.5H7C7.55228 18.5 8 18.9477 8 19.5C8 20.0523 7.55228 20.5 7 20.5H5Z" fill="black"/>
<path d="M21 16.5C21 18.7091 19.2091 20.5 17 20.5H15C14.4477 20.5 14 20.0523 14 19.5C14 18.9477 14.4477 18.5 15 18.5H17C18.1046 18.5 19 17.6046 19 16.5V14.5C19 13.9477 19.4477 13.5 20 13.5C20.5523 13.5 21 13.9477 21 14.5V16.5Z" fill="black"/>
<path d="M1 10.5C0.447715 10.5 0 10.9477 0 11.5C0 12.0523 0.447715 12.5 1 12.5H21C21.5523 12.5 22 12.0523 22 11.5C22 10.9477 21.5523 10.5 21 10.5H1Z" fill="black"/>
</svg>
