<svg width="18" height="18" viewBox="0 0 18 18" fill="none" xmlns="http://www.w3.org/2000/svg">
<path fill-rule="evenodd" clip-rule="evenodd" d="M8.1665 0.666992C4.02437 0.666992 0.666504 4.02486 0.666504 8.16699C0.666504 12.3091 4.02437 15.667 8.1665 15.667C9.93735 15.667 11.5649 15.0533 12.8479 14.0269L15.9106 17.0896C16.236 17.415 16.7637 17.415 17.0891 17.0896C17.4145 16.7641 17.4145 16.2365 17.0891 15.9111L14.0264 12.8484C15.0528 11.5653 15.6665 9.93784 15.6665 8.16699C15.6665 4.02486 12.3086 0.666992 8.1665 0.666992ZM2.33317 8.16699C2.33317 4.94533 4.94484 2.33366 8.1665 2.33366C11.3882 2.33366 13.9998 4.94533 13.9998 8.16699C13.9998 11.3887 11.3882 14.0003 8.1665 14.0003C4.94484 14.0003 2.33317 11.3887 2.33317 8.16699Z" fill="#667185"/>
</svg>
