<svg width="17" height="18" viewBox="0 0 17 18" fill="none" xmlns="http://www.w3.org/2000/svg">
<path fill-rule="evenodd" clip-rule="evenodd" d="M13.6666 0.666992C11.8256 0.666992 10.3333 2.15938 10.3333 4.00033C10.3333 4.14268 10.3422 4.28294 10.3595 4.42059C10.239 4.51737 10.082 4.63989 9.89891 4.77451C9.45233 5.10294 8.87812 5.48318 8.31548 5.74457C7.83214 5.96911 7.25162 6.16399 6.77614 6.3054C6.54171 6.37513 6.33938 6.42994 6.19635 6.46714C6.12494 6.48572 6.06859 6.49983 6.03073 6.50915L5.98832 6.51948L5.97837 6.52185L5.97638 6.52232C5.95551 6.52722 5.93487 6.53289 5.91477 6.53924C5.32202 5.99747 4.5329 5.66699 3.66659 5.66699C1.82564 5.66699 0.333252 7.15938 0.333252 9.00033C0.333252 10.8413 1.82564 12.3337 3.66659 12.3337C4.53288 12.3337 5.322 12.0032 5.91473 11.4614C5.94493 11.471 5.97599 11.4789 6.00782 11.4851L6.00873 11.4852L6.01702 11.4869L6.05515 11.4948C6.08977 11.5021 6.14214 11.5135 6.20922 11.529C6.34363 11.5601 6.53579 11.6075 6.76166 11.6717C7.21933 11.8017 7.78939 11.9934 8.29391 12.2457C8.80407 12.5008 9.38681 12.8871 9.85866 13.2248C10.0541 13.3647 10.2253 13.4925 10.3578 13.5935C10.3416 13.7268 10.3333 13.8626 10.3333 14.0003C10.3333 15.8413 11.8256 17.3337 13.6666 17.3337C15.5075 17.3337 16.9999 15.8413 16.9999 14.0003C16.9999 12.1594 15.5075 10.667 13.6666 10.667C12.5781 10.667 11.6115 11.1887 11.0031 11.9957C10.9474 11.955 10.8892 11.9128 10.8288 11.8696C10.3354 11.5164 9.66813 11.0694 9.03926 10.755C8.40475 10.4377 7.72481 10.2127 7.21724 10.0685C7.086 10.0312 6.96456 9.99883 6.8563 9.97125C6.94969 9.66405 6.99992 9.33805 6.99992 9.00033C6.99992 8.65801 6.94832 8.32775 6.85247 8.01689C6.97053 7.98451 7.10521 7.94635 7.25127 7.90291C7.75722 7.75243 8.4267 7.53064 9.01769 7.25609C9.72451 6.92772 10.4003 6.47463 10.8864 6.11717C10.9308 6.08449 10.9739 6.05244 11.0155 6.02117C11.6245 6.81894 12.5854 7.33366 13.6666 7.33366C15.5075 7.33366 16.9999 5.84127 16.9999 4.00033C16.9999 2.15938 15.5075 0.666992 13.6666 0.666992ZM11.9999 4.00033C11.9999 3.07985 12.7461 2.33366 13.6666 2.33366C14.5871 2.33366 15.3333 3.07985 15.3333 4.00033C15.3333 4.9208 14.5871 5.66699 13.6666 5.66699C12.7461 5.66699 11.9999 4.9208 11.9999 4.00033ZM1.99992 9.00033C1.99992 8.07985 2.74611 7.33366 3.66659 7.33366C4.58706 7.33366 5.33325 8.07985 5.33325 9.00033C5.33325 9.9208 4.58706 10.667 3.66659 10.667C2.74611 10.667 1.99992 9.9208 1.99992 9.00033ZM11.9999 14.0003C11.9999 13.0799 12.7461 12.3337 13.6666 12.3337C14.5871 12.3337 15.3333 13.0799 15.3333 14.0003C15.3333 14.9208 14.5871 15.667 13.6666 15.667C12.7461 15.667 11.9999 14.9208 11.9999 14.0003Z" fill="#CC400C"/>
</svg>
