<svg width="16" height="16" viewBox="0 0 16 16" fill="none" xmlns="http://www.w3.org/2000/svg">
<path d="M7.05716 0.733398C6.68897 0.733398 6.3905 1.03188 6.3905 1.40007C6.3905 1.76825 6.68897 2.06673 7.05716 2.06673H8.27612L0.928905 9.41394C0.668555 9.67429 0.668555 10.0964 0.928905 10.3568C1.18925 10.6171 1.61136 10.6171 1.87171 10.3568L9.21892 3.00954V4.22849C9.21892 4.59668 9.5174 4.89516 9.88559 4.89516C10.2538 4.89516 10.5523 4.59668 10.5523 4.22849V1.40007C10.5523 1.03188 10.2538 0.733398 9.88559 0.733398H7.05716Z" fill="white"/>
<path d="M15.071 6.58558C15.3314 6.32523 15.3314 5.90312 15.071 5.64277C14.8107 5.38242 14.3886 5.38242 14.1282 5.64277L6.78103 12.99V11.771C6.78103 11.4028 6.48255 11.1044 6.11436 11.1044C5.74617 11.1044 5.44769 11.4028 5.44769 11.771V14.5995C5.44769 14.9676 5.74617 15.2661 6.11436 15.2661H8.94279C9.31098 15.2661 9.60945 14.9676 9.60945 14.5995C9.60945 14.2313 9.31098 13.9328 8.94279 13.9328H7.72383L15.071 6.58558Z" fill="white"/>
</svg>
