<svg width="56" height="56" viewBox="0 0 56 56" fill="none" xmlns="http://www.w3.org/2000/svg">
<rect width="56" height="56" rx="28" fill="#FFECE5"/>
<path d="M37.3333 14V30.3333H42V14H37.3333Z" fill="#F56630"/>
<path fill-rule="evenodd" clip-rule="evenodd" d="M30.3333 34.4492L32.6667 29.7825V16.3333H20.1087L16.3333 23.8842V29.1667C16.3333 29.811 16.8557 30.3333 17.5 30.3333H28V38.5C28 39.1443 28.5223 39.6667 29.1667 39.6667H30.3333V34.4492ZM32.6667 42H29.1667C27.2337 42 25.6667 40.433 25.6667 38.5V32.6667H17.5C15.567 32.6667 14 31.0997 14 29.1667V23.3333L18.6667 14H35V30.3333L32.6667 35V42Z" fill="#F56630"/>
</svg>
