<svg width="56" height="56" viewBox="0 0 56 56" fill="none" xmlns="http://www.w3.org/2000/svg">
<rect width="56" height="56" rx="28" fill="#FFECE5"/>
<path d="M18.6667 42V25.6667H14V42H18.6667Z" fill="#F56630"/>
<path fill-rule="evenodd" clip-rule="evenodd" d="M25.6667 21.5508L23.3333 26.2175V39.6667H35.8913L39.6667 32.1158V26.8333C39.6667 26.189 39.1443 25.6667 38.5 25.6667H28V17.5C28 16.8557 27.4777 16.3333 26.8333 16.3333H25.6667V21.5508ZM23.3333 14H26.8333C28.7663 14 30.3333 15.567 30.3333 17.5V23.3333H38.5C40.433 23.3333 42 24.9003 42 26.8333V32.6667L37.3333 42H21V25.6667L23.3333 21V14Z" fill="#F56630"/>
</svg>
