<svg width="24" height="24" viewBox="0 0 24 24" fill="none" xmlns="http://www.w3.org/2000/svg">
<rect width="24" height="24" rx="12" fill="#FFECE5"/>
<path fill-rule="evenodd" clip-rule="evenodd" d="M12 7.33331C10.5272 7.33331 9.33332 8.52722 9.33332 9.99998C9.33332 11.4727 10.5272 12.6666 12 12.6666C13.4727 12.6666 14.6667 11.4727 14.6667 9.99998C14.6667 8.52722 13.4727 7.33331 12 7.33331ZM10.6667 9.99998C10.6667 9.2636 11.2636 8.66665 12 8.66665C12.7364 8.66665 13.3333 9.2636 13.3333 9.99998C13.3333 10.7364 12.7364 11.3333 12 11.3333C11.2636 11.3333 10.6667 10.7364 10.6667 9.99998Z" fill="#F56630"/>
<path fill-rule="evenodd" clip-rule="evenodd" d="M12 18.6666C11.2421 18.6666 10.1492 18.4875 9.31988 18.1064C8.91305 17.9194 8.47653 17.6421 8.21905 17.2273C8.08312 17.0082 7.99724 16.7501 8.00005 16.4627C8.00283 16.1781 8.09209 15.9082 8.23824 15.6608C8.90656 14.5298 10.293 13.3333 12 13.3333C13.7069 13.3333 15.0934 14.5298 15.7617 15.6608C15.9079 15.9082 15.9971 16.1781 15.9999 16.4627C16.0027 16.7501 15.9168 17.0082 15.7809 17.2273C15.5234 17.6421 15.0869 17.9194 14.6801 18.1064C13.8507 18.4875 12.7579 18.6666 12 18.6666ZM9.38616 16.3391C9.3351 16.4255 9.33339 16.4684 9.33332 16.4757C9.33326 16.4806 9.3331 16.4938 9.35193 16.5241C9.40486 16.6094 9.55858 16.7487 9.87664 16.8949C10.4971 17.18 11.3925 17.3333 12 17.3333C12.6074 17.3333 13.5029 17.18 14.1233 16.8949C14.4414 16.7487 14.5951 16.6094 14.648 16.5241C14.6669 16.4938 14.6667 16.4809 14.6667 16.4761C14.6666 16.4688 14.6649 16.4255 14.6138 16.3391C14.0957 15.4622 13.0823 14.6666 12 14.6666C10.9176 14.6666 9.90429 15.4622 9.38616 16.3391Z" fill="#F56630"/>
<path fill-rule="evenodd" clip-rule="evenodd" d="M5.66665 12C5.66665 10.8954 6.56208 9.99998 7.66665 9.99998C8.77122 9.99998 9.66665 10.8954 9.66665 12C9.66665 13.1045 8.77122 14 7.66665 14C6.56208 14 5.66665 13.1045 5.66665 12ZM7.66665 11.3333C7.29846 11.3333 6.99998 11.6318 6.99998 12C6.99998 12.3682 7.29846 12.6666 7.66665 12.6666C8.03484 12.6666 8.33332 12.3682 8.33332 12C8.33332 11.6318 8.03484 11.3333 7.66665 11.3333Z" fill="#F56630"/>
<path d="M5.93047 16.963C5.76678 17.2928 5.36672 17.4275 5.03692 17.2638C4.70712 17.1001 4.57247 16.7001 4.73616 16.3703C4.98109 15.8768 5.3518 15.3814 5.81815 15.0023C6.28468 14.623 6.8825 14.3333 7.56477 14.3333C7.93296 14.3333 8.23143 14.6318 8.23143 15C8.23143 15.3682 7.93296 15.6666 7.56477 15.6666C7.27078 15.6666 6.9605 15.7919 6.65918 16.0369C6.35769 16.282 6.10081 16.6199 5.93047 16.963Z" fill="#F56630"/>
<path fill-rule="evenodd" clip-rule="evenodd" d="M14.54 12C14.54 10.8954 15.4355 9.99998 16.54 9.99998C17.6446 9.99998 18.54 10.8954 18.54 12C18.54 13.1045 17.6446 14 16.54 14C15.4355 14 14.54 13.1045 14.54 12ZM16.54 11.3333C16.1718 11.3333 15.8734 11.6318 15.8734 12C15.8734 12.3682 16.1718 12.6666 16.54 12.6666C16.9082 12.6666 17.2067 12.3682 17.2067 12C17.2067 11.6318 16.9082 11.3333 16.54 11.3333Z" fill="#F56630"/>
<path d="M19.2667 16.3703C19.4304 16.7001 19.2958 17.1001 18.966 17.2638C18.6362 17.4275 18.2361 17.2928 18.0724 16.963C17.9021 16.6199 17.6452 16.282 17.3437 16.0369C17.0424 15.7919 16.7321 15.6666 16.4381 15.6666C16.0699 15.6666 15.7715 15.3682 15.7715 15C15.7715 14.6318 16.0699 14.3333 16.4381 14.3333C17.1204 14.3333 17.7182 14.623 18.1848 15.0023C18.6511 15.3814 19.0218 15.8768 19.2667 16.3703Z" fill="#F56630"/>
</svg>
