<svg width="21" height="18" viewBox="0 0 21 18" fill="none" xmlns="http://www.w3.org/2000/svg">
<path fill-rule="evenodd" clip-rule="evenodd" d="M3.72476 0C1.94378 0 0.5 1.44377 0.5 3.22476V14C0.5 16.2091 2.29086 18 4.5 18H16.5C18.7091 18 20.5 16.2091 20.5 14V7.55556C20.5 5.34684 18.7105 3.55556 16.501 3.55556H13.3897C13.3498 3.49686 13.3038 3.42219 13.2518 3.32912C13.1109 3.07715 12.9738 2.78111 12.8166 2.44151C12.7793 2.36093 12.7409 2.27786 12.701 2.19239C12.5098 1.7827 12.2781 1.30151 12.0099 0.919752C11.7873 0.602865 11.3009 0 10.5138 0H3.72476ZM10.9876 3.25176C11.0332 3.35036 11.0804 3.45243 11.1288 3.55556H2.5V3.22476C2.5 2.54834 3.04834 2 3.72476 2H10.3219C10.3368 2.01884 10.354 2.04178 10.3734 2.0695C10.526 2.28671 10.6903 2.61316 10.8886 3.0382C10.9206 3.10678 10.9537 3.17835 10.9876 3.25176ZM4.5 16C3.39543 16 2.5 15.1046 2.5 14V5.55556H12.9782C12.9808 5.55561 12.9834 5.55566 12.9861 5.55569C12.9975 5.55584 13.0089 5.5558 13.0203 5.55556H16.501C17.6051 5.55556 18.5 6.45056 18.5 7.55556V8H16.5C14.8431 8 13.5 9.34315 13.5 11C13.5 12.6569 14.8431 14 16.5 14H18.5C18.5 15.1046 17.6046 16 16.5 16H4.5ZM15.5 11C15.5 10.4477 15.9477 10 16.5 10H18.5V12H16.5C15.9477 12 15.5 11.5523 15.5 11ZM10.2514 1.92323C10.2514 1.92272 10.2555 1.92566 10.2637 1.93356C10.2555 1.92769 10.2514 1.92374 10.2514 1.92323Z" fill="white"/>
</svg>
